<svg width="24" height="24" viewBox="0 0 24 24" fill="none" xmlns="http://www.w3.org/2000/svg">
<path d="M13.8177 7.45483H10.6359C10.385 7.45483 10.1814 7.65847 10.1814 7.90938V13.8185H7.90865C7.65774 13.8185 7.4541 14.0221 7.4541 14.273C7.4541 14.5239 7.65774 14.7276 7.90865 14.7276H10.1814V16.0912C10.1814 16.3421 10.385 16.5457 10.6359 16.5457C10.8868 16.5457 11.0905 16.3421 11.0905 16.0912V14.7276H13.3632C13.6141 14.7276 13.8177 14.5239 13.8177 14.273C13.8177 14.0221 13.6141 13.8185 13.3632 13.8185H11.0905V12.9094H13.8177C15.3214 12.9094 16.545 11.6857 16.545 10.1821C16.545 8.67847 15.3214 7.45483 13.8177 7.45483ZM13.8177 12.0003H11.0905V8.36392H13.8177C14.8205 8.36392 15.6359 9.17938 15.6359 10.1821C15.6359 11.1848 14.8205 12.0003 13.8177 12.0003Z" fill="white" stroke="white" stroke-width="0.5"/>
<path d="M12 2C6.48636 2 2 6.48636 2 12C2 17.5136 6.48636 22 12 22C17.5136 22 22 17.5136 22 12C22 6.48636 17.5136 2 12 2ZM12 21.0909C6.98727 21.0909 2.90909 17.0127 2.90909 12C2.90909 6.98727 6.98727 2.90909 12 2.90909C17.0127 2.90909 21.0909 6.98727 21.0909 12C21.0909 17.0127 17.0127 21.0909 12 21.0909Z" fill="white" stroke="white"/>
</svg>
