<svg width="20" height="20" viewBox="0 0 20 20" fill="none" xmlns="http://www.w3.org/2000/svg">
<path d="M14.8747 6.73905H5.12524C5.01977 6.73009 4.91525 6.76494 4.83622 6.83538C4.75851 6.91003 4.72252 7.01809 4.73989 7.12441L5.7418 15.8527C5.8593 16.815 6.67988 17.5362 7.6493 17.529H12.5048C13.5015 17.5432 14.3411 16.7876 14.4316 15.7949L15.2601 7.08587C15.2652 6.99246 15.2302 6.90129 15.1637 6.83538C15.0847 6.76494 14.9802 6.73009 14.8747 6.73905ZM13.6609 15.7564C13.6003 16.3431 13.0942 16.7818 12.5048 16.7583H7.64933C7.07054 16.7818 6.57303 16.3517 6.51251 15.7756L5.54914 7.50977H14.4509L13.6609 15.7564Z" fill="#94B3E2" stroke="#94B3E2" stroke-width="0.5"/>
<path d="M16.2812 4.23431H12.312V3.61772C12.3334 3.02218 11.868 2.5221 11.2725 2.5007C11.2529 2.5 11.2333 2.49982 11.2138 2.50019H8.78604C8.19021 2.48916 7.69831 2.96321 7.68728 3.55904C7.68691 3.57859 7.6871 3.59817 7.6878 3.61772V4.23428H3.71861C3.50578 4.23428 3.33325 4.4068 3.33325 4.61963C3.33325 4.83247 3.50578 5.00499 3.71861 5.00499H16.2812C16.4941 5.00499 16.6666 4.83247 16.6666 4.61963C16.6666 4.4068 16.494 4.23431 16.2812 4.23431ZM11.5413 3.61772V4.23428H8.45847V3.61772C8.43675 3.44885 8.55606 3.29436 8.72493 3.27264C8.74518 3.27002 8.76564 3.26946 8.786 3.2709H11.2138C11.3836 3.25888 11.531 3.38678 11.5431 3.55665C11.5445 3.577 11.5439 3.59747 11.5413 3.61772Z" fill="#94B3E2" stroke="#94B3E2" stroke-width="0.5"/>
</svg>
