<svg width="24" height="24" viewBox="0 0 24 24" fill="none" xmlns="http://www.w3.org/2000/svg">
<path d="M14.6484 15.6602C14.2345 15.6602 13.8985 15.9879 13.8985 16.3917V17.2857C13.8985 18.8029 12.6333 20.037 11.077 20.037H6.33008C4.76985 20.037 3.49985 18.7991 3.49985 17.2752C3.49985 16.8715 3.16384 16.5446 2.74992 16.5446C2.336 16.5446 2 16.8715 2 17.2752C2 19.6047 3.94298 21.5 6.33008 21.5H11.077C13.4602 21.5 15.3983 19.6095 15.3983 17.2857V16.3917C15.3983 15.9879 15.0623 15.6602 14.6484 15.6602Z" fill="white"/>
<path d="M14.6484 15.6602C14.2345 15.6602 13.8985 15.9879 13.8985 16.3917V17.2857C13.8985 18.8029 12.6333 20.037 11.077 20.037H6.33008C4.76985 20.037 3.49985 18.7991 3.49985 17.2752C3.49985 16.8715 3.16384 16.5446 2.74992 16.5446C2.336 16.5446 2 16.8715 2 17.2752C2 19.6047 3.94298 21.5 6.33008 21.5H11.077C13.4602 21.5 15.3983 19.6095 15.3983 17.2857V16.3917C15.3983 15.9879 15.0623 15.6602 14.6484 15.6602" stroke="white" stroke-width="0.5"/>
<path d="M2.74992 14.6804C3.16384 14.6804 3.49985 14.3527 3.49985 13.9489V6.71437C3.49985 5.19811 4.76498 3.96306 6.32131 3.96306H11.0673C12.6285 3.96306 13.8985 5.20096 13.8985 6.72482V7.6093C13.8985 8.01212 14.2345 8.33988 14.6484 8.33988C15.0623 8.33988 15.3983 8.01212 15.3983 7.6093V6.72482C15.3983 4.39533 13.4553 2.5 11.0673 2.5H6.32131C3.93811 2.5 2 4.39058 2 6.71437V13.9489C2 14.3527 2.336 14.6804 2.74992 14.6804Z" fill="white"/>
<path d="M2.74992 14.6804C3.16384 14.6804 3.49985 14.3527 3.49985 13.9489V6.71437C3.49985 5.19811 4.76498 3.96306 6.32131 3.96306H11.0673C12.6285 3.96306 13.8985 5.20096 13.8985 6.72482V7.6093C13.8985 8.01212 14.2345 8.33988 14.6484 8.33988C15.0623 8.33988 15.3983 8.01212 15.3983 7.6093V6.72482C15.3983 4.39533 13.4553 2.5 11.0673 2.5H6.32131C3.93811 2.5 2 4.39058 2 6.71437V13.9489C2 14.3527 2.336 14.6804 2.74992 14.6804" stroke="white" stroke-width="0.5"/>
<path d="M21.9439 11.721C21.828 11.4464 21.5543 11.2678 21.2505 11.2678H9.54973C9.13581 11.2678 8.79883 11.5965 8.79883 12.0003C8.79883 12.4041 9.13581 12.7318 9.54973 12.7318H19.4351L17.8758 14.2462C17.5817 14.5312 17.5817 14.9939 17.8739 15.2808C18.02 15.4242 18.2128 15.4964 18.4047 15.4964C18.5965 15.4964 18.7874 15.4242 18.9345 15.2827L21.7803 12.519C21.9946 12.31 22.0598 11.9946 21.9439 11.721Z" fill="white"/>
<path d="M21.9439 11.721C21.828 11.4464 21.5543 11.2678 21.2505 11.2678H9.54973C9.13581 11.2678 8.79883 11.5965 8.79883 12.0003C8.79883 12.4041 9.13581 12.7318 9.54973 12.7318H19.4351L17.8758 14.2462C17.5817 14.5312 17.5817 14.9939 17.8739 15.2808C18.02 15.4242 18.2128 15.4964 18.4047 15.4964C18.5965 15.4964 18.7874 15.4242 18.9345 15.2827L21.7803 12.519C21.9946 12.31 22.0598 11.9946 21.9439 11.721" stroke="white" stroke-width="0.5"/>
<path d="M18.594 9.4489C18.7401 9.58951 18.931 9.66076 19.1219 9.66076C19.3147 9.66076 19.5076 9.58761 19.6546 9.4432C19.9458 9.15629 19.9439 8.69362 19.6488 8.40861L18.932 7.71698C18.6369 7.43197 18.1635 7.43387 17.8714 7.72268C17.5802 8.00864 17.5821 8.47226 17.8762 8.75632L18.594 9.4489Z" fill="white" stroke="white" stroke-width="0.5"/>
</svg>
