<svg width="26" height="26" viewBox="0 0 26 26" fill="none" xmlns="http://www.w3.org/2000/svg">
<path d="M17.2545 17.254C16.1751 18.3333 14.6513 19.0317 13.0005 19.0317C11.3497 19.0317 9.8259 18.3651 8.74654 17.254C7.66717 16.1746 6.96875 14.6508 6.96875 13C6.96875 11.3492 7.66717 9.82535 8.74654 8.74598C9.8259 7.66661 11.3497 6.9682 13.0005 6.9682C14.6513 6.9682 16.1751 7.63487 17.2545 8.74598C18.3339 9.82535 19.0323 11.3492 19.0323 13C19.0323 14.6508 18.3656 16.1746 17.2545 17.254ZM16.1116 9.88885C15.318 9.09519 14.2069 8.619 13.0005 8.619C11.7942 8.619 10.6831 9.09519 9.8894 9.88885C9.09574 10.6825 8.61955 11.7936 8.61955 13C8.61955 14.2063 9.09574 15.3174 9.8894 16.1111C10.6831 16.9047 11.7942 17.3809 13.0005 17.3809C14.2069 17.3809 15.318 16.9047 16.1116 16.1111C16.9053 15.3174 17.3815 14.2063 17.3815 13C17.3815 11.7936 16.9053 10.6825 16.1116 9.88885Z" fill="white" stroke="white" stroke-width="0.2"/>
<path d="M24.1742 13.8254H21.7297C21.2853 13.8254 20.9043 13.4445 20.9043 13C20.9043 12.5556 21.2853 12.1746 21.7297 12.1746H24.1742C24.6186 12.1746 24.9996 12.5556 24.9996 13C24.9996 13.4445 24.6186 13.8254 24.1742 13.8254Z" fill="white" stroke="white" stroke-width="0.5"/>
<path d="M13.0002 5.09521C12.5558 5.09521 12.1748 4.71426 12.1748 4.26981V1.82536C12.1748 1.38091 12.5558 0.999959 13.0002 0.999959C13.4447 0.999959 13.8256 1.38091 13.8256 1.82536V4.26981C13.8256 4.71426 13.4447 5.09521 13.0002 5.09521Z" fill="white" stroke="white" stroke-width="0.5"/>
<path d="M21.4766 5.66662L19.7306 7.41266C19.4449 7.73012 18.9052 7.73012 18.5877 7.41266C18.2702 7.0952 18.2702 6.58726 18.5877 6.2698L20.3337 4.52376C20.6512 4.2063 21.1591 4.2063 21.4766 4.52376C21.7941 4.84122 21.7941 5.34916 21.4766 5.66662Z" fill="white" stroke="white" stroke-width="0.5"/>
<path d="M13.0002 25C12.5558 25 12.1748 24.619 12.1748 24.1746V21.7301C12.1748 21.2857 12.5558 20.9047 13.0002 20.9047C13.4447 20.9047 13.8256 21.2857 13.8256 21.7301V24.1746C13.8256 24.619 13.4447 25 13.0002 25Z" fill="white" stroke="white" stroke-width="0.5"/>
<path d="M21.5079 21.4763C21.1904 21.7937 20.6825 21.7937 20.365 21.4763L18.619 19.7302C18.3015 19.4128 18.3015 18.9048 18.619 18.5874C18.9047 18.2699 19.4444 18.2699 19.7618 18.5874L21.5079 20.3334C21.8253 20.6509 21.8253 21.1588 21.5079 21.4763Z" fill="white" stroke="white" stroke-width="0.5"/>
<path d="M4.26985 13.8254H1.8254C1.38095 13.8254 1 13.4445 1 13C1 12.5556 1.34921 12.1746 1.8254 12.1746H4.26985C4.7143 12.1746 5.09525 12.5556 5.09525 13C5.09525 13.4445 4.7143 13.8254 4.26985 13.8254Z" fill="white" stroke="white" stroke-width="0.5"/>
<path d="M7.3809 7.41266C7.09519 7.73012 6.5555 7.73012 6.23804 7.41266L4.492 5.66662C4.17454 5.34916 4.17454 4.84122 4.492 4.52376C4.80946 4.2063 5.3174 4.2063 5.63486 4.52376L7.3809 6.2698C7.69836 6.58726 7.69836 7.0952 7.3809 7.41266Z" fill="white" stroke="white" stroke-width="0.5"/>
<path d="M7.3809 19.7302L5.63486 21.4763C5.3174 21.7937 4.80946 21.7937 4.492 21.4763C4.17454 21.1588 4.17454 20.6509 4.492 20.3334L6.23804 18.5874C6.5555 18.2699 7.06344 18.2699 7.3809 18.5874C7.69836 18.9048 7.69836 19.4128 7.3809 19.7302Z" fill="white" stroke="white" stroke-width="0.5"/>
</svg>
