<svg width="20" height="20" viewBox="0 0 20 20" fill="none" xmlns="http://www.w3.org/2000/svg">
<path d="M15.7776 3.10381C14.9712 2.29873 13.6652 2.29873 12.8588 3.10381L12.1282 3.83851L4.35072 11.6126L4.33419 11.6292C4.33019 11.6332 4.33019 11.6375 4.32593 11.6375C4.31766 11.6499 4.30527 11.6622 4.29713 11.6746C4.29713 11.6787 4.29287 11.6787 4.29287 11.6828C4.28461 11.6952 4.2806 11.7035 4.27221 11.7159C4.26821 11.72 4.26821 11.724 4.26407 11.7283C4.25994 11.7407 4.25581 11.749 4.25155 11.7614C4.25155 11.7654 4.24755 11.7654 4.24755 11.7696L2.52196 16.9591C2.47134 17.1069 2.50982 17.2705 2.621 17.3802C2.69913 17.4573 2.8045 17.5004 2.91413 17.5C2.95894 17.4992 3.00336 17.4922 3.04623 17.4793L8.23126 15.7495C8.23526 15.7495 8.23526 15.7495 8.23952 15.7454C8.25256 15.7416 8.26509 15.736 8.27658 15.7288C8.27981 15.7284 8.28265 15.727 8.28497 15.7248C8.29724 15.7165 8.31377 15.7081 8.32617 15.6999C8.33844 15.6917 8.35096 15.6793 8.36336 15.6711C8.36749 15.6668 8.37149 15.6668 8.37149 15.6628C8.37575 15.6587 8.38402 15.6547 8.38815 15.6463L16.8962 7.13736C17.7013 6.33086 17.7013 5.02483 16.8962 4.21845L15.7776 3.10381ZM8.09915 14.7792L5.22598 11.9059L12.4172 4.71398L15.2904 7.5873L8.09915 14.7792ZM4.82128 12.6696L7.33134 15.1798L3.56224 16.4348L4.82128 12.6696ZM16.3142 6.55932L15.8766 7.00112L13.0033 4.12754L13.4452 3.68586C13.9285 3.20287 14.712 3.20287 15.1955 3.68586L16.3183 4.80877C16.798 5.29435 16.7962 6.07606 16.3142 6.55932Z" fill="#68A4FF" stroke="#68A4FF" stroke-width="0.416667"/>
</svg>
