<svg width="64" height="64" viewBox="0 0 64 64" fill="none" xmlns="http://www.w3.org/2000/svg">
<path fill-rule="evenodd" clip-rule="evenodd" d="M50 22H14V50C14 54.4183 17.5817 58 22 58H42C46.4183 58 50 54.4183 50 50V22ZM20 30C20 28.8954 20.8954 28 22 28C23.1046 28 24 28.8954 24 30V50C24 51.1046 23.1046 52 22 52C20.8954 52 20 51.1046 20 50V30ZM30 30C30 28.8954 30.8954 28 32 28C33.1046 28 34 28.8954 34 30V50C34 51.1046 33.1046 52 32 52C30.8954 52 30 51.1046 30 50V30ZM40 30C40 28.8954 40.8954 28 42 28C43.1046 28 44 28.8954 44 30V50C44 51.1046 43.1046 52 42 52C40.8954 52 40 51.1046 40 50V30Z" fill="#578FFC"/>
<path d="M54 18H10C10 13.5817 13.5817 10 18 10H46C50.4183 10 54 13.5817 54 18Z" fill="#578FFC"/>
<path d="M23 10C23 7.79086 24.7909 6 27 6H37C39.2091 6 41 7.79086 41 10H23Z" fill="#578FFC"/>
</svg>
