<svg width="500" height="334" viewBox="0 0 500 334" fill="none" xmlns="http://www.w3.org/2000/svg">
<path d="M163.04 98.769H78.6133V41.0156H163.04V98.769ZM79.2799 98.1023H162.373V41.6823H79.2799V98.1023Z" fill="#68A4FF"/>
<path d="M85.3912 44.6487C85.3912 44.981 85.2927 45.3058 85.1081 45.5821C84.9235 45.8584 84.6611 46.0737 84.3542 46.2009C84.0472 46.328 83.7094 46.3613 83.3835 46.2965C83.0576 46.2316 82.7583 46.0716 82.5233 45.8367C82.2884 45.6017 82.1284 45.3024 82.0635 44.9765C81.9987 44.6506 82.032 44.3128 82.1591 44.0058C82.2863 43.6989 82.5016 43.4365 82.7779 43.2519C83.0542 43.0673 83.379 42.9688 83.7113 42.9688C84.1568 42.9687 84.5841 43.1457 84.8992 43.4608C85.2143 43.7759 85.3912 44.2032 85.3912 44.6487Z" fill="#A6A6A6"/>
<path d="M92.2272 44.6487C92.2272 44.981 92.1287 45.3058 91.9441 45.5821C91.7595 45.8584 91.4971 46.0737 91.1901 46.2009C90.8831 46.328 90.5453 46.3613 90.2194 46.2965C89.8935 46.2316 89.5942 46.0716 89.3592 45.8367C89.1243 45.6017 88.9643 45.3024 88.8995 44.9765C88.8346 44.6506 88.8679 44.3128 88.9951 44.0058C89.1222 43.6989 89.3375 43.4365 89.6138 43.2519C89.8901 43.0673 90.2149 42.9688 90.5472 42.9688C90.9927 42.9687 91.4201 43.1457 91.7351 43.4608C92.0502 43.7759 92.2272 44.2032 92.2272 44.6487Z" fill="#68A4FF"/>
<path d="M99.0764 44.6488C99.0778 44.9829 98.9798 45.3099 98.795 45.5883C98.6101 45.8667 98.3468 46.0839 98.0383 46.2124C97.7299 46.3409 97.3902 46.3749 97.0624 46.31C96.7346 46.2451 96.4334 46.0844 96.1971 45.8481C95.9608 45.6118 95.8001 45.3106 95.7352 44.9828C95.6703 44.655 95.7043 44.3154 95.8328 44.0069C95.9613 43.6984 96.1785 43.4351 96.4569 43.2502C96.7353 43.0654 97.0623 42.9674 97.3964 42.9688C97.842 42.9688 98.2693 43.1458 98.5844 43.4608C98.8994 43.7759 99.0764 44.2032 99.0764 44.6488Z" fill="#0057FF"/>
<path d="M162.862 47.8516H79.1016V48.5182H162.862V47.8516Z" fill="#68A4FF"/>
<path d="M439.143 233.731H438.477V149.845L456.297 125.525V80.0781H456.963V125.745L439.143 150.065V233.731Z" fill="#68A4FF"/>
<path d="M456.998 80.0119C456.618 80.0119 456.247 79.8993 455.931 79.6883C455.616 79.4773 455.37 79.1775 455.224 78.8266C455.079 78.4758 455.041 78.0897 455.115 77.7173C455.189 77.3449 455.372 77.0027 455.64 76.7342C455.909 76.4657 456.251 76.2829 456.624 76.2088C456.996 76.1347 457.382 76.1727 457.733 76.318C458.084 76.4633 458.384 76.7094 458.595 77.0252C458.806 77.3409 458.918 77.7121 458.918 78.0919C458.918 78.6011 458.716 79.0895 458.356 79.4495C457.996 79.8096 457.507 80.0119 456.998 80.0119ZM456.998 76.8452C456.75 76.8452 456.507 76.9189 456.301 77.0569C456.095 77.1949 455.934 77.3911 455.84 77.6205C455.745 77.8499 455.72 78.1022 455.769 78.3455C455.818 78.5888 455.938 78.8121 456.114 78.9871C456.29 79.1622 456.514 79.281 456.758 79.3286C457.001 79.3762 457.254 79.3504 457.482 79.2545C457.711 79.1587 457.907 78.997 458.043 78.79C458.18 78.583 458.253 78.34 458.251 78.0919C458.243 77.7659 458.107 77.4563 457.872 77.2295C457.638 77.0027 457.324 76.8767 456.998 76.8785V76.8452Z" fill="#68A4FF"/>
<path d="M444.026 233.673H443.359V152.726L461.179 128.406V96.6797H461.846V128.62L444.026 152.946V233.673Z" fill="#68A4FF"/>
<path d="M461.399 96.6134C461.019 96.6147 460.647 96.5033 460.331 96.2931C460.014 96.0829 459.767 95.7835 459.621 95.4328C459.474 95.0821 459.435 94.6958 459.509 94.323C459.582 93.9501 459.764 93.6073 460.033 93.3382C460.301 93.069 460.643 92.8854 461.016 92.8108C461.388 92.7362 461.775 92.7738 462.126 92.9189C462.477 93.0641 462.777 93.3102 462.989 93.626C463.2 93.9419 463.313 94.3134 463.313 94.6934C463.313 95.2015 463.111 95.6888 462.753 96.0487C462.394 96.4086 461.907 96.6117 461.399 96.6134ZM461.399 93.4401C461.151 93.4388 460.908 93.5112 460.701 93.6481C460.494 93.785 460.333 93.9803 460.237 94.2092C460.141 94.4381 460.115 94.6903 460.163 94.9338C460.21 95.1774 460.329 95.4013 460.504 95.5773C460.679 95.7532 460.902 95.8733 461.146 95.9222C461.389 95.9711 461.641 95.9466 461.871 95.852C462.1 95.7573 462.296 95.5967 462.434 95.3904C462.572 95.1842 462.646 94.9416 462.646 94.6934C462.646 94.3622 462.515 94.0444 462.281 93.8095C462.048 93.5747 461.731 93.4419 461.399 93.4401Z" fill="#68A4FF"/>
<path d="M434.749 123.047H434.082V233.987H434.749V123.047Z" fill="#68A4FF"/>
<path d="M434.544 122.981C434.164 122.982 433.792 122.87 433.475 122.66C433.159 122.45 432.912 122.151 432.765 121.8C432.619 121.449 432.58 121.063 432.653 120.69C432.727 120.317 432.909 119.975 433.177 119.705C433.445 119.436 433.788 119.253 434.16 119.178C434.533 119.103 434.919 119.141 435.27 119.286C435.622 119.431 435.922 119.677 436.133 119.993C436.344 120.309 436.457 120.681 436.457 121.061C436.457 121.569 436.256 122.056 435.897 122.416C435.539 122.776 435.052 122.979 434.544 122.981ZM434.544 119.814C434.295 119.813 434.052 119.885 433.845 120.022C433.638 120.16 433.476 120.355 433.381 120.585C433.285 120.814 433.26 121.066 433.308 121.31C433.356 121.554 433.475 121.778 433.651 121.954C433.827 122.129 434.051 122.249 434.294 122.297C434.538 122.345 434.791 122.32 435.02 122.224C435.249 122.128 435.445 121.967 435.582 121.759C435.719 121.552 435.792 121.309 435.791 121.061C435.785 120.733 435.652 120.42 435.419 120.19C435.186 119.959 434.872 119.829 434.544 119.827V119.814Z" fill="#68A4FF"/>
<path d="M430.729 233.395H430.062V177.095L417.969 154.275V113.281H418.635V154.108L430.729 176.928V233.395Z" fill="#68A4FF"/>
<path d="M417.936 114.192C417.556 114.192 417.185 114.079 416.869 113.868C416.553 113.657 416.307 113.357 416.162 113.006C416.016 112.655 415.978 112.269 416.053 111.897C416.127 111.525 416.309 111.182 416.578 110.914C416.847 110.645 417.189 110.463 417.561 110.388C417.934 110.314 418.32 110.352 418.67 110.498C419.021 110.643 419.321 110.889 419.532 111.205C419.743 111.521 419.856 111.892 419.856 112.272C419.856 112.781 419.653 113.269 419.293 113.629C418.933 113.989 418.445 114.192 417.936 114.192ZM417.936 111.025C417.687 111.025 417.445 111.099 417.239 111.237C417.032 111.375 416.872 111.571 416.777 111.8C416.682 112.03 416.658 112.282 416.707 112.525C416.756 112.769 416.876 112.992 417.052 113.167C417.228 113.342 417.452 113.461 417.695 113.508C417.939 113.556 418.191 113.53 418.42 113.434C418.649 113.338 418.844 113.177 418.981 112.97C419.118 112.763 419.19 112.52 419.189 112.272C419.192 112.106 419.161 111.941 419.099 111.787C419.037 111.633 418.945 111.493 418.829 111.375C418.712 111.257 418.573 111.163 418.419 111.1C418.266 111.036 418.102 111.004 417.936 111.005V111.025Z" fill="#68A4FF"/>
<path d="M426.548 234.05H425.881V180.19L411.621 154.963V127.93H412.288V154.79L426.548 180.016V234.05Z" fill="#68A4FF"/>
<path d="M411.595 127.863C411.214 127.865 410.842 127.753 410.525 127.543C410.209 127.332 409.962 127.032 409.815 126.681C409.669 126.33 409.631 125.944 409.705 125.57C409.778 125.197 409.961 124.855 410.23 124.586C410.499 124.317 410.842 124.134 411.215 124.06C411.588 123.986 411.975 124.025 412.326 124.171C412.677 124.317 412.977 124.564 413.187 124.881C413.398 125.198 413.509 125.57 413.508 125.95C413.506 126.457 413.304 126.943 412.946 127.301C412.587 127.66 412.102 127.862 411.595 127.863ZM411.595 124.697C411.346 124.695 411.103 124.768 410.897 124.905C410.69 125.042 410.528 125.237 410.432 125.466C410.336 125.695 410.31 125.947 410.358 126.19C410.405 126.434 410.524 126.658 410.699 126.834C410.874 127.01 411.098 127.13 411.341 127.179C411.584 127.228 411.837 127.203 412.066 127.109C412.295 127.014 412.492 126.853 412.63 126.647C412.768 126.441 412.841 126.198 412.841 125.95C412.845 125.784 412.815 125.619 412.754 125.464C412.693 125.309 412.602 125.168 412.486 125.049C412.37 124.93 412.231 124.835 412.078 124.77C411.925 124.705 411.761 124.671 411.595 124.67V124.697Z" fill="#68A4FF"/>
<path d="M64.3851 233.302H63.7184V189.635L45.8984 165.315V139.648H46.5651V165.095L64.3851 189.415V233.302Z" fill="#68A4FF"/>
<path d="M46.3603 140.559C45.9802 140.56 45.6084 140.449 45.2918 140.238C44.9751 140.028 44.728 139.729 44.5817 139.378C44.4353 139.027 44.3963 138.641 44.4697 138.268C44.543 137.895 44.7253 137.553 44.9936 137.283C45.2618 137.014 45.6039 136.831 45.9766 136.756C46.3492 136.682 46.7356 136.719 47.0868 136.864C47.438 137.009 47.7383 137.255 47.9495 137.571C48.1608 137.887 48.2736 138.259 48.2736 138.639C48.2736 139.147 48.0722 139.634 47.7136 139.994C47.355 140.354 46.8683 140.557 46.3603 140.559ZM46.3603 137.392C46.1118 137.391 45.8686 137.463 45.6615 137.601C45.4543 137.738 45.2926 137.933 45.197 138.163C45.1013 138.392 45.0759 138.645 45.124 138.888C45.1722 139.132 45.2917 139.356 45.4674 139.532C45.6431 139.707 45.867 139.827 46.1107 139.875C46.3545 139.923 46.607 139.898 46.8363 139.802C47.0656 139.706 47.2613 139.545 47.3985 139.338C47.5357 139.13 47.6082 138.887 47.6069 138.639C47.5966 138.314 47.4609 138.007 47.2284 137.781C46.9959 137.554 46.6847 137.427 46.3603 137.425V137.392Z" fill="#68A4FF"/>
<path d="M59.9906 233.243H59.3239V192.517L41.5039 168.19V156.25H42.1706V167.977L59.9906 192.297V233.243Z" fill="#68A4FF"/>
<path d="M41.4708 157.16C41.091 157.16 40.7198 157.048 40.4041 156.837C40.0883 156.626 39.8423 156.326 39.6969 155.975C39.5516 155.624 39.5136 155.238 39.5877 154.866C39.6618 154.493 39.8446 154.151 40.1131 153.883C40.3817 153.614 40.7238 153.431 41.0962 153.357C41.4687 153.283 41.8547 153.321 42.2055 153.466C42.5564 153.612 42.8562 153.858 43.0672 154.174C43.2782 154.489 43.3908 154.861 43.3908 155.24C43.3908 155.75 43.1885 156.238 42.8284 156.598C42.4684 156.958 41.98 157.16 41.4708 157.16ZM41.4708 153.987C41.2229 153.987 40.9806 154.06 40.7745 154.198C40.5684 154.336 40.4077 154.532 40.3129 154.761C40.218 154.99 40.1932 155.242 40.2415 155.485C40.2899 155.728 40.4093 155.951 40.5845 156.127C40.7598 156.302 40.9831 156.421 41.2263 156.47C41.4694 156.518 41.7214 156.493 41.9504 156.398C42.1794 156.303 42.3752 156.143 42.5129 155.937C42.6506 155.731 42.7241 155.488 42.7241 155.24C42.7241 154.908 42.5921 154.589 42.357 154.354C42.122 154.119 41.8032 153.987 41.4708 153.987Z" fill="#68A4FF"/>
<path d="M68.5378 163.086H67.8711V234.026H68.5378V163.086Z" fill="#68A4FF"/>
<path d="M68.3263 163.02C67.9465 163.02 67.5753 162.907 67.2596 162.696C66.9438 162.485 66.6977 162.185 66.5524 161.834C66.4071 161.484 66.3691 161.098 66.4431 160.725C66.5172 160.353 66.7001 160.011 66.9686 159.742C67.2371 159.474 67.5792 159.291 67.9517 159.217C68.3241 159.142 68.7102 159.181 69.061 159.326C69.4118 159.471 69.7117 159.717 69.9227 160.033C70.1336 160.349 70.2462 160.72 70.2462 161.1C70.2462 161.609 70.044 162.097 69.6839 162.457C69.3238 162.817 68.8355 163.02 68.3263 163.02ZM68.3263 159.853C68.0781 159.853 67.8355 159.927 67.6292 160.065C67.423 160.203 67.2624 160.399 67.1677 160.628C67.073 160.858 67.0486 161.11 67.0975 161.353C67.1464 161.597 67.2664 161.82 67.4424 161.995C67.6183 162.17 67.8423 162.289 68.0858 162.336C68.3294 162.384 68.5816 162.358 68.8105 162.262C69.0394 162.166 69.2347 162.005 69.3716 161.798C69.5085 161.591 69.5809 161.348 69.5796 161.1C69.5761 160.77 69.4423 160.456 69.2074 160.224C68.9725 159.993 68.6557 159.865 68.3263 159.866V159.853Z" fill="#68A4FF"/>
<path d="M72.9323 233.902H72.2656V197.436L72.299 197.362L84.359 174.616V133.789H85.0256V174.782L84.9923 174.856L72.9323 197.602V233.902Z" fill="#68A4FF"/>
<path d="M84.9278 133.723C84.5481 133.723 84.1769 133.61 83.8611 133.399C83.5454 133.188 83.2993 132.888 83.154 132.538C83.0086 132.187 82.9706 131.801 83.0447 131.428C83.1188 131.056 83.3017 130.714 83.5702 130.445C83.8387 130.177 84.1808 129.994 84.5532 129.92C84.9257 129.846 85.3117 129.884 85.6626 130.029C86.0134 130.174 86.3133 130.42 86.5242 130.736C86.7352 131.052 86.8478 131.423 86.8478 131.803C86.8478 132.312 86.6455 132.8 86.2855 133.16C85.9254 133.521 85.437 133.723 84.9278 133.723ZM84.9278 130.556C84.6796 130.556 84.4371 130.63 84.2308 130.768C84.0246 130.906 83.8639 131.102 83.7693 131.331C83.6746 131.561 83.6502 131.813 83.6991 132.056C83.748 132.3 83.868 132.523 84.044 132.698C84.2199 132.873 84.4439 132.992 84.6874 133.04C84.931 133.087 85.1832 133.061 85.4121 132.965C85.641 132.87 85.8363 132.708 85.9732 132.501C86.1101 132.294 86.1825 132.051 86.1811 131.803C86.1838 131.637 86.1533 131.472 86.0914 131.318C86.0296 131.164 85.9376 131.024 85.8208 130.906C85.7041 130.788 85.565 130.694 85.4116 130.631C85.2583 130.567 85.0938 130.535 84.9278 130.536V130.556Z" fill="#68A4FF"/>
<path d="M77.3268 233.581H76.6602V199.548L76.7002 199.468L90.9202 174.321V147.461H91.5868V174.494L91.5402 174.568L77.3268 199.721V233.581Z" fill="#68A4FF"/>
<path d="M91.2821 148.371C90.9018 148.373 90.5297 148.261 90.2129 148.05C89.8962 147.84 89.649 147.54 89.5029 147.189C89.3568 146.838 89.3182 146.451 89.392 146.078C89.4659 145.705 89.6489 145.363 89.9178 145.094C90.1867 144.825 90.5295 144.642 90.9025 144.568C91.2756 144.494 91.6622 144.533 92.0133 144.679C92.3644 144.825 92.6642 145.072 92.8747 145.389C93.0851 145.705 93.1968 146.078 93.1955 146.458C93.1937 146.965 92.9916 147.45 92.6331 147.809C92.2747 148.167 91.789 148.369 91.2821 148.371ZM91.2821 145.205C91.034 145.203 90.791 145.276 90.584 145.413C90.377 145.549 90.2153 145.745 90.1195 145.974C90.0236 146.203 89.9978 146.455 90.0454 146.698C90.093 146.942 90.2118 147.166 90.3869 147.342C90.5619 147.518 90.7852 147.638 91.0285 147.687C91.2718 147.736 91.5241 147.711 91.7535 147.616C91.9829 147.522 92.1791 147.361 92.3171 147.155C92.4551 146.949 92.5288 146.706 92.5288 146.458C92.5323 146.292 92.5028 146.126 92.4418 145.972C92.3808 145.817 92.2896 145.676 92.1736 145.557C92.0576 145.438 91.919 145.343 91.7659 145.278C91.6129 145.213 91.4484 145.179 91.2821 145.178V145.205Z" fill="#68A4FF"/>
<path d="M457.859 85.1972L462.526 77.6972L460.232 76.2772C459.898 76.0695 459.629 75.7716 459.457 75.4177C459.285 75.0638 459.216 74.6684 459.259 74.2772C459.295 73.8327 459.308 73.3883 459.299 72.9439C459.287 72.5569 459.383 72.1743 459.576 71.8387C459.769 71.5032 460.052 71.228 460.392 71.0439L462.772 69.7639L458.526 62.0305L456.146 63.3105C455.802 63.4911 455.415 63.573 455.028 63.5471C454.641 63.5212 454.269 63.3886 453.952 63.1639C453.592 62.9172 453.219 62.6839 452.832 62.4972C452.489 62.3149 452.204 62.0405 452.008 61.7048C451.813 61.3691 451.715 60.9855 451.726 60.5972L451.812 57.8905L442.992 57.6172L442.906 60.3305C442.891 60.7188 442.768 61.0954 442.552 61.418C442.335 61.7406 442.033 61.9966 441.679 62.1572C441.479 62.2505 441.286 62.3439 441.099 62.4505C440.912 62.5572 440.719 62.6572 440.532 62.7705C440.203 62.9734 439.823 63.0808 439.436 63.0808C439.048 63.0808 438.669 62.9734 438.339 62.7705L436.026 61.3372L431.359 68.8372L433.659 70.2705C433.994 70.4776 434.263 70.7754 434.435 71.1295C434.608 71.4835 434.676 71.8792 434.632 72.2705C434.595 72.7139 434.582 73.159 434.592 73.6039C434.603 73.9922 434.505 74.3758 434.311 74.7123C434.117 75.0488 433.834 75.325 433.492 75.5105L431.152 76.6972L435.326 84.4772L437.706 83.2039C438.049 83.0223 438.435 82.9393 438.822 82.964C439.209 82.9887 439.582 83.1202 439.899 83.3439C440.26 83.5861 440.634 83.8087 441.019 84.0105C441.362 84.1928 441.647 84.4673 441.843 84.8029C442.038 85.1386 442.136 85.5222 442.126 85.9105L442.046 88.6172L450.866 88.8905L450.952 86.1838C450.967 85.7963 451.089 85.4205 451.306 85.0989C451.523 84.7773 451.825 84.5227 452.179 84.3639L452.759 84.0705L453.326 83.7439C453.657 83.5411 454.037 83.4339 454.426 83.4339C454.814 83.4339 455.195 83.5411 455.526 83.7439L457.859 85.1972ZM450.392 79.6305C449.131 80.306 447.698 80.5923 446.275 80.4534C444.851 80.3145 443.5 79.7565 442.394 78.85C441.287 77.9435 440.474 76.7293 440.057 75.3607C439.641 73.9922 439.639 72.5309 440.053 71.1615C440.467 69.7922 441.278 68.5763 442.382 67.6676C443.487 66.7589 444.837 66.1983 446.26 66.0565C447.684 65.9148 449.117 66.1983 450.38 66.8712C451.642 67.5442 452.677 68.5763 453.352 69.8372C453.8 70.6765 454.077 71.5959 454.169 72.5427C454.261 73.4895 454.165 74.4451 453.887 75.3547C453.609 76.2644 453.154 77.1103 452.549 77.844C451.943 78.5777 451.199 79.1848 450.359 79.6305H450.392Z" fill="#68A4FF"/>
<path d="M51.7393 151.843L57.0726 148.749L56.1259 147.109C55.9903 146.873 55.9235 146.604 55.9329 146.332C55.9423 146.06 56.0277 145.796 56.1793 145.569C56.3482 145.312 56.5015 145.045 56.6393 144.769C56.763 144.523 56.9535 144.315 57.1893 144.172C57.425 144.028 57.6965 143.953 57.9726 143.956H59.8659V137.769H57.9726C57.6965 137.772 57.425 137.698 57.1893 137.554C56.9535 137.41 56.763 137.203 56.6393 136.956C56.5015 136.681 56.3482 136.414 56.1793 136.156C56.0277 135.93 55.9423 135.666 55.9329 135.394C55.9235 135.122 55.9903 134.852 56.1259 134.616L57.0726 132.976L51.7393 129.883L50.7926 131.529C50.6587 131.761 50.4631 131.951 50.2277 132.078C49.9924 132.205 49.7264 132.264 49.4593 132.249H48.5193C48.2531 132.264 47.9881 132.205 47.7531 132.079C47.518 131.953 47.3219 131.765 47.1859 131.536L46.2326 129.883L40.8993 132.976L41.8459 134.623C41.9815 134.859 42.0484 135.128 42.039 135.4C42.0296 135.673 41.9442 135.937 41.7926 136.163C41.6251 136.419 41.4715 136.684 41.3326 136.956C41.2089 137.203 41.0183 137.41 40.7826 137.554C40.5468 137.698 40.2754 137.772 39.9993 137.769H38.0859V143.956H39.9793C40.2554 143.953 40.5268 144.028 40.7626 144.172C40.9983 144.315 41.1889 144.523 41.3126 144.769C41.4515 145.042 41.6051 145.307 41.7726 145.563C41.9241 145.79 42.0093 146.055 42.0187 146.329C42.0281 146.602 41.9614 146.872 41.8259 147.109L40.8793 148.749L46.2126 151.843L47.1659 150.196C47.3016 149.966 47.4974 149.778 47.7324 149.651C47.9674 149.524 48.2325 149.463 48.4993 149.476C48.6459 149.476 48.7993 149.476 48.9526 149.476C49.1059 149.476 49.2593 149.476 49.4126 149.476C49.6792 149.464 49.9441 149.525 50.1789 149.652C50.4138 149.778 50.6097 149.967 50.7459 150.196L51.7393 151.843ZM48.9526 145.929C47.9508 145.928 46.9719 145.63 46.1395 145.072C45.3072 144.515 44.6588 143.723 44.2764 142.797C43.8939 141.871 43.7945 140.853 43.9908 139.87C44.187 138.888 44.6701 137.986 45.379 137.278C46.0878 136.57 46.9906 136.088 47.9733 135.893C48.9559 135.698 49.9743 135.799 50.8997 136.182C51.8252 136.566 52.6161 137.216 53.1725 138.049C53.7289 138.882 54.0259 139.861 54.0259 140.863C54.0268 141.529 53.8961 142.189 53.6414 142.804C53.3867 143.42 53.0129 143.979 52.5415 144.45C52.0702 144.921 51.5105 145.294 50.8946 145.548C50.2787 145.801 49.6188 145.931 48.9526 145.929Z" fill="#68A4FF"/>
<path d="M430.143 90.1779L427.056 84.8446L425.423 85.7712C425.186 85.9067 424.915 85.9734 424.642 85.964C424.369 85.9546 424.104 85.8694 423.876 85.7179C423.619 85.5489 423.352 85.3953 423.076 85.2579C422.83 85.1342 422.622 84.9436 422.479 84.7079C422.335 84.4721 422.26 84.2007 422.263 83.9246V82.0312H416.09V83.9246C416.093 84.2007 416.018 84.4721 415.874 84.7079C415.731 84.9436 415.523 85.1342 415.276 85.2579C415 85.3967 414.73 85.5503 414.47 85.7179C414.244 85.8695 413.98 85.9549 413.707 85.9643C413.435 85.9737 413.166 85.9069 412.93 85.7712L411.29 84.8246L408.203 90.1579L409.85 91.1046C410.084 91.2446 410.274 91.446 410.401 91.6871C410.528 91.9281 410.587 92.1993 410.57 92.4713C410.57 92.6246 410.57 92.7779 410.57 92.9246C410.57 93.0712 410.57 93.2312 410.57 93.3846C410.583 93.6514 410.523 93.9169 410.396 94.152C410.269 94.3871 410.08 94.5828 409.85 94.7179L408.203 95.6713L411.29 101.005L412.936 100.058C413.173 99.9223 413.442 99.8554 413.714 99.8649C413.986 99.8743 414.25 99.9596 414.476 100.111C414.739 100.28 415.005 100.433 415.276 100.571C415.523 100.695 415.731 100.886 415.874 101.121C416.018 101.357 416.093 101.628 416.09 101.905V103.798H422.27V101.905C422.267 101.628 422.341 101.357 422.485 101.121C422.629 100.886 422.836 100.695 423.083 100.571C423.359 100.429 423.625 100.276 423.883 100.111C424.109 99.9596 424.373 99.8743 424.646 99.8649C424.918 99.8554 425.187 99.9223 425.423 100.058L427.07 101.005L430.156 95.6713L428.51 94.7246C428.281 94.5881 428.094 94.3918 427.968 94.1569C427.842 93.922 427.783 93.6573 427.796 93.3913C427.796 93.2379 427.796 93.0846 427.796 92.9313C427.796 92.7779 427.796 92.6312 427.796 92.4779C427.779 92.2059 427.837 91.9343 427.964 91.6932C428.091 91.452 428.282 91.2507 428.516 91.1112L430.143 90.1779ZM424.23 92.9179C424.23 93.9203 423.932 94.9001 423.375 95.7335C422.818 96.5669 422.027 97.2162 421.101 97.5995C420.174 97.9828 419.155 98.0828 418.172 97.8867C417.189 97.6907 416.286 97.2075 415.578 96.4982C414.87 95.789 414.388 94.8856 414.193 93.9023C413.998 92.919 414.1 91.9001 414.484 90.9744C414.869 90.0487 415.519 89.2578 416.353 88.7019C417.187 88.146 418.167 87.8499 419.17 87.8512C419.835 87.8512 420.493 87.9824 421.108 88.2371C421.722 88.4918 422.28 88.8651 422.75 89.3356C423.22 89.8062 423.593 90.3648 423.847 90.9795C424.1 91.5942 424.231 92.2529 424.23 92.9179Z" fill="#68A4FF"/>
<path d="M448.651 211.895L439.904 212.082L435.464 212.155C433.977 212.188 432.484 212.155 430.997 212.195H430.704V211.895L430.664 204.435V204.102H430.997L439.824 204.148C442.771 204.148 445.711 204.222 448.651 204.255H448.837V204.435C448.837 205.702 448.784 206.962 448.751 208.208L448.651 211.895ZM448.651 211.895L448.557 208.128C448.524 206.888 448.484 205.655 448.471 204.435L448.651 204.615C445.711 204.655 442.771 204.722 439.824 204.728L430.997 204.768L431.331 204.435V211.895L431.031 211.602C432.484 211.602 433.937 211.602 435.397 211.635L439.784 211.708L448.651 211.895Z" fill="#68A4FF"/>
<path d="M438.845 220.684L430.098 220.871L425.652 220.944C424.172 220.977 422.678 220.944 421.192 220.984H420.898V220.684V213.224V212.891H421.232L430.058 212.937C432.998 212.937 435.945 213.011 438.885 213.044H439.072V213.224C439.072 214.491 439.018 215.751 438.985 216.997L438.845 220.684ZM438.845 220.684L438.752 216.917C438.718 215.671 438.678 214.444 438.665 213.224L438.845 213.404C435.905 213.444 432.958 213.511 430.018 213.517L421.192 213.557L421.525 213.224V220.684L421.225 220.391C422.678 220.391 424.132 220.391 425.592 220.424L429.972 220.497L438.845 220.684Z" fill="#68A4FF"/>
<path d="M458.416 220.684L449.67 220.871L445.23 220.944C443.743 220.977 442.25 220.944 440.763 220.984H440.47V220.684L440.43 213.224V212.891H440.763L449.59 212.937C452.536 212.937 455.476 213.011 458.416 213.044H458.603V213.224C458.603 214.491 458.543 215.751 458.516 216.997L458.416 220.684ZM458.416 220.684L458.323 216.917C458.323 215.671 458.25 214.444 458.236 213.224L458.416 213.404C455.476 213.444 452.536 213.511 449.59 213.517L440.763 213.557L441.096 213.224V220.684L440.796 220.391C442.25 220.391 443.703 220.391 445.163 220.424L449.55 220.497L458.416 220.684Z" fill="#68A4FF"/>
<path d="M196.698 128.907L187.951 129.094L183.511 129.174C182.024 129.174 180.531 129.174 179.044 129.174H178.751V128.874L178.711 121.427V121.094H179.044L187.871 121.134C190.818 121.134 193.758 121.207 196.698 121.24H196.884V121.427C196.884 122.694 196.824 123.954 196.791 125.2L196.698 128.907ZM196.698 128.907L196.604 125.14C196.604 123.9 196.531 122.674 196.518 121.447L196.698 121.634C193.758 121.667 190.818 121.74 187.871 121.74L179.044 121.78L179.378 121.447L179.344 128.907L179.044 128.614C180.498 128.614 181.951 128.614 183.411 128.647L187.798 128.727L196.698 128.907Z" fill="#68A4FF"/>
<path d="M186.945 138.653L178.199 138.839L173.752 138.913C172.272 138.946 170.779 138.913 169.292 138.953H168.999V138.653L168.945 131.193V130.859H169.279L178.105 130.906C181.045 130.906 183.992 130.979 186.932 131.013H187.119V131.193C187.119 132.459 187.065 133.719 187.032 134.966L186.945 138.653ZM186.945 138.653L186.852 134.886C186.819 133.646 186.779 132.419 186.765 131.193L186.945 131.379C184.005 131.413 181.059 131.486 178.119 131.486L169.292 131.526L169.625 131.193V138.653L169.325 138.359C170.779 138.359 172.232 138.359 173.692 138.393L178.079 138.473L186.945 138.653Z" fill="#68A4FF"/>
<path d="M69.7311 210.918L60.9911 211.105L56.5511 211.185C55.0711 211.185 53.5778 211.185 52.0911 211.218H51.7911V210.918L51.7578 203.458V203.125H52.0911L60.9178 203.165C63.8578 203.165 66.8045 203.238 69.7445 203.272H69.9245V203.452C69.9245 204.718 69.8711 205.978 69.8378 207.225L69.7311 210.918ZM69.7311 210.918L69.6378 207.152C69.6378 205.912 69.5578 204.685 69.5511 203.458L69.7311 203.645C66.7911 203.678 63.8445 203.752 60.9045 203.752L52.0778 203.792L52.4111 203.458L52.3711 210.918L52.0778 210.625C53.5311 210.625 54.9845 210.625 56.4378 210.625L60.8245 210.705L69.7311 210.918Z" fill="#68A4FF"/>
<path d="M59.9455 220.684L51.1922 220.871L46.7522 220.944C45.2722 220.944 43.7789 220.944 42.2922 220.984H41.9922V220.684V213.224V212.891H42.3322L51.1589 212.931C54.0989 212.931 57.0389 213.004 59.9855 213.037H60.1655V213.217C60.1655 214.484 60.1055 215.744 60.0789 216.991L59.9455 220.684ZM59.9455 220.684L59.8522 216.917C59.8522 215.677 59.7722 214.451 59.7589 213.224L59.9455 213.411C56.9989 213.444 54.0589 213.517 51.1189 213.517L42.2922 213.557L42.6255 213.224L42.5855 220.684L42.2922 220.391C43.7455 220.391 45.1922 220.391 46.6522 220.424L51.0389 220.504L59.9455 220.684Z" fill="#68A4FF"/>
<path d="M206.463 138.653L197.717 138.839L193.277 138.913C191.79 138.946 190.303 138.913 188.81 138.953H188.517V138.653L188.477 131.193V130.859H188.81L197.637 130.906C200.583 130.906 203.523 130.979 206.463 131.013H206.65V131.193C206.65 132.459 206.59 133.719 206.563 134.966L206.463 138.653ZM206.463 138.653L206.37 134.886C206.37 133.646 206.297 132.419 206.283 131.193L206.463 131.379C203.523 131.413 200.583 131.486 197.637 131.486L188.81 131.526L189.143 131.193L189.11 138.653L188.81 138.359C190.27 138.359 191.717 138.359 193.177 138.393L197.563 138.473L206.463 138.653Z" fill="#68A4FF"/>
<path d="M409.1 117.168L400.353 117.355L395.913 117.428C394.427 117.428 392.933 117.428 391.447 117.468H391.153V117.168L391.113 109.708V109.375H391.447L400.273 109.422C403.213 109.422 406.16 109.495 409.1 109.528H409.287V109.708C409.287 110.975 409.233 112.235 409.2 113.482L409.1 117.168ZM409.1 117.168L409.007 113.402C409.007 112.162 408.933 110.928 408.92 109.708L409.1 109.888C406.16 109.928 403.213 109.995 400.273 110.002L391.447 110.042L391.78 109.708L391.747 117.168L391.447 116.875C392.9 116.875 394.353 116.875 395.813 116.908L400.2 116.982L409.1 117.168Z" fill="#68A4FF"/>
<path d="M447.634 49.8255L438.887 50.0122L434.441 50.0855C432.961 50.0855 431.468 50.0855 429.981 50.0855H429.688V49.7855V42.3255V41.9922H430.021L438.847 42.0322C441.787 42.0322 444.734 42.1055 447.674 42.1389H447.861V42.3189C447.861 43.5855 447.808 44.8389 447.774 46.0855L447.634 49.8255ZM447.634 49.8255L447.541 46.0522C447.508 44.8122 447.468 43.5855 447.454 42.3655L447.634 42.5455C444.694 42.5455 441.747 42.6522 438.807 42.6522L429.981 42.6989L430.314 42.3655L430.281 49.8255L429.981 49.5255C431.434 49.5255 432.887 49.5255 434.347 49.5655L438.727 49.6389L447.634 49.8255Z" fill="#68A4FF"/>
<path d="M457.44 59.5245L448.693 59.7111L444.253 59.7845C442.766 59.7845 441.273 59.7845 439.786 59.7845H439.493V59.4845L439.453 52.0245V51.7578H439.786L448.613 51.7978C451.56 51.7978 454.5 51.8711 457.44 51.9045H457.626V52.0845C457.626 53.3511 457.566 54.6045 457.533 55.8511L457.44 59.5245ZM457.44 59.5245L457.346 55.7578C457.346 54.5178 457.273 53.2911 457.26 52.0711L457.44 52.2511C454.5 52.2511 451.56 52.3578 448.613 52.3578L439.786 52.4245L440.12 52.0911V59.5511L439.82 59.2511C441.273 59.2511 442.726 59.2511 444.186 59.2911L448.573 59.3645L457.44 59.5245Z" fill="#68A4FF"/>
<path d="M59.9455 49.8255L51.1922 50.0122L46.7522 50.0855C45.2722 50.0855 43.7789 50.0855 42.2922 50.0855H41.9922V49.7855V42.3255V41.9922H42.3322L51.1589 42.0322C54.0989 42.0322 57.0389 42.1055 59.9855 42.1455H60.1655V42.3255C60.1655 43.5922 60.1055 44.8522 60.0789 46.0922L59.9455 49.8255ZM59.9455 49.8255L59.8522 46.0589C59.8522 44.8122 59.7722 43.5855 59.7589 42.3655L59.9455 42.5455C56.9989 42.5789 54.0589 42.6522 51.1189 42.6589L42.2922 42.6989L42.6255 42.3655L42.5855 49.8255L42.2922 49.5255C43.7455 49.5255 45.1922 49.5255 46.6522 49.5655L51.0389 49.6389L59.9455 49.8255Z" fill="#68A4FF"/>
<path d="M454.578 166.183C445.444 178.556 435.911 192.91 433.598 208.423C433.587 208.477 433.598 208.533 433.629 208.579C433.66 208.624 433.707 208.656 433.761 208.666C433.815 208.677 433.871 208.666 433.916 208.635C433.962 208.604 433.994 208.557 434.004 208.503C435.055 204.273 436.403 200.123 438.038 196.083C444.038 194.43 449.938 193.07 453.091 187.11C456.311 180.983 455.904 172.996 455.291 166.323C455.244 165.963 454.764 165.923 454.578 166.183Z" fill="#578FFC"/>
<path d="M438.006 195.941C442.113 186.734 447.379 177.487 454.073 169.941C454.119 169.894 454.186 169.941 454.146 170.014C449.766 175.407 446.433 181.281 443.179 187.261C446.206 184.187 449.519 181.441 452.379 178.181C452.439 178.121 452.526 178.181 452.473 178.274C449.633 181.687 446.519 185.394 442.819 187.921C441.819 189.756 440.815 191.594 439.806 193.434C440.053 193.294 440.313 193.174 440.566 193.047C440.57 193.043 440.576 193.04 440.581 193.038C440.587 193.036 440.593 193.035 440.599 193.036C440.605 193.037 440.611 193.039 440.616 193.042C440.621 193.046 440.625 193.05 440.628 193.055C440.631 193.06 440.633 193.066 440.634 193.072C440.634 193.078 440.634 193.084 440.631 193.09C440.629 193.096 440.626 193.101 440.621 193.105C440.617 193.109 440.612 193.112 440.606 193.114C440.319 193.254 440.046 193.407 439.753 193.527C439.273 194.401 438.793 195.274 438.299 196.141C438.173 196.307 437.919 196.134 438.006 195.941Z" fill="#263238"/>
<path d="M440.974 193.162C443.431 191.793 445.776 190.233 447.987 188.495C448.047 188.448 448.134 188.495 448.074 188.582C445.931 190.434 443.582 192.033 441.074 193.348C441.049 193.362 441.02 193.364 440.993 193.356C440.966 193.348 440.944 193.33 440.931 193.305C440.917 193.28 440.914 193.251 440.923 193.224C440.931 193.197 440.949 193.175 440.974 193.162Z" fill="#263238"/>
<path d="M432.789 206.227C432.789 206.414 433.122 206.414 433.122 206.227C433.169 201.121 433.122 195.987 433.202 190.854C434.535 188.187 437.322 186.747 439.275 184.634C440.679 183.088 441.901 181.386 442.915 179.561C445.272 175.201 446.71 170.405 447.142 165.467C447.682 160.001 445.609 141.967 443.309 142.594C442.109 142.921 438.242 151.854 437.222 154.807C435.56 159.676 434.342 164.686 433.582 169.774C431.715 181.787 431.875 194.127 432.789 206.227Z" fill="#578FFC"/>
<path d="M432.651 183.952C432.931 177.492 434.384 170.965 435.751 164.692C437.217 157.939 438.931 151.579 442.417 145.552C442.477 145.445 442.644 145.552 442.591 145.652C440.28 150.331 438.492 155.249 437.257 160.319C437.491 159.952 437.771 159.612 438.017 159.265C438.111 159.132 438.331 159.265 438.237 159.399C437.927 159.945 437.563 160.458 437.151 160.932H437.111C435.911 165.759 435.051 170.699 434.317 175.599C434.369 175.531 434.425 175.467 434.484 175.405C434.517 175.365 434.584 175.405 434.557 175.465L434.264 175.952C433.891 178.452 433.551 180.945 433.204 183.419C437.657 179.619 441.457 175.132 443.604 169.605C443.604 169.605 443.657 169.605 443.644 169.605C441.544 175.332 438.231 180.432 433.131 183.905C433.046 184.572 432.953 185.239 432.851 185.905C432.851 186.045 432.611 186.005 432.617 185.872C432.617 185.285 432.617 184.692 432.671 184.105C432.653 184.085 432.641 184.059 432.638 184.032C432.634 184.005 432.639 183.977 432.651 183.952Z" fill="#263238"/>
<path d="M434.589 174.825C437.989 169.752 441.169 164.825 443.656 159.205C443.656 159.145 443.789 159.205 443.769 159.252C441.669 164.832 438.729 170.478 434.756 174.958C434.676 175.052 434.516 174.932 434.589 174.825Z" fill="#263238"/>
<path d="M438.982 157.881C440.388 155.388 441.875 152.961 443.202 150.421C443.242 150.348 443.335 150.421 443.308 150.481C442.22 153.133 440.843 155.658 439.202 158.008C439.185 158.037 439.157 158.058 439.125 158.067C439.092 158.076 439.058 158.071 439.028 158.055C438.999 158.038 438.978 158.01 438.969 157.978C438.96 157.945 438.965 157.911 438.982 157.881Z" fill="#263238"/>
<path d="M438.477 159.18C438.51 159.18 438.51 159.22 438.477 159.22V159.18Z" fill="#263238"/>
<path d="M429.332 191.539C429.262 194.926 428.863 198.297 428.138 201.606C428.192 201.966 428.245 202.333 428.298 202.706C429.338 199.05 429.942 195.284 430.098 191.486C430.128 191.433 430.144 191.373 430.144 191.313C430.144 191.252 430.128 191.192 430.098 191.139C430.243 186.048 429.865 180.954 428.972 175.939C427.392 166.553 423.932 157.539 417.385 150.506C417.331 150.459 417.267 150.425 417.198 150.406C417.128 150.388 417.056 150.386 416.985 150.4C416.915 150.414 416.849 150.444 416.792 150.488C416.736 150.532 416.69 150.588 416.658 150.653C413.992 157.373 414.938 165.386 417.192 172.093C418.418 175.721 420.167 179.15 422.385 182.273C424.645 185.453 427.505 188.119 429.332 191.539Z" fill="#578FFC"/>
<path d="M417.697 153.343C423.904 163.416 428.224 175.343 428.75 187.256C428.75 187.463 428.404 187.523 428.37 187.31C428.224 186.236 428.064 185.176 427.89 184.123C425.317 181.67 422.684 179.07 420.844 175.996C420.84 175.984 420.839 175.971 420.843 175.959C420.847 175.947 420.855 175.936 420.866 175.929C420.876 175.921 420.889 175.917 420.901 175.917C420.914 175.918 420.927 175.922 420.937 175.93C423.17 178.483 425.25 181.096 427.777 183.376C427.33 180.743 426.804 178.156 426.177 175.603L425.69 175.03C425.584 174.903 425.764 174.716 425.87 174.843L426.024 175.01C425.149 171.514 424.065 168.075 422.777 164.71C421.197 162.823 419.444 161.196 418.284 158.923C418.284 158.87 418.33 158.83 418.364 158.876C419.29 160.176 420.184 161.483 421.23 162.683C421.65 163.163 422.11 163.616 422.564 164.083C421.134 160.431 419.436 156.89 417.484 153.49C417.478 153.463 417.48 153.434 417.49 153.409C417.501 153.383 417.518 153.361 417.541 153.345C417.564 153.329 417.591 153.321 417.619 153.32C417.646 153.32 417.674 153.328 417.697 153.343Z" fill="#263238"/>
<path d="M419.101 166.05C421.101 168.75 423.395 171.323 425.261 174.117C425.315 174.197 425.195 174.277 425.128 174.217C422.735 171.97 420.708 168.883 418.968 166.13C418.888 166.043 419.041 165.97 419.101 166.05Z" fill="#263238"/>
<path d="M425.413 174.844L425.5 174.924C425.553 174.984 425.466 175.077 425.406 175.017L425.32 174.93C425.246 174.844 425.34 174.75 425.413 174.844Z" fill="#263238"/>
<path d="M408.208 172.476C408.702 177.656 411.428 183.843 414.755 187.81C416.224 189.548 418.041 190.961 420.088 191.956C422.388 193.09 424.802 194.403 427.175 195.336C428.29 198.223 429.114 201.213 429.635 204.263L429.862 203.476C428.335 190.356 419.862 179.143 408.988 171.943C408.903 171.895 408.805 171.871 408.707 171.875C408.609 171.88 408.514 171.911 408.433 171.967C408.351 172.022 408.287 172.1 408.248 172.19C408.208 172.28 408.195 172.379 408.208 172.476Z" fill="#578FFC"/>
<path d="M412.139 176.915C412.065 176.849 412.139 176.709 412.252 176.775C418.219 181.209 422.975 187.071 426.086 193.822C426.166 194.002 425.919 194.162 425.819 193.982C425.312 193.093 424.797 192.231 424.272 191.395C421.799 190.929 419.445 189.182 417.605 187.529C417.552 187.482 417.605 187.409 417.679 187.455C418.626 188.319 419.678 189.058 420.812 189.655C421.839 190.124 422.89 190.54 423.959 190.902C423.046 189.449 422.086 188.049 421.086 186.689C418.409 185.671 415.899 184.26 413.639 182.502C413.565 182.455 413.639 182.335 413.706 182.382C415.946 183.739 418.258 184.974 420.632 186.082C419.117 184.09 417.485 182.189 415.746 180.389C414.899 179.942 414.045 179.495 413.232 179.015C413.215 179.008 413.202 178.995 413.195 178.978C413.188 178.961 413.188 178.942 413.195 178.925C413.203 178.909 413.216 178.895 413.233 178.888C413.25 178.882 413.269 178.882 413.286 178.889C413.963 179.129 414.61 179.449 415.212 179.842C414.232 178.829 413.219 177.869 412.139 176.915Z" fill="#263238"/>
<path d="M412.213 181.653C412.358 181.745 412.499 181.845 412.633 181.953C412.673 181.993 412.633 182.039 412.58 182.019C412.426 181.95 412.279 181.868 412.14 181.773C412.066 181.706 412.14 181.606 412.213 181.653Z" fill="#263238"/>
<path d="M446.746 233.269H416.992L419.392 206.169L419.919 200.195H443.819L444.346 206.169L446.746 233.269Z" fill="#7088AC"/>
<path d="M444.387 206.169H419.434L419.96 200.195H443.86L444.387 206.169Z" fill="#263238"/>
<path d="M445.204 196.289H418.457V202.202H445.204V196.289Z" fill="#7088AC"/>
<path d="M33.6914 233.732L87.7381 233.565L141.785 233.512L249.878 233.398L357.971 233.512L412.018 233.565L466.065 233.732L412.018 233.892L357.971 233.952L249.878 234.065L141.785 233.952L87.7381 233.892L33.6914 233.732Z" fill="#263238"/>
<path d="M250.336 305.165C368.098 305.165 463.563 295.877 463.563 284.419C463.563 272.96 368.098 263.672 250.336 263.672C132.574 263.672 37.1094 272.96 37.1094 284.419C37.1094 295.877 132.574 305.165 250.336 305.165Z" fill="#202436"/>
<path d="M399.699 44.9219H98.6328V246.315H399.699V44.9219Z" fill="#94B3E2"/>
<path d="M397.768 47.8516H101.074V244.332H397.768V47.8516Z" fill="#7088AC"/>
<path d="M439.064 261.719H59.5703V275.539H439.064V261.719Z" fill="#7088AC"/>
<path d="M59.5703 261.194L98.7836 246.094H399.85L439.064 261.194H59.5703Z" fill="#BAC9E0"/>
<path d="M102.051 255.84L127.357 246.094H370.811L396.117 255.84H102.051Z" fill="#7088AC"/>
<path d="M380.836 62.5H117.676V229.127H380.836V62.5Z" fill="#94B3E2"/>
<path d="M381.056 62.5H117.676V68.9133H381.056V62.5Z" fill="#455A64"/>
<path d="M122.816 65.0632C122.817 65.3789 122.724 65.6879 122.55 65.951C122.375 66.214 122.126 66.4192 121.835 66.5407C121.544 66.6621 121.223 66.6942 120.913 66.6329C120.603 66.5717 120.319 66.4198 120.096 66.1966C119.872 65.9733 119.72 65.6888 119.659 65.3791C119.598 65.0694 119.63 64.7485 119.751 64.4571C119.873 64.1657 120.078 63.9169 120.341 63.7423C120.604 63.5678 120.913 63.4753 121.229 63.4766C121.649 63.4783 122.052 63.6461 122.349 63.9432C122.646 64.2404 122.814 64.643 122.816 65.0632Z" fill="#C7C7C7"/>
<path d="M129.163 65.0632C129.165 65.3789 129.072 65.6879 128.897 65.951C128.723 66.214 128.474 66.4192 128.183 66.5407C127.891 66.6621 127.57 66.6942 127.261 66.6329C126.951 66.5717 126.666 66.4198 126.443 66.1966C126.22 65.9733 126.068 65.6888 126.007 65.3791C125.946 65.0694 125.978 64.7485 126.099 64.4571C126.221 64.1657 126.426 63.9169 126.689 63.7423C126.952 63.5678 127.261 63.4753 127.577 63.4766C127.997 63.4783 128.399 63.6461 128.697 63.9432C128.994 64.2404 129.161 64.643 129.163 65.0632Z" fill="#BAC9E0"/>
<path d="M135.511 65.0632C135.512 65.3786 135.42 65.6873 135.246 65.9502C135.071 66.2131 134.823 66.4184 134.532 66.54C134.241 66.6616 133.92 66.6941 133.611 66.6334C133.301 66.5727 133.017 66.4215 132.793 66.1989C132.57 65.9763 132.417 65.6925 132.355 65.3832C132.293 65.0739 132.324 64.7532 132.445 64.4617C132.565 64.1702 132.769 63.9209 133.032 63.7456C133.294 63.5702 133.602 63.4766 133.918 63.4766C134.339 63.4766 134.743 63.6435 135.042 63.9409C135.34 64.2382 135.509 64.6418 135.511 65.0632Z" fill="#0057FF"/>
<path d="M381.138 68.3594H376.465V228.573H381.138V68.3594Z" fill="#455A64"/>
<path d="M378.648 123.943C378.328 123.943 378.021 123.815 377.795 123.589C377.569 123.363 377.441 123.056 377.441 122.736V70.5426C377.441 70.2226 377.569 69.9157 377.795 69.6894C378.021 69.4631 378.328 69.3359 378.648 69.3359C378.968 69.3359 379.275 69.4631 379.501 69.6894C379.728 69.9157 379.855 70.2226 379.855 70.5426V122.736C379.855 123.056 379.728 123.363 379.501 123.589C379.275 123.815 378.968 123.943 378.648 123.943Z" fill="#BAC9E0"/>
<path d="M302.877 167.969H196.777V184.049H302.877V167.969Z" fill="#578FFC"/>
<path d="M303.237 184.409H196.777V167.969H303.237V184.409ZM197.137 184.075H302.877V168.329H197.137V184.075Z" fill="#7088AC"/>
<path d="M206.106 172.852C206.313 173.45 206.454 174.069 206.526 174.698C206.606 175.308 206.646 175.923 206.646 176.538C206.645 177.153 206.607 177.768 206.533 178.378C206.458 179.005 206.315 179.622 206.106 180.218C205.898 179.622 205.755 179.005 205.68 178.378C205.605 177.768 205.568 177.153 205.566 176.538C205.567 175.923 205.607 175.308 205.686 174.698C205.759 174.069 205.899 173.45 206.106 172.852Z" fill="#37474F"/>
<path d="M209.997 176.321C209.4 176.527 208.783 176.668 208.157 176.741C207.546 176.818 206.932 176.858 206.317 176.861C205.701 176.861 205.087 176.821 204.477 176.741C203.85 176.668 203.233 176.527 202.637 176.321C203.233 176.113 203.85 175.97 204.477 175.895C205.699 175.743 206.935 175.743 208.157 175.895C208.784 175.97 209.401 176.113 209.997 176.321Z" fill="#37474F"/>
<path d="M208.827 173.828C208.548 174.395 208.211 174.931 207.82 175.428C207.444 175.916 207.036 176.379 206.6 176.815C206.165 177.249 205.704 177.657 205.22 178.035C204.723 178.426 204.184 178.761 203.613 179.035C203.889 178.466 204.227 177.93 204.62 177.435C204.996 176.949 205.404 176.488 205.84 176.055C206.272 175.615 206.735 175.207 207.227 174.835C207.721 174.44 208.257 174.103 208.827 173.828Z" fill="#37474F"/>
<path d="M208.827 179.035C208.258 178.762 207.721 178.427 207.227 178.035C206.739 177.658 206.275 177.251 205.84 176.815C205.402 176.381 204.994 175.918 204.62 175.428C204.227 174.933 203.889 174.397 203.613 173.828C204.184 174.102 204.723 174.437 205.22 174.828C205.704 175.207 206.163 175.617 206.593 176.055C207.028 176.489 207.435 176.95 207.813 177.435C208.205 177.932 208.544 178.468 208.827 179.035Z" fill="#37474F"/>
<path d="M220.749 172.852C220.958 173.45 221.101 174.069 221.175 174.698C221.326 175.92 221.326 177.156 221.175 178.378C221.103 179.006 220.96 179.623 220.749 180.218C220.543 179.622 220.402 179.005 220.329 178.378C220.248 177.768 220.21 177.153 220.215 176.538C220.213 175.923 220.251 175.308 220.329 174.698C220.404 174.07 220.545 173.451 220.749 172.852Z" fill="#37474F"/>
<path d="M224.144 176.308C223.547 176.514 222.93 176.655 222.304 176.728C221.698 176.808 221.088 176.853 220.477 176.861C219.862 176.861 219.247 176.821 218.637 176.741C218.01 176.668 217.393 176.527 216.797 176.321C217.393 176.113 218.01 175.97 218.637 175.895C219.861 175.743 221.099 175.743 222.324 175.895C222.943 175.967 223.553 176.106 224.144 176.308Z" fill="#37474F"/>
<path d="M222.98 173.828C222.706 174.396 222.371 174.933 221.98 175.428C221.226 176.405 220.35 177.281 219.373 178.035C218.878 178.425 218.342 178.761 217.773 179.035C218.048 178.467 218.383 177.93 218.773 177.435C219.152 176.95 219.559 176.489 219.993 176.055C220.425 175.615 220.889 175.207 221.38 174.835C221.875 174.442 222.412 174.104 222.98 173.828Z" fill="#37474F"/>
<path d="M222.98 179.035C222.412 178.761 221.875 178.425 221.38 178.035C220.404 177.281 219.528 176.405 218.773 175.428C218.383 174.933 218.048 174.396 217.773 173.828C218.342 174.102 218.878 174.438 219.373 174.828C219.863 175.205 220.326 175.615 220.76 176.055C221.195 176.489 221.602 176.95 221.98 177.435C222.369 177.931 222.705 178.467 222.98 179.035Z" fill="#37474F"/>
<path d="M234.918 172.852C235.125 173.45 235.266 174.069 235.338 174.698C235.418 175.308 235.458 175.923 235.458 176.538C235.457 177.153 235.419 177.768 235.345 178.378C235.27 179.005 235.127 179.622 234.918 180.218C234.71 179.622 234.567 179.005 234.492 178.378C234.336 177.156 234.336 175.92 234.492 174.698C234.563 174.068 234.706 173.449 234.918 172.852Z" fill="#37474F"/>
<path d="M238.317 176.321C237.721 176.527 237.104 176.668 236.477 176.741C235.867 176.818 235.252 176.858 234.637 176.861C234.022 176.861 233.407 176.821 232.797 176.741C232.17 176.668 231.553 176.527 230.957 176.321C231.553 176.113 232.17 175.97 232.797 175.895C234.019 175.743 235.255 175.743 236.477 175.895C237.104 175.97 237.721 176.113 238.317 176.321Z" fill="#37474F"/>
<path d="M237.635 173.828C237.357 174.395 237.019 174.931 236.629 175.428C236.252 175.916 235.845 176.379 235.409 176.815C234.974 177.249 234.513 177.657 234.029 178.035C233.531 178.426 232.992 178.761 232.422 179.035C232.698 178.466 233.036 177.93 233.429 177.435C233.805 176.949 234.212 176.488 234.649 176.055C235.08 175.617 235.541 175.209 236.029 174.835C236.526 174.442 237.065 174.104 237.635 173.828Z" fill="#37474F"/>
<path d="M237.635 179.035C237.065 178.761 236.526 178.426 236.029 178.035C235.544 177.657 235.083 177.249 234.649 176.815C234.211 176.381 233.803 175.918 233.429 175.428C233.036 174.933 232.698 174.397 232.422 173.828C232.992 174.102 233.531 174.437 234.029 174.828C234.515 175.207 234.976 175.616 235.409 176.055C235.843 176.489 236.25 176.95 236.629 177.435C237.018 177.932 237.355 178.469 237.635 179.035Z" fill="#37474F"/>
<path d="M249.069 172.852C249.278 173.45 249.421 174.069 249.496 174.698C249.647 175.92 249.647 177.156 249.496 178.378C249.424 179.006 249.28 179.623 249.069 180.218C248.863 179.622 248.722 179.005 248.649 178.378C248.568 177.768 248.53 177.153 248.536 176.538C248.534 175.923 248.571 175.308 248.649 174.698C248.724 174.07 248.865 173.451 249.069 172.852Z" fill="#37474F"/>
<path d="M252.999 176.308C252.402 176.514 251.786 176.655 251.159 176.728C250.538 176.81 249.912 176.854 249.285 176.861C248.67 176.861 248.056 176.821 247.445 176.741C246.819 176.668 246.202 176.527 245.605 176.321C246.202 176.113 246.819 175.97 247.445 175.895C248.67 175.743 249.908 175.743 251.132 175.895C251.768 175.964 252.394 176.102 252.999 176.308Z" fill="#37474F"/>
<path d="M251.789 173.828C251.515 174.396 251.179 174.933 250.789 175.428C250.034 176.405 249.158 177.281 248.182 178.035C247.687 178.425 247.15 178.761 246.582 179.035C246.856 178.467 247.191 177.93 247.582 177.435C247.96 176.95 248.368 176.489 248.802 176.055C249.234 175.615 249.697 175.207 250.189 174.835C250.684 174.442 251.22 174.104 251.789 173.828Z" fill="#37474F"/>
<path d="M251.789 179.035C251.221 178.761 250.684 178.425 250.189 178.035C249.212 177.281 248.336 176.405 247.582 175.428C247.191 174.933 246.856 174.396 246.582 173.828C247.15 174.102 247.687 174.438 248.182 174.828C248.672 175.205 249.135 175.615 249.569 176.055C250.003 176.489 250.411 176.95 250.789 177.435C251.178 177.931 251.513 178.467 251.789 179.035Z" fill="#37474F"/>
<path d="M263.724 172.852C263.931 173.45 264.072 174.069 264.144 174.698C264.304 175.92 264.304 177.157 264.144 178.378C264.074 179.005 263.933 179.623 263.724 180.218C263.515 179.622 263.372 179.005 263.297 178.378C263.219 177.768 263.182 177.153 263.184 176.538C263.185 175.923 263.223 175.309 263.297 174.698C263.372 174.069 263.515 173.45 263.724 172.852Z" fill="#37474F"/>
<path d="M267.132 176.321C266.536 176.527 265.919 176.668 265.292 176.741C264.682 176.818 264.067 176.858 263.452 176.861C262.837 176.861 262.222 176.821 261.612 176.741C260.984 176.667 260.364 176.527 259.766 176.321C260.364 176.114 260.983 175.971 261.612 175.895C262.834 175.743 264.07 175.743 265.292 175.895C265.919 175.97 266.536 176.113 267.132 176.321Z" fill="#37474F"/>
<path d="M266.437 173.828C266.163 174.396 265.828 174.933 265.437 175.428C265.061 175.916 264.653 176.379 264.217 176.815C263.782 177.249 263.322 177.657 262.837 178.035C262.34 178.426 261.801 178.761 261.23 179.035C261.507 178.466 261.844 177.93 262.237 177.435C262.994 176.465 263.867 175.591 264.837 174.835C265.333 174.443 265.87 174.106 266.437 173.828Z" fill="#37474F"/>
<path d="M266.437 179.035C265.87 178.759 265.333 178.424 264.837 178.035C264.353 177.657 263.892 177.249 263.457 176.815C263.017 176.383 262.61 175.919 262.237 175.428C261.844 174.933 261.507 174.397 261.23 173.828C261.801 174.102 262.34 174.437 262.837 174.828C263.323 175.207 263.784 175.616 264.217 176.055C264.652 176.489 265.059 176.95 265.437 177.435C265.826 177.931 266.162 178.467 266.437 179.035Z" fill="#37474F"/>
<path d="M277.884 172.852C278.093 173.45 278.236 174.069 278.31 174.698C278.462 175.92 278.462 177.156 278.31 178.378C278.235 179.005 278.092 179.622 277.884 180.218C277.678 179.622 277.537 179.005 277.464 178.378C277.384 177.768 277.344 177.154 277.344 176.538C277.347 175.923 277.387 175.309 277.464 174.698C277.536 174.069 277.677 173.45 277.884 172.852Z" fill="#37474F"/>
<path d="M281.781 176.321C281.184 176.527 280.567 176.668 279.941 176.741C279.328 176.818 278.711 176.858 278.094 176.861C277.479 176.861 276.864 176.821 276.254 176.741C275.627 176.668 275.01 176.527 274.414 176.321C275.01 176.113 275.627 175.97 276.254 175.895C276.864 175.817 277.479 175.779 278.094 175.781C278.711 175.779 279.328 175.817 279.941 175.895C280.568 175.97 281.185 176.113 281.781 176.321Z" fill="#37474F"/>
<path d="M280.597 173.828C280.321 174.397 279.984 174.933 279.591 175.428C279.218 175.919 278.81 176.383 278.371 176.815C277.936 177.249 277.475 177.657 276.991 178.035C276.495 178.425 275.959 178.761 275.391 179.035C275.665 178.467 276 177.93 276.391 177.435C276.769 176.95 277.176 176.489 277.611 176.055C278.043 175.615 278.506 175.207 278.997 174.835C279.492 174.442 280.029 174.104 280.597 173.828Z" fill="#37474F"/>
<path d="M280.597 179.035C280.029 178.761 279.493 178.425 278.997 178.035C278.021 177.281 277.145 176.405 276.391 175.428C276 174.933 275.665 174.396 275.391 173.828C275.959 174.102 276.495 174.438 276.991 174.828C277.477 175.207 277.938 175.616 278.371 176.055C278.809 176.486 279.216 176.947 279.591 177.435C279.982 177.931 280.32 178.467 280.597 179.035Z" fill="#37474F"/>
<path d="M263.269 154.398C258.595 157.212 253.15 158.474 247.715 158.002C242.28 157.53 237.133 155.35 233.014 151.772C228.895 148.195 226.014 143.406 224.785 138.09C223.556 132.775 224.042 127.206 226.173 122.184C228.304 117.162 231.971 112.943 236.647 110.134C241.324 107.324 246.77 106.067 252.205 106.544C257.64 107.021 262.784 109.207 266.9 112.788C271.016 116.369 273.892 121.161 275.116 126.478C276.37 131.787 275.897 137.357 273.767 142.379C271.636 147.4 267.959 151.611 263.269 154.398Z" fill="#455A64"/>
<path d="M257.907 130.018C257.89 131.572 257.412 133.087 256.534 134.37C255.655 135.653 254.416 136.647 252.973 137.225C251.53 137.804 249.948 137.942 248.427 137.621C246.905 137.301 245.513 136.536 244.426 135.424C243.34 134.312 242.607 132.903 242.321 131.375C242.036 129.846 242.21 128.268 242.821 126.838C243.433 125.409 244.455 124.193 245.758 123.344C247.06 122.496 248.586 122.052 250.14 122.071C252.224 122.095 254.212 122.946 255.669 124.436C257.125 125.927 257.93 127.934 257.907 130.018Z" fill="#BAC9E0"/>
<path d="M263.04 151.436L263.007 154.683C258.893 157.154 254.174 158.431 249.376 158.372C244.578 158.314 239.891 156.921 235.84 154.35L235.88 151.116C235.922 147.515 237.394 144.077 239.97 141.561C242.547 139.044 246.018 137.654 249.62 137.696C253.221 137.739 256.659 139.21 259.175 141.787C261.692 144.364 263.082 147.835 263.04 151.436Z" fill="#BAC9E0"/>
<path d="M271.934 145.095C272.025 157.946 270.83 170.775 268.368 183.388C267.141 189.702 265.274 195.874 262.794 201.808C261.553 204.784 259.926 207.584 257.954 210.135C256.961 211.42 255.776 212.544 254.441 213.468C253.108 214.435 251.504 214.955 249.858 214.955C248.211 214.955 246.607 214.435 245.274 213.468C243.932 212.545 242.741 211.421 241.741 210.135C239.76 207.587 238.121 204.789 236.868 201.815C234.368 195.882 232.481 189.711 231.234 183.395C228.722 170.778 227.485 157.94 227.541 145.075C227.486 132.208 228.723 119.368 231.234 106.748C232.481 100.433 234.368 94.2608 236.868 88.3284C238.123 85.3569 239.761 82.5621 241.741 80.015C242.738 78.7295 243.928 77.6052 245.268 76.6817C246.602 75.7155 248.207 75.1953 249.854 75.1953C251.501 75.1953 253.107 75.7155 254.441 76.6817C255.776 77.6061 256.961 78.7303 257.954 80.015C259.927 82.5629 261.555 85.3605 262.794 88.335C265.274 94.2694 267.141 100.441 268.368 106.755C270.836 119.383 272.031 132.228 271.934 145.095ZM271.934 145.095C271.986 132.246 270.751 119.424 268.248 106.822C267.003 100.524 265.117 94.3695 262.621 88.455C261.378 85.5 259.753 82.7208 257.788 80.1883C256.803 78.9329 255.631 77.8357 254.314 76.935C253.021 75.9947 251.463 75.4881 249.864 75.4881C248.265 75.4881 246.707 75.9947 245.414 76.935C244.103 77.8386 242.938 78.9381 241.961 80.195C240.006 82.73 238.39 85.5089 237.154 88.4617C234.683 94.3814 232.822 100.538 231.601 106.835C229.138 119.433 227.943 132.246 228.034 145.082C227.943 157.918 229.138 170.731 231.601 183.328C232.822 189.624 234.682 195.778 237.154 201.695C238.387 204.649 240.003 207.429 241.961 209.962C242.94 211.219 244.104 212.32 245.414 213.228C246.707 214.169 248.265 214.675 249.864 214.675C251.463 214.675 253.021 214.169 254.314 213.228C255.632 212.325 256.803 211.226 257.788 209.968C259.756 207.44 261.381 204.663 262.621 201.708C265.116 195.794 267.002 189.639 268.248 183.342C270.749 170.748 271.984 157.935 271.934 145.095Z" fill="#0057FF"/>
<path d="M261.05 126.206C272.226 132.553 282.739 140.004 292.43 148.446C297.282 152.654 301.694 157.345 305.597 162.446C307.553 165.018 309.162 167.835 310.384 170.826C310.992 172.327 311.368 173.912 311.497 175.526C311.633 177.16 311.288 178.799 310.504 180.239C309.649 181.643 308.405 182.768 306.924 183.479C305.462 184.179 303.901 184.651 302.297 184.879C299.1 185.323 295.859 185.343 292.657 184.939C286.268 184.141 279.978 182.691 273.884 180.613C261.704 176.472 249.968 171.126 238.85 164.653C227.686 158.263 217.189 150.773 207.517 142.293C202.675 138.052 198.276 133.33 194.39 128.199C192.441 125.627 190.838 122.81 189.624 119.819C189.016 118.314 188.643 116.724 188.517 115.106C188.35 113.468 188.705 111.818 189.531 110.394C190.357 108.969 191.612 107.842 193.117 107.173C194.578 106.475 196.139 106.007 197.744 105.786C200.939 105.363 204.175 105.363 207.37 105.786C213.745 106.604 220.019 108.069 226.097 110.159C238.254 114.328 249.964 119.704 261.05 126.206ZM261.05 126.206C249.947 119.738 238.224 114.398 226.057 110.266C219.982 108.197 213.712 106.752 207.344 105.953C204.164 105.549 200.945 105.569 197.77 106.013C196.192 106.237 194.656 106.7 193.217 107.386C191.758 108.039 190.543 109.137 189.746 110.522C188.948 111.908 188.609 113.51 188.777 115.099C188.906 116.689 189.277 118.249 189.877 119.726C191.092 122.688 192.692 125.476 194.637 128.019C198.524 133.121 202.922 137.812 207.764 142.019C217.441 150.45 227.938 157.892 239.097 164.233C250.17 170.73 261.866 176.101 274.01 180.266C280.067 182.355 286.322 183.818 292.677 184.633C295.85 185.056 299.064 185.056 302.237 184.633C303.814 184.422 305.349 183.972 306.79 183.299C308.252 182.652 309.472 181.559 310.273 180.175C311.075 178.792 311.417 177.19 311.25 175.599C311.128 174.008 310.762 172.446 310.164 170.966C308.958 167.997 307.367 165.199 305.43 162.646C301.555 157.528 297.168 152.819 292.337 148.593C282.681 140.105 272.2 132.606 261.05 126.206Z" fill="#0057FF"/>
<path d="M238.972 126.226C250.059 119.725 261.769 114.349 273.926 110.179C280.011 108.081 286.295 106.609 292.679 105.786C295.874 105.363 299.111 105.363 302.306 105.786C303.909 106.013 305.468 106.481 306.932 107.173C308.437 107.842 309.692 108.969 310.519 110.394C311.345 111.818 311.699 113.468 311.532 115.106C311.406 116.724 311.033 118.314 310.426 119.819C309.211 122.81 307.608 125.627 305.659 128.199C301.774 133.33 297.376 138.05 292.532 142.286C282.859 150.767 272.362 158.259 261.199 164.653C250.085 171.132 238.348 176.479 226.166 180.613C220.057 182.703 213.751 184.162 207.346 184.966C204.144 185.369 200.902 185.349 197.706 184.906C196.101 184.677 194.541 184.205 193.079 183.506C191.597 182.795 190.354 181.67 189.499 180.266C188.715 178.826 188.369 177.187 188.506 175.553C188.635 173.938 189.01 172.353 189.619 170.853C190.841 167.87 192.45 165.062 194.406 162.499C198.308 157.398 202.72 152.708 207.572 148.499C217.268 140.045 227.788 132.583 238.972 126.226ZM238.972 126.226C227.82 132.608 217.335 140.09 207.672 148.559C202.841 152.786 198.454 157.495 194.579 162.613C192.642 165.166 191.051 167.963 189.846 170.933C189.248 172.412 188.881 173.975 188.759 175.566C188.593 177.156 188.935 178.758 189.736 180.142C190.537 181.525 191.757 182.619 193.219 183.266C194.66 183.939 196.196 184.388 197.772 184.599C200.945 185.023 204.16 185.023 207.332 184.599C213.688 183.786 219.943 182.32 225.999 180.226C238.141 176.074 249.835 170.714 260.906 164.226C272.063 157.885 282.559 150.446 292.239 142.019C297.083 137.814 301.484 133.122 305.372 128.019C307.314 125.475 308.912 122.687 310.126 119.726C310.725 118.249 311.096 116.689 311.226 115.099C311.393 113.51 311.054 111.908 310.257 110.522C309.459 109.137 308.244 108.039 306.786 107.386C305.347 106.697 303.812 106.234 302.232 106.013C299.058 105.569 295.839 105.549 292.659 105.953C286.289 106.752 280.016 108.197 273.939 110.266C261.779 114.404 250.065 119.75 238.972 126.226Z" fill="#0057FF"/>
<path d="M293.303 121.256C293.303 121.256 286.97 167.163 276.55 177.49C264.05 189.923 254.976 188.076 249.923 194.463C244.876 188.063 235.803 189.883 223.29 177.483C212.87 167.17 206.543 121.256 206.543 121.256C233.983 109.21 249.923 95.7031 249.923 95.7031C250.416 96.1231 266.283 109.403 293.303 121.256Z" fill="#0057FF"/>
<path opacity="0.1" d="M249.923 95.7098V194.463C244.876 188.063 235.803 189.883 223.29 177.483C212.87 167.17 206.543 121.256 206.543 121.256C233.983 109.21 249.923 95.7031 249.923 95.7031V95.7098Z" fill="black"/>
<path d="M286.712 125.116C286.712 125.116 281.379 163.889 272.566 172.622C261.992 183.102 254.326 181.562 250.059 186.962C245.792 181.562 238.126 183.102 227.552 172.622C218.712 163.889 213.379 125.116 213.379 125.116C236.559 114.929 250.046 103.516 250.046 103.516C250.046 103.516 263.512 114.929 286.712 125.116Z" fill="#0057FF"/>
<path opacity="0.1" d="M286.64 125.102C286.64 125.102 281.307 163.876 272.493 172.609C261.933 183.082 254.267 181.556 250 186.936V103.516C250.387 103.862 263.8 115.076 286.64 125.102Z" fill="black"/>
<path d="M253.204 142.23L256.597 158.337H242.191L245.584 142.23C244.255 141.402 243.232 140.164 242.669 138.703C242.106 137.242 242.035 135.637 242.465 134.132C242.896 132.626 243.805 131.302 245.055 130.359C246.305 129.416 247.828 128.906 249.394 128.906C250.96 128.906 252.483 129.416 253.733 130.359C254.984 131.302 255.893 132.626 256.323 134.132C256.754 135.637 256.682 137.242 256.119 138.703C255.557 140.164 254.533 141.402 253.204 142.23Z" fill="#263238"/>
<path d="M119.244 246.094C119.244 246.094 107.437 269.527 107.424 269.54C105.144 274.014 103.224 277.967 102.424 280.107C102.421 280.12 102.421 280.134 102.424 280.147C102.179 280.626 102.051 281.156 102.051 281.694C102.051 281.694 102.051 281.727 102.051 281.734C102.924 283.314 138.104 302.587 139.557 302.847C141.011 303.107 141.864 298.987 141.097 297.147C140.331 295.307 130.151 281.907 130.151 281.907L141.731 258.374L119.244 246.094Z" fill="#D3766A"/>
<path d="M109.851 264.648C109.851 264.648 107.437 269.442 107.424 269.455C105.144 273.928 103.224 277.882 102.424 280.022C102.421 280.035 102.421 280.049 102.424 280.062C102.239 280.561 102.114 281.08 102.051 281.608C102.051 281.608 102.051 281.642 102.051 281.648C102.924 283.228 138.104 302.502 139.557 302.762C141.011 303.022 141.864 298.902 141.097 297.062C140.331 295.222 130.151 281.822 130.151 281.822L132.677 276.968L109.851 264.648Z" fill="#BAC9E0"/>
<path d="M132.509 283.387C130.335 281.774 127.235 280.721 124.575 281.527C124.469 281.527 124.515 281.707 124.575 281.721C127.222 282.107 129.819 282.778 132.322 283.721C132.344 283.733 132.368 283.741 132.393 283.744C132.418 283.747 132.443 283.745 132.467 283.738C132.491 283.731 132.514 283.72 132.534 283.704C132.553 283.689 132.57 283.669 132.582 283.647C132.594 283.626 132.602 283.601 132.605 283.577C132.608 283.552 132.606 283.526 132.599 283.502C132.592 283.478 132.581 283.456 132.565 283.436C132.55 283.416 132.531 283.4 132.509 283.387Z" fill="#263238"/>
<path d="M133.485 285.34C131.312 283.733 128.205 282.673 125.552 283.48C125.445 283.513 125.492 283.66 125.552 283.673C128.198 284.061 130.795 284.731 133.299 285.673C133.321 285.685 133.345 285.693 133.37 285.696C133.394 285.699 133.42 285.697 133.444 285.69C133.468 285.683 133.491 285.672 133.51 285.656C133.53 285.641 133.546 285.622 133.559 285.6C133.571 285.578 133.579 285.554 133.582 285.529C133.585 285.504 133.583 285.479 133.576 285.455C133.569 285.43 133.558 285.408 133.542 285.388C133.526 285.368 133.507 285.352 133.485 285.34Z" fill="#263238"/>
<path d="M134.95 287.294C132.776 285.68 129.67 284.627 127.01 285.434C126.91 285.434 126.956 285.607 127.043 285.62C129.688 285.997 132.285 286.657 134.79 287.587C134.828 287.608 134.874 287.613 134.917 287.601C134.959 287.588 134.995 287.559 135.016 287.52C135.037 287.481 135.042 287.436 135.03 287.393C135.017 287.351 134.988 287.315 134.95 287.294V287.294Z" fill="#263238"/>
<path d="M139.588 303.031C138.135 302.771 102.955 283.505 102.082 281.918C101.742 281.325 104.248 276.031 107.468 269.725L107.568 269.531L130.402 281.711L130.182 282.091C130.182 282.091 140.348 295.491 141.128 297.331C141.908 299.171 141.022 303.298 139.588 303.031Z" fill="#0057FF"/>
<path d="M139.86 301.667C134.007 298.273 110.093 285.133 104.047 282.227C104 282.227 103.98 282.227 104.047 282.26C109.773 285.753 133.8 298.693 139.827 301.767C139.933 301.827 139.98 301.74 139.86 301.667Z" fill="#263238"/>
<path d="M135.717 274.584C135.997 274.45 151.343 245.657 157.11 231.017C162.877 216.377 170.223 185.064 171.663 178.65C171.663 178.65 176.263 164.444 177.63 152.344H146.583C146.583 152.344 141.477 164.81 142.643 182.21C142.717 183.284 133.477 219.057 130.863 223.817C126.863 231.104 110.377 260.69 109.863 260.957L135.717 274.584Z" fill="#0D45B2"/>
<path d="M165.322 161.257C163.688 168.297 162.268 175.39 160.768 182.457C159.268 189.524 157.762 196.664 156.255 203.79C155.515 207.29 154.795 210.804 154.022 214.297C153.294 217.742 152.28 221.121 150.988 224.397C149.655 227.63 148.162 230.79 146.675 233.944C145.188 237.097 143.662 240.284 142.122 243.437C139.011 249.775 135.826 256.068 132.568 262.317C132.168 263.09 131.762 263.857 131.355 264.623C131.322 264.683 131.408 264.737 131.442 264.677C134.895 258.53 138.242 252.317 141.442 246.01C144.642 239.703 147.755 233.417 150.608 226.984C152.029 223.805 153.169 220.508 154.015 217.13C154.862 213.69 155.528 210.197 156.255 206.724L160.715 185.29C162.195 178.177 163.682 171.07 165.128 163.957C165.308 163.077 165.482 162.204 165.648 161.29C165.655 161.13 165.368 161.05 165.322 161.257Z" fill="#263238"/>
<path d="M113.879 256.841C114.546 257.101 115.266 257.508 115.939 257.828C116.613 258.148 117.446 258.588 118.206 258.955C119.673 259.661 121.133 260.388 122.586 261.135C125.506 262.621 128.406 264.181 131.253 265.801L133.599 267.135C134.433 267.615 135.239 268.141 136.093 268.588C136.159 268.588 136.093 268.701 136.053 268.668C134.593 267.888 133.046 267.235 131.559 266.508C130.073 265.781 128.639 265.061 127.193 264.321C124.273 262.821 121.373 261.255 118.526 259.608C117.739 259.155 116.946 258.721 116.166 258.275C115.746 258.035 115.333 257.788 114.919 257.541C114.535 257.339 114.161 257.116 113.799 256.875C113.733 256.895 113.786 256.815 113.879 256.841Z" fill="#263238"/>
<path d="M164.551 263.672C164.551 263.672 164.771 289.905 164.771 289.925C164.771 294.939 164.891 299.339 165.157 301.612C165.153 301.623 165.153 301.634 165.157 301.645C165.158 302.184 165.281 302.715 165.517 303.199C167.017 304.205 207.117 305.252 208.531 304.812C209.944 304.372 208.811 300.325 207.291 299.045C205.771 297.765 190.631 290.532 190.631 290.532L190.184 264.299L164.551 263.672Z" fill="#D3766A"/>
<path d="M165.039 285.156C165.039 285.156 165.086 290.523 165.086 290.543C165.086 295.556 165.206 299.956 165.472 302.23C165.468 302.24 165.468 302.252 165.472 302.263C165.531 302.795 165.652 303.319 165.832 303.823V303.823C167.332 304.83 207.432 305.876 208.846 305.436C210.259 304.996 209.126 300.95 207.606 299.67C206.086 298.39 190.946 291.156 190.946 291.156V285.683L165.039 285.156Z" fill="#BAC9E0"/>
<path d="M193.478 291.167C190.811 290.727 187.565 291.201 185.571 293.167C185.498 293.241 185.605 293.354 185.691 293.321C188.216 292.447 190.826 291.846 193.478 291.527C193.526 291.527 193.572 291.508 193.605 291.475C193.639 291.441 193.658 291.395 193.658 291.347C193.658 291.3 193.639 291.254 193.605 291.22C193.572 291.186 193.526 291.167 193.478 291.167V291.167Z" fill="#263238"/>
<path d="M195.439 292.143C192.772 291.703 189.526 292.183 187.532 294.143C187.452 294.216 187.532 294.323 187.646 294.296C190.171 293.419 192.784 292.818 195.439 292.503C195.487 292.503 195.533 292.484 195.566 292.45C195.6 292.417 195.619 292.371 195.619 292.323C195.619 292.275 195.6 292.23 195.566 292.196C195.533 292.162 195.487 292.143 195.439 292.143V292.143Z" fill="#263238"/>
<path d="M197.392 293.12C194.725 292.68 191.479 293.154 189.485 295.12C189.405 295.194 189.485 295.307 189.599 295.274C192.123 294.4 194.733 293.799 197.385 293.48C197.433 293.481 197.479 293.463 197.514 293.43C197.548 293.397 197.568 293.352 197.569 293.304C197.57 293.256 197.552 293.21 197.518 293.176C197.485 293.141 197.44 293.121 197.392 293.12Z" fill="#263238"/>
<path d="M208.846 305.212C207.432 305.646 167.332 304.606 165.832 303.592C165.259 303.219 165.066 297.366 165.039 290.259V290.039L190.912 290.419V290.859C190.912 290.859 206.086 298.119 207.619 299.406C209.152 300.692 210.259 304.779 208.846 305.212Z" fill="#0057FF"/>
<path d="M208.26 303.669C201.507 303.322 174.227 302.582 167.52 302.762C167.467 302.762 167.467 302.802 167.52 302.802C174.187 303.289 201.52 303.809 208.26 303.775C208.38 303.775 208.38 303.675 208.26 303.669Z" fill="#263238"/>
<path d="M160.048 180.124C160.048 180.124 164.468 223.517 164.541 224.537C164.541 224.944 163.948 281.824 163.948 281.824L191.394 282.604C191.394 282.604 191.628 229.404 191.181 223.27C191.128 222.557 188.468 177.317 179.954 152.344H147.461C147.461 152.344 147.748 167.01 154.421 177.624C156.342 178.351 158.22 179.186 160.048 180.124Z" fill="#0D45B3"/>
<path d="M184.042 229.276C183.915 221.276 183.582 213.236 182.955 205.236C182.329 197.236 181.349 189.436 180.055 181.596C178.817 173.702 177.094 165.891 174.895 158.209C174.608 157.249 174.322 156.289 174.029 155.329C174.017 155.308 173.998 155.291 173.975 155.281C173.953 155.272 173.928 155.271 173.904 155.278C173.881 155.285 173.86 155.3 173.847 155.32C173.833 155.34 173.826 155.365 173.829 155.389C175.895 163.083 177.682 170.836 179.035 178.683C180.389 186.529 181.282 194.523 181.955 202.489C182.629 210.456 183.015 218.489 183.215 226.489C183.415 234.489 183.435 242.489 183.355 250.489C183.275 258.489 182.969 261.609 182.942 269.609C182.942 270.616 182.942 271.609 182.909 272.616C182.909 272.689 183.015 272.682 183.015 272.616C183.162 268.616 183.402 264.616 183.535 260.569C183.669 256.522 183.789 257.402 183.882 253.376C184.069 245.382 184.168 237.329 184.042 229.276Z" fill="#263238"/>
<path d="M164.348 182.221C162.748 181.348 161.114 180.561 159.441 179.848C157.768 179.134 156.048 178.481 154.381 177.734C154.314 177.734 154.261 177.801 154.328 177.834C155.968 178.681 157.574 179.588 159.234 180.388C160.866 181.17 162.55 181.838 164.274 182.388C164.388 182.434 164.441 182.274 164.348 182.221Z" fill="#263238"/>
<path d="M162.095 198.739C161.688 194.645 161.248 190.559 160.761 186.479C160.615 185.325 160.468 184.172 160.315 183.025C160.203 181.915 160.02 180.813 159.768 179.725C159.768 179.665 159.668 179.685 159.668 179.725C159.674 180.773 159.743 181.819 159.875 182.859C159.975 183.845 160.061 184.859 160.161 185.819C160.355 187.819 160.535 189.879 160.741 191.905C161.155 195.972 161.515 200.039 161.928 204.099C162.168 206.412 162.381 208.719 162.715 211.019C162.715 211.054 162.729 211.088 162.754 211.113C162.779 211.138 162.813 211.152 162.848 211.152C162.883 211.152 162.917 211.138 162.942 211.113C162.967 211.088 162.981 211.054 162.981 211.019C162.888 206.912 162.495 202.819 162.095 198.739Z" fill="#263238"/>
<path d="M165.568 276.397C166.302 276.33 167.102 276.397 167.848 276.397C168.695 276.397 169.542 276.43 170.388 276.43C172.015 276.43 173.644 276.448 175.275 276.483C178.555 276.557 181.842 276.703 185.115 276.937L187.822 277.137C188.782 277.21 189.742 277.33 190.702 277.363C190.775 277.363 190.768 277.457 190.702 277.45C189.048 277.383 187.368 277.45 185.722 277.45C184.075 277.45 182.462 277.41 180.835 277.37C177.555 277.29 174.262 277.137 170.995 276.89C170.088 276.817 169.188 276.77 168.288 276.71L166.848 276.59C166.415 276.557 165.988 276.59 165.562 276.503C165.515 276.47 165.515 276.397 165.568 276.397Z" fill="#263238"/>
<path d="M167.259 119.165C168.633 123.831 175.926 137.905 183.366 139.831C190.033 141.545 208.033 126.271 212.966 118.631C214.706 115.965 201.206 112.631 198.413 113.391C196.013 114.058 185.533 124.725 184.606 124.385C183.039 123.785 179.386 120.565 173.446 115.545C167.859 110.811 166.293 115.878 167.259 119.165Z" fill="#D3766A"/>
<path d="M195.124 114.732L211.744 121.726C211.744 121.726 192.818 142.446 183.124 140.439C180.891 139.979 171.064 132.386 167.058 120.532C165.818 116.859 166.044 109.199 174.351 115.999C182.658 122.799 184.384 123.806 184.711 123.772C185.038 123.739 195.124 114.732 195.124 114.732Z" fill="#4F85EE"/>
<path d="M208.391 124.136C207.165 123.416 205.831 122.856 204.545 122.263C203.258 121.669 202.005 121.096 200.731 120.523C198.151 119.369 195.585 118.143 192.938 117.189C192.926 117.186 192.914 117.187 192.902 117.192C192.891 117.197 192.882 117.206 192.877 117.217C192.871 117.228 192.87 117.24 192.872 117.252C192.875 117.264 192.882 117.275 192.891 117.283C195.365 118.696 197.991 119.856 200.585 121.036C201.878 121.623 203.182 122.196 204.498 122.756C205.755 123.33 207.044 123.833 208.358 124.263C208.391 124.249 208.431 124.163 208.391 124.136Z" fill="#263238"/>
<path d="M250.079 132.005L250.313 131.059C250.516 130.216 250.376 129.328 249.925 128.588C249.474 127.848 248.748 127.317 247.906 127.112L162.906 106.445L161.133 113.745L246.133 134.412C246.55 134.513 246.983 134.532 247.407 134.465C247.831 134.399 248.238 134.25 248.605 134.027C248.972 133.803 249.29 133.51 249.543 133.163C249.796 132.816 249.979 132.423 250.079 132.005Z" fill="#0057FF"/>
<path opacity="0.2" d="M250.079 132.005L250.313 131.059C250.516 130.216 250.376 129.328 249.925 128.588C249.474 127.848 248.748 127.317 247.906 127.112L162.906 106.445L161.133 113.745L246.133 134.412C246.55 134.513 246.983 134.532 247.407 134.465C247.831 134.399 248.238 134.25 248.605 134.027C248.972 133.803 249.29 133.51 249.543 133.163C249.796 132.816 249.979 132.423 250.079 132.005Z" fill="black"/>
<path opacity="0.1" d="M162.906 105.98L161.133 113.281L171.427 115.781L173.2 108.48L162.906 105.98Z" fill="black"/>
<path d="M139.483 128.905C141.658 129.434 143.916 129.53 146.128 129.186C148.34 128.842 150.463 128.065 152.375 126.901C154.286 125.736 155.95 124.206 157.27 122.399C158.591 120.591 159.542 118.541 160.07 116.365L163.216 103.419C163.794 101.227 163.928 98.9417 163.611 96.6972C163.295 94.4528 162.534 92.294 161.373 90.3472C160.212 88.4004 158.674 86.7046 156.85 85.3592C155.026 84.0137 152.952 83.0456 150.749 82.5114C148.546 81.9772 146.259 81.8877 144.021 82.2481C141.783 82.6085 139.64 83.4116 137.716 84.6104C135.792 85.8091 134.127 87.3795 132.818 89.2297C131.508 91.0798 130.581 93.1725 130.09 95.3854L126.943 108.339C125.881 112.729 126.605 117.361 128.956 121.218C131.307 125.074 135.094 127.839 139.483 128.905V128.905ZM140.73 123.779C134.73 122.325 130.883 116.972 132.136 111.819C133.076 107.965 136.596 105.319 140.803 104.839C137.27 102.472 135.35 98.5054 136.29 94.652C137.536 89.5054 143.41 86.4987 149.41 87.952C155.41 89.4054 159.25 94.7787 158.003 99.952C157.07 103.805 153.55 106.445 149.336 106.932C152.876 109.299 154.79 113.265 153.856 117.119C152.603 122.245 146.723 125.239 140.73 123.779Z" fill="#0057FF"/>
<path opacity="0.2" d="M139.483 128.905C141.658 129.434 143.916 129.53 146.128 129.186C148.34 128.842 150.463 128.065 152.375 126.901C154.286 125.736 155.95 124.206 157.27 122.399C158.591 120.591 159.542 118.541 160.07 116.365L163.216 103.419C163.794 101.227 163.928 98.9417 163.611 96.6972C163.295 94.4528 162.534 92.294 161.373 90.3472C160.212 88.4004 158.674 86.7046 156.85 85.3592C155.026 84.0137 152.952 83.0456 150.749 82.5114C148.546 81.9772 146.259 81.8877 144.021 82.2481C141.783 82.6085 139.64 83.4116 137.716 84.6104C135.792 85.8091 134.127 87.3795 132.818 89.2297C131.508 91.0798 130.581 93.1725 130.09 95.3854L126.943 108.339C125.881 112.729 126.605 117.361 128.956 121.218C131.307 125.074 135.094 127.839 139.483 128.905V128.905ZM140.73 123.779C134.73 122.325 130.883 116.972 132.136 111.819C133.076 107.965 136.596 105.319 140.803 104.839C137.27 102.472 135.35 98.5054 136.29 94.652C137.536 89.5054 143.41 86.4987 149.41 87.952C155.41 89.4054 159.25 94.7787 158.003 99.952C157.07 103.805 153.55 106.445 149.336 106.932C152.876 109.299 154.79 113.265 153.856 117.119C152.603 122.245 146.723 125.239 140.73 123.779Z" fill="black"/>
<path d="M163.319 117.666L166.637 104.003C166.833 103.195 166.337 102.38 165.528 102.184L165.088 102.077C164.279 101.88 163.464 102.376 163.268 103.185L159.95 116.848C159.753 117.657 160.25 118.471 161.058 118.668L161.499 118.775C162.308 118.971 163.122 118.475 163.319 117.666Z" fill="#0057FF"/>
<path opacity="0.2" d="M163.319 117.666L166.637 104.003C166.833 103.195 166.337 102.38 165.528 102.184L165.088 102.077C164.279 101.88 163.464 102.376 163.268 103.185L159.95 116.848C159.753 117.657 160.25 118.471 161.058 118.668L161.499 118.775C162.308 118.971 163.122 118.475 163.319 117.666Z" fill="black"/>
<path d="M166.737 118.643L170.055 104.98C170.251 104.171 169.755 103.356 168.946 103.16L168.506 103.053C167.697 102.857 166.882 103.353 166.686 104.162L163.368 117.825C163.171 118.633 163.668 119.448 164.476 119.644L164.917 119.751C165.726 119.948 166.54 119.451 166.737 118.643Z" fill="#0057FF"/>
<path opacity="0.2" d="M166.737 118.643L170.055 104.98C170.251 104.171 169.755 103.356 168.946 103.16L168.506 103.053C167.697 102.857 166.882 103.353 166.686 104.162L163.368 117.825C163.171 118.633 163.668 119.448 164.476 119.644L164.917 119.751C165.726 119.948 166.54 119.451 166.737 118.643Z" fill="black"/>
<path d="M224.653 131.69L227.193 132.31L225.4 139.683L227.567 140.21L228.507 136.363L231.033 136.983L230.107 140.823L232.027 141.29L233.5 135.216L236.04 135.83L234.567 141.91L237.293 142.57L239.267 134.45L241.807 135.07L239.833 143.19L242.407 143.816L244.933 133.436L222.247 127.93L219.727 138.303L222.86 139.07L224.653 131.69Z" fill="#0057FF"/>
<path opacity="0.2" d="M224.653 131.69L227.193 132.31L225.4 139.683L227.567 140.21L228.507 136.363L231.033 136.983L230.107 140.823L232.027 141.29L233.5 135.216L236.04 135.83L234.567 141.91L237.293 142.57L239.267 134.45L241.807 135.07L239.833 143.19L242.407 143.816L244.933 133.436L222.247 127.93L219.727 138.303L222.86 139.07L224.653 131.69Z" fill="black"/>
<path d="M192.383 111.6C195.003 110.806 198.483 108.34 200.516 108.4C201.019 108.396 201.509 108.554 201.915 108.85C202.321 109.147 202.621 109.566 202.769 110.046C202.769 110.046 204.063 108.206 205.903 108.566C206.843 108.746 207.383 110.42 207.383 110.42C207.698 110.018 208.118 109.71 208.597 109.532C209.076 109.353 209.594 109.309 210.096 109.406C211.383 109.746 211.729 111.373 211.729 111.373C211.729 111.373 213.429 110.486 214.629 111.253C217.063 112.793 215.369 124.086 210.949 125.2C208.889 125.726 209.449 122.986 209.449 122.986C209.449 122.986 207.689 126.726 205.356 126.433C203.023 126.14 203.969 122.633 203.969 122.633C203.969 122.633 202.229 126.24 199.836 125.693C197.443 125.146 198.896 121.78 198.896 121.78C198.896 121.78 196.816 124.033 195.083 123.2C192.216 121.82 196.709 117.633 196.496 115.066L192.609 113.066L192.383 111.6Z" fill="#D3766A"/>
<path d="M196.135 109.191C193.589 109.724 191.055 106.291 188.542 106.451C185.149 106.671 187.815 110.857 192.469 112.397L196.295 112.957L196.135 109.191Z" fill="#D3766A"/>
<path d="M211.598 111.358C211.598 111.318 211.651 111.318 211.658 111.358C212.032 115.358 211.179 119.376 209.211 122.878C209.151 122.991 208.945 122.931 208.991 122.798C210.41 119.131 211.288 115.278 211.598 111.358Z" fill="#263238"/>
<path d="M207.21 110.384C207.21 110.337 207.284 110.344 207.29 110.384C207.659 114.798 206.436 119.199 203.844 122.791C203.75 122.911 203.544 122.924 203.637 122.791C205.284 120.264 207.004 114.064 207.21 110.384Z" fill="#263238"/>
<path d="M198.264 121.18C200.764 117.646 201.877 113.666 202.437 109.413C202.437 109.353 202.524 109.373 202.53 109.413C202.824 111.566 202.184 114.24 201.51 116.28C200.92 118.184 199.842 119.901 198.384 121.26C198.324 121.32 198.19 121.253 198.264 121.18Z" fill="#263238"/>
<path d="M172.764 122.111C171.004 122.031 167.671 118.438 166.504 115.551C166.744 114.039 167.06 112.539 167.451 111.058C167.757 109.618 168.064 108.011 168.237 106.525C168.237 106.218 169.244 106.898 169.244 106.898L171.117 107.565L177.311 109.858C176.562 111.657 176.034 113.539 175.737 115.465C175.721 115.671 175.721 115.878 175.737 116.085C175.737 116.085 175.737 116.145 175.737 116.185C175.791 117.398 175.511 122.245 172.764 122.111Z" fill="#D3766A"/>
<path d="M175.551 116.342C175.551 116.342 175.551 116.402 175.551 116.442C175.227 116.447 174.904 116.427 174.584 116.382C168.311 115.509 168.457 107.422 168.457 107.422L170.931 107.822L177.124 110.115C176.375 111.914 175.847 113.796 175.551 115.722C175.534 115.928 175.534 116.136 175.551 116.342V116.342Z" fill="#263238"/>
<path d="M169.602 93.4664C167.829 96.4664 167.276 106.24 169.076 108.886C171.689 112.72 177.076 114.326 180.629 110.933C184.062 107.646 184.556 94.8997 182.436 92.3797C179.322 88.6664 172.222 89.0331 169.602 93.4664Z" fill="#D3766A"/>
<path d="M181.228 101.562C181.228 101.562 181.275 101.596 181.275 101.623C181.215 102.289 181.275 103.043 181.841 103.296C181.841 103.296 181.841 103.336 181.841 103.329C181.115 103.189 181.068 102.176 181.228 101.562Z" fill="#263238"/>
<path d="M176.339 100.088C176.623 100.02 176.903 99.9381 177.179 99.8418C177.487 99.7991 177.773 99.6562 177.992 99.4352C178.047 99.3522 178.073 99.253 178.064 99.1537C178.056 99.0543 178.014 98.9608 177.945 98.8885C177.793 98.7621 177.609 98.6787 177.413 98.6471C177.217 98.6154 177.017 98.6366 176.832 98.7085C176.431 98.798 176.078 99.0362 175.845 99.3752C175.8 99.4538 175.778 99.5438 175.782 99.6345C175.785 99.7253 175.815 99.8131 175.866 99.8878C175.918 99.9625 175.99 100.021 176.074 100.057C176.157 100.092 176.249 100.103 176.339 100.088V100.088Z" fill="#263238"/>
<path d="M182.851 100.116C182.569 100.041 182.291 99.952 182.017 99.8492C181.711 99.7936 181.431 99.6418 181.217 99.4158C181.166 99.3307 181.144 99.2311 181.155 99.1324C181.166 99.0336 181.209 98.9411 181.277 98.8692C181.434 98.7464 181.62 98.668 181.817 98.6422C182.014 98.6164 182.215 98.6441 182.397 98.7225C182.791 98.8184 183.135 99.0557 183.364 99.3892C183.416 99.4696 183.442 99.5636 183.44 99.6591C183.438 99.7546 183.407 99.8474 183.352 99.9254C183.297 100.003 183.22 100.063 183.131 100.097C183.041 100.131 182.944 100.138 182.851 100.116V100.116Z" fill="#263238"/>
<path d="M177.94 107.499C177.704 107.576 177.449 107.576 177.213 107.499C176.693 107.332 176.706 106.832 176.826 106.445C177.104 106.47 177.364 106.587 177.567 106.778C177.769 106.969 177.9 107.223 177.94 107.499V107.499Z" fill="#D3766A"/>
<path d="M167.895 103.73C169.748 103.23 170.775 97.0629 170.775 97.0629C170.775 97.0629 170.721 99.6962 171.215 99.6362C171.708 99.5762 173.781 96.0362 174.041 93.4829C175.489 94.4637 177.057 95.2525 178.708 95.8295C181.035 96.5629 183.628 96.4429 183.635 96.0429C183.635 94.8562 182.615 91.7495 181.021 90.6295C179.859 89.7261 178.479 89.1451 177.021 88.9449C175.563 88.7448 174.077 88.9327 172.715 89.4896C168.868 90.9029 167.835 93.3495 167.241 95.2429C166.648 97.1362 167.215 103.916 167.895 103.73Z" fill="#263238"/>
<path d="M175.81 104.756C175.243 104.639 174.72 104.366 174.301 103.967C173.882 103.568 173.583 103.06 173.438 102.499C173.293 101.939 173.309 101.349 173.483 100.797C173.656 100.245 173.982 99.753 174.421 99.3766C174.861 99.0002 175.397 98.7546 175.969 98.6678C176.541 98.581 177.126 98.6564 177.658 98.8855C178.189 99.1146 178.646 99.4882 178.975 99.9638C179.305 100.439 179.495 100.998 179.523 101.576C179.561 102.396 179.272 103.198 178.72 103.805C178.167 104.413 177.396 104.776 176.576 104.816C176.319 104.83 176.061 104.81 175.81 104.756V104.756ZM176.97 99.0893C176.75 99.0468 176.526 99.0311 176.303 99.0426C175.626 99.0804 174.988 99.3749 174.521 99.866C174.053 100.357 173.79 101.008 173.785 101.686C173.78 102.365 174.034 103.019 174.495 103.517C174.955 104.015 175.589 104.318 176.265 104.365C176.942 104.413 177.611 104.2 178.137 103.772C178.662 103.343 179.005 102.73 179.095 102.058C179.184 101.386 179.015 100.704 178.62 100.153C178.225 99.6014 177.635 99.2211 176.97 99.0893Z" fill="#0057FF"/>
<path d="M183.007 105.756C181.847 105.516 181.007 104.116 181.173 102.503C181.225 101.733 181.516 100.999 182.007 100.403C182.203 100.135 182.464 99.9214 182.766 99.7836C183.069 99.6458 183.401 99.5882 183.732 99.6163C184.063 99.6445 184.381 99.7574 184.656 99.9442C184.931 100.131 185.152 100.385 185.3 100.683C185.68 101.355 185.843 102.128 185.767 102.896C185.62 104.596 184.473 105.896 183.207 105.783C183.139 105.781 183.072 105.772 183.007 105.756V105.756ZM183.853 100.05C183.8 100.043 183.747 100.043 183.693 100.05C183.428 100.042 183.164 100.098 182.925 100.214C182.686 100.33 182.478 100.503 182.32 100.716C181.887 101.248 181.629 101.899 181.58 102.583C181.46 104.056 182.2 105.33 183.24 105.416C184.28 105.503 185.24 104.383 185.353 102.91C185.43 102.217 185.288 101.517 184.947 100.91C184.835 100.697 184.681 100.511 184.492 100.363C184.304 100.214 184.086 100.108 183.853 100.05V100.05Z" fill="#0057FF"/>
<path d="M179.439 102.329L179.199 101.989C179.706 101.636 180.833 101.202 181.513 102.069L181.193 102.329C180.579 101.549 179.486 102.276 179.439 102.329Z" fill="#0057FF"/>
<path d="M165.386 101.499L165.039 101.279C165.139 101.119 166.072 99.6793 167.006 99.6126C167.939 99.5459 173.366 100.539 173.599 100.579L173.519 100.986C171.952 100.699 167.712 99.9726 167.032 100.026C166.352 100.079 165.632 101.106 165.386 101.499Z" fill="#0057FF"/>
<path d="M169.424 101.728C169.424 101.728 167.971 98.2143 166.424 98.6743C164.878 99.1343 165.504 103.888 166.991 104.848C167.173 104.983 167.381 105.081 167.602 105.135C167.823 105.188 168.052 105.196 168.276 105.159C168.5 105.122 168.715 105.039 168.906 104.917C169.098 104.795 169.263 104.635 169.391 104.448L169.424 101.728Z" fill="#D3766A"/>
<path d="M167.01 100.586C167.01 100.586 166.97 100.586 167.01 100.626C168.05 101.333 168.41 102.519 168.59 103.706C168.55 103.574 168.481 103.452 168.389 103.35C168.296 103.247 168.182 103.167 168.054 103.114C167.927 103.061 167.789 103.037 167.651 103.044C167.513 103.05 167.378 103.088 167.257 103.153C167.223 103.153 167.257 103.219 167.257 103.226C167.469 103.205 167.683 103.251 167.868 103.357C168.053 103.464 168.201 103.625 168.29 103.819C168.44 104.146 168.554 104.488 168.63 104.839C168.63 104.953 168.85 104.939 168.843 104.839V104.806C169.21 103.346 168.53 101.073 167.01 100.586Z" fill="#263238"/>
<path d="M178.928 89.9973C177.757 89.2406 176.481 88.661 175.141 88.2773C173.641 87.8773 168.768 87.6106 167.474 88.3973C166.181 89.184 165.261 93.7306 165.141 94.3973C165.021 95.064 164.768 99.1173 166.088 100.284C167.408 101.451 168.481 94.644 171.088 92.6973C173.694 90.7506 178.928 89.9973 178.928 89.9973Z" fill="#0057FF"/>
<path opacity="0.1" d="M179.294 90.1451C179.294 90.1451 174.061 90.8651 171.461 92.8118C168.861 94.7584 167.781 101.565 166.454 100.398C165.854 99.7866 165.521 98.962 165.527 98.1051C166.107 96.1518 167.334 93.1651 169.294 91.2518C171.121 89.4584 173.961 88.8051 176.854 88.8718C177.701 89.228 178.517 89.6539 179.294 90.1451Z" fill="black"/>
<path d="M165.879 103.888C166.259 102.088 168.772 97.4685 171.092 94.9418C173.412 92.4151 179.339 91.5685 180.132 91.7218C182.052 92.1018 182.266 93.1285 182.599 92.9951C182.932 92.8618 181.492 90.7818 180.992 90.3818C180.492 89.9818 179.132 89.0151 178.292 88.9218C177.452 88.8285 172.186 88.6285 169.999 90.5885C167.812 92.5485 164.292 98.3751 164.566 100.035C164.632 100.428 165.106 100.742 165.192 101.308C165.306 102.042 165.339 102.882 165.486 103.408C165.606 103.835 165.846 104.042 165.879 103.888Z" fill="#0057FF"/>
<path d="M172.032 94.205C171.622 93.8729 171.243 93.5048 170.899 93.105C170.54 92.713 170.231 92.2787 169.979 91.8117C169.979 91.7784 169.905 91.8117 169.925 91.8117C170.111 92.3284 170.381 92.8106 170.725 93.2384C171.074 93.6564 171.497 94.0067 171.972 94.2717C172.025 94.3383 172.072 94.2384 172.032 94.205Z" fill="#263238"/>
<path d="M166.527 101.908C166.485 101.772 166.436 101.639 166.381 101.508C166.329 101.354 166.293 101.196 166.274 101.035C166.279 100.728 166.25 100.422 166.187 100.121C166.098 99.8866 165.981 99.6629 165.841 99.4547C165.667 99.2299 165.578 98.9517 165.587 98.668C165.587 98.628 165.534 98.6147 165.527 98.668C165.538 99.1924 165.681 99.7058 165.941 100.161C166.014 100.481 166.054 100.807 166.061 101.135C166.095 101.444 166.228 101.734 166.441 101.961C166.474 101.981 166.541 101.955 166.527 101.908Z" fill="#263238"/>
<path d="M167.323 100.694C167.169 100.48 167.026 100.257 166.896 100.027C166.78 99.79 166.679 99.545 166.596 99.294C166.516 99.0474 166.449 98.794 166.369 98.5474C166.289 98.3007 166.149 97.9674 166.076 97.674C166.076 97.634 166.009 97.674 166.016 97.674C166.096 97.9807 166.123 98.3007 166.196 98.614C166.259 98.8841 166.341 99.1492 166.443 99.4074C166.533 99.6555 166.647 99.8944 166.783 100.121C166.911 100.352 167.086 100.554 167.296 100.714C167.296 100.714 167.329 100.714 167.323 100.694Z" fill="#263238"/>
<path d="M167.964 98.3046C167.628 97.9289 167.347 97.5068 167.131 97.0513C166.924 96.6046 166.738 96.1446 166.564 95.7179C166.564 95.6846 166.498 95.7179 166.504 95.7179C166.587 96.2238 166.735 96.7169 166.944 97.1846C167.044 97.4211 167.172 97.6449 167.324 97.8513C167.501 98.0534 167.7 98.2346 167.918 98.3913C167.918 98.3913 167.991 98.3579 167.964 98.3046Z" fill="#263238"/>
<path d="M168.904 97.3541C168.732 97.1981 168.591 97.0102 168.491 96.8008C168.364 96.5808 168.237 96.3474 168.117 96.1341C167.997 95.9208 167.891 95.6941 167.777 95.4674C167.648 95.2496 167.569 95.0061 167.544 94.7541C167.544 94.7208 167.484 94.7141 167.484 94.7541C167.469 95.0055 167.505 95.2573 167.591 95.4941C167.674 95.7611 167.781 96.0199 167.911 96.2675C168.035 96.5097 168.175 96.7435 168.331 96.9674C168.453 97.1795 168.64 97.3474 168.864 97.4474C168.87 97.4501 168.877 97.4515 168.883 97.4516C168.89 97.4516 168.897 97.4504 168.903 97.4479C168.909 97.4454 168.915 97.4418 168.919 97.4371C168.924 97.4325 168.928 97.4269 168.931 97.4208C168.933 97.4147 168.935 97.4081 168.935 97.4014C168.935 97.3947 168.933 97.3881 168.931 97.3819C168.929 97.3757 168.925 97.3701 168.92 97.3653C168.916 97.3606 168.91 97.3567 168.904 97.3541V97.3541Z" fill="#263238"/>
<path d="M169.671 94.6445C169.524 94.4579 169.377 94.2712 169.244 94.0712C169.111 93.8712 168.997 93.6645 168.877 93.4579C168.757 93.2512 168.624 93.0245 168.517 92.7912C168.517 92.7512 168.451 92.7912 168.457 92.7912C168.523 93.0324 168.605 93.2685 168.704 93.4979C168.809 93.7281 168.929 93.9508 169.064 94.1645C169.195 94.3703 169.337 94.5684 169.491 94.7579C169.637 94.9557 169.821 95.1233 170.031 95.2512C170.031 95.2512 170.104 95.2512 170.084 95.1979C169.965 95 169.827 94.8146 169.671 94.6445V94.6445Z" fill="#263238"/>
<path d="M173.258 93.3536C173.115 93.1058 172.959 92.8654 172.791 92.6336C172.617 92.3998 172.427 92.1771 172.225 91.967C171.84 91.5403 171.411 91.1559 170.945 90.8203C170.945 90.8203 170.878 90.8203 170.905 90.867C171.658 91.7203 172.458 92.5403 173.211 93.407C173.231 93.4203 173.278 93.387 173.258 93.3536Z" fill="#263238"/>
<path d="M174.879 91.5904C174.725 91.348 174.544 91.1242 174.339 90.9237C173.902 90.51 173.418 90.1476 172.899 89.8438C172.865 89.8438 172.832 89.8437 172.865 89.8904C173.292 90.2637 173.725 90.6371 174.132 91.0371C174.332 91.2371 174.532 91.4437 174.712 91.6637C174.892 91.8837 175.012 92.1371 175.185 92.3637H175.225C175.159 92.0866 175.042 91.8243 174.879 91.5904V91.5904Z" fill="#263238"/>
<path d="M177.42 90.8104C177.254 90.6304 177.074 90.4571 176.894 90.2838C176.723 90.1092 176.528 89.9609 176.314 89.8438C176.28 89.8438 176.254 89.8438 176.28 89.8971C176.614 90.2438 176.947 90.5971 177.26 90.9504C177.538 91.2968 177.777 91.6724 177.974 92.0704C177.974 92.0704 178.014 92.0704 178.007 92.0704C177.947 91.5997 177.742 91.1594 177.42 90.8104V90.8104Z" fill="#263238"/>
<path d="M178.885 90.7704C178.577 90.3951 178.202 90.0808 177.779 89.8438C177.745 89.8438 177.719 89.8771 177.745 89.8971C178.122 90.1717 178.455 90.5022 178.732 90.8771C179.016 91.2504 179.259 91.6526 179.459 92.0771C179.459 92.0771 179.505 92.0771 179.499 92.0771C179.402 91.5986 179.192 91.1504 178.885 90.7704Z" fill="#263238"/>
<path d="M180.626 91.6304C180.594 91.5273 180.554 91.427 180.506 91.3304C180.409 91.1362 180.295 90.951 180.166 90.7771C179.892 90.4353 179.583 90.1226 179.246 89.8438C179.246 89.8438 179.179 89.8437 179.206 89.8904C179.528 90.1699 179.814 90.4879 180.059 90.8371C180.18 91.0092 180.289 91.1896 180.386 91.3771C180.432 91.4704 180.472 91.5637 180.512 91.6571C180.54 91.7541 180.578 91.848 180.626 91.9371C180.626 91.9371 180.679 91.9371 180.679 91.9371C180.679 91.8325 180.661 91.7287 180.626 91.6304V91.6304Z" fill="#263238"/>
<path d="M181.686 91.1171C181.516 90.805 181.312 90.5122 181.079 90.2438C180.959 90.1104 180.833 89.9837 180.713 89.8438C180.713 89.8438 180.639 89.8437 180.673 89.8837C180.795 90.0194 180.906 90.1643 181.006 90.3171L181.293 90.7438L181.579 91.1704C181.663 91.3244 181.759 91.4715 181.866 91.6104C181.866 91.6104 181.913 91.6104 181.906 91.6104C181.855 91.437 181.781 91.2711 181.686 91.1171V91.1171Z" fill="#263238"/>
<path d="M142.167 165.371C142.253 165.491 183.753 168.884 184.167 168.484C184.32 168.338 185.627 165.264 185.16 160.591C183.867 147.798 178.94 123.311 174.493 116.357C172.98 113.984 167.16 112.064 164.587 114.218C159.213 118.664 148.4 142.631 143.633 156.124C141.753 161.544 142.08 165.271 142.167 165.371Z" fill="#0057FF"/>
<path d="M169.734 121.204C171.794 126.637 182.174 146.824 189.734 148.184C198.894 149.831 210.781 148.631 216.081 146.511C219.054 145.324 212.627 130.744 209.821 131.477C205.401 132.631 196.954 132.744 195.274 132.744C193.594 132.744 182.687 122.404 176.547 117.071C171.021 112.284 168.521 118.004 169.734 121.204Z" fill="#D3766A"/>
<path d="M213.166 147.62C221.619 145.834 228.833 139.507 229.833 138.18C230.673 137.047 231.093 136.46 231.093 136.46C232.639 134.46 232.366 132.987 232.366 132.987C232.366 132.987 234.833 131.2 233.999 129.534C233.073 127.66 229.793 130.534 227.019 131.007C220.666 132.1 211.333 131.874 209.473 132.007L213.166 147.62Z" fill="#D3766A"/>
<path d="M221.238 136.674C223.1 136.375 224.94 135.952 226.745 135.407C228.68 134.682 230.558 133.815 232.365 132.814C232.376 132.811 232.388 132.812 232.398 132.816C232.409 132.821 232.418 132.828 232.424 132.838C232.43 132.848 232.432 132.859 232.431 132.87C232.43 132.881 232.426 132.892 232.418 132.901C229.13 135.208 225.273 136.57 221.265 136.841C221.172 136.854 221.172 136.707 221.238 136.674Z" fill="#263238"/>
<path d="M221.259 141.065C223.052 140.619 226.199 139.812 231.052 136.719C231.052 136.719 231.092 136.719 231.052 136.719C228.277 139.095 224.895 140.653 221.285 141.219C221.199 141.265 221.139 141.125 221.259 141.065Z" fill="#263238"/>
<path d="M219.259 131.649C218.379 131.462 218.473 130.982 219.926 130.315C221.379 129.649 227.666 128.009 226.919 125.862C226.173 123.715 217.326 126.089 215.026 127.462C213.056 128.767 211.199 130.234 209.473 131.849C211.266 131.695 215.699 131.829 219.259 131.649Z" fill="#D3766A"/>
<path d="M206.182 131.884L211.189 149.724C211.189 149.724 194.522 151.971 188.149 149.024C181.775 146.077 174.015 132.524 170.455 124.671C166.895 116.817 169.522 110.631 179.489 119.824C189.455 129.017 194.329 132.624 195.055 132.831C195.782 133.037 206.182 131.884 206.182 131.884Z" fill="#578FFC"/>
<path d="M181.334 143.03C180.854 142.237 176.834 136.363 176.454 135.697C175.674 134.41 174.9 133.123 174.147 131.823C172.62 129.203 171.147 126.543 169.48 124.023L169.434 124.057C170.207 125.837 171.094 127.577 172.04 129.283L171.814 129.05C171.136 128.418 170.493 127.751 169.887 127.05C169.847 127.003 169.774 127.05 169.814 127.123C170.42 127.79 170.96 128.557 171.547 129.257C171.827 129.603 172.114 129.923 172.42 130.257L172.8 130.63C173.1 131.15 173.407 131.67 173.72 132.183C174.507 133.517 175.374 134.757 176.194 136.05C177.634 138.323 180.86 142.477 181.28 143.083C181.3 143.157 181.374 143.117 181.334 143.03Z" fill="#263238"/>
<path d="M207.728 149.224C207.508 147.824 207.062 146.444 206.722 145.071C206.382 143.698 205.995 142.371 205.622 141.024C204.862 138.304 204.162 135.544 203.228 132.884C203.231 132.876 203.232 132.868 203.231 132.859C203.23 132.851 203.227 132.842 203.222 132.835C203.217 132.828 203.211 132.823 203.203 132.819C203.195 132.815 203.187 132.812 203.178 132.812C203.17 132.813 203.161 132.815 203.154 132.819C203.146 132.823 203.139 132.828 203.135 132.835C203.13 132.842 203.127 132.851 203.125 132.859C203.124 132.868 203.125 132.876 203.128 132.884C203.622 135.691 204.402 138.451 205.128 141.198C205.508 142.578 205.902 143.944 206.308 145.311C206.671 146.644 207.105 147.957 207.608 149.244C207.655 149.324 207.742 149.284 207.728 149.224Z" fill="#263238"/>
<path d="M201.18 132.268C199.534 132.314 197.9 132.541 196.254 132.581C195.522 132.616 194.799 132.413 194.194 132.001C193.527 131.548 186.374 126.088 185.147 125.014C185.1 124.968 185.027 125.048 185.074 125.088C186.367 126.161 190.974 130.181 192.307 131.261C192.888 131.772 193.508 132.238 194.16 132.654C194.774 133.01 195.492 133.145 196.194 133.034C197.86 132.834 199.527 132.674 201.2 132.401C201.274 132.388 201.254 132.268 201.18 132.268Z" fill="#263238"/>
<path d="M172.657 114.566C169.47 112.566 160.464 111.232 156.657 113.466C151.857 116.266 146.497 133.906 148.31 135.079C151.544 137.179 163.797 127.506 166.59 123.392C169.384 119.279 172.657 114.566 172.657 114.566Z" fill="#578FFC"/>
<path d="M170.029 120.078C169.403 120.658 168.749 121.232 168.129 121.825C168.983 120.632 169.849 119.445 170.669 118.232C170.669 118.192 170.636 118.138 170.603 118.178C169.494 119.398 168.45 120.675 167.476 122.005C166.443 123.338 165.396 124.672 164.289 125.912C163.204 127.191 162.025 128.388 160.763 129.492C159.402 130.618 157.963 131.645 156.456 132.565C155.607 133.089 154.749 133.598 153.883 134.092C152.949 134.61 151.978 135.056 150.976 135.425C150.796 135.485 150.909 135.552 150.976 135.532C151.829 135.278 152.657 134.945 153.449 134.538C154.276 134.132 155.109 133.725 155.929 133.298C157.51 132.513 159.022 131.597 160.449 130.558C163.223 128.485 165.323 125.785 167.296 122.972C167.337 122.919 167.375 122.863 167.409 122.805C167.783 122.452 168.149 122.085 168.503 121.705C169.016 121.158 169.549 120.645 170.103 120.138C170.105 120.129 170.104 120.119 170.101 120.109C170.097 120.1 170.092 120.092 170.084 120.086C170.077 120.08 170.067 120.076 170.058 120.074C170.048 120.073 170.038 120.074 170.029 120.078V120.078Z" fill="#263238"/>
</svg>
