<svg width="500" height="334" viewBox="0 0 500 334" fill="none" xmlns="http://www.w3.org/2000/svg">
<path d="M311.333 295.903C312.939 295.003 314.744 294.516 316.584 294.486C318.425 294.456 320.244 294.884 321.879 295.731C323.513 296.579 324.911 297.819 325.947 299.341C326.983 300.863 327.624 302.619 327.813 304.45C321.08 304.45 314.48 302.883 311.333 295.903Z" fill="#68A4FF"/>
<path d="M319.173 289.005C321.437 289.748 323.851 289.916 326.196 289.495C328.542 289.073 330.745 288.075 332.609 286.589C334.472 285.104 335.937 283.179 336.871 280.987C337.805 278.794 338.18 276.404 337.96 274.031C329.407 275.711 321.38 279.365 319.173 289.005Z" fill="#68A4FF"/>
<path d="M289.86 300.398C289.995 300.331 290.135 300.275 290.28 300.232L291.513 299.818C292.58 299.472 294.127 298.965 296.027 298.305C299.833 296.972 305.053 295.078 310.693 292.632C313.5 291.398 316.14 290.145 318.513 288.945C320.887 287.745 322.96 286.558 324.68 285.512C326.034 284.698 327.341 283.807 328.593 282.845C329.473 282.178 329.927 281.705 329.927 281.732C329.84 281.854 329.739 281.965 329.627 282.065C329.326 282.378 329.007 282.674 328.673 282.952C327.446 283.968 326.152 284.902 324.8 285.745C323.1 286.825 321.013 288.012 318.653 289.252C316.293 290.492 313.64 291.738 310.82 292.978C305.187 295.432 299.94 297.312 296.113 298.565C294.2 299.198 292.64 299.665 291.56 299.972L290.313 300.325C290.166 300.368 290.014 300.393 289.86 300.398Z" fill="#0057FF"/>
<path d="M320 299.827C320 299.88 319.187 299.334 317.847 298.607C316.096 297.668 314.247 296.926 312.333 296.394C310.414 295.873 308.441 295.571 306.453 295.494C304.933 295.434 303.98 295.494 303.98 295.44C304.197 295.377 304.421 295.341 304.647 295.334C305.251 295.269 305.859 295.24 306.467 295.247C310.512 295.265 314.482 296.35 317.973 298.394C318.5 298.699 319.007 299.035 319.493 299.4C319.682 299.517 319.853 299.661 320 299.827Z" fill="#0057FF"/>
<path d="M161.153 269.852C160.338 272.025 160.076 274.366 160.391 276.665C160.705 278.965 161.586 281.15 162.955 283.024C164.323 284.899 166.136 286.403 168.231 287.403C170.325 288.403 172.635 288.866 174.953 288.752C173.673 280.365 170.447 272.392 161.153 269.852Z" fill="#94B3E2"/>
<path d="M159.84 265.73C159.893 265.73 160.12 266.65 160.607 268.11C161.239 270.014 162.031 271.86 162.973 273.63C163.929 275.394 165.028 277.075 166.26 278.657C167.213 279.87 167.86 280.577 167.82 280.617C167.633 280.491 167.462 280.341 167.313 280.17C167 279.864 166.573 279.404 166.073 278.837C163.451 275.732 161.509 272.112 160.373 268.21C160.16 267.464 160.007 266.877 159.933 266.424C159.865 266.199 159.833 265.965 159.84 265.73Z" fill="#0057FF"/>
<path d="M27.9267 101.625C26.6607 104.994 26.2532 108.625 26.7407 112.191C27.2282 115.757 28.5954 119.145 30.7192 122.051C32.843 124.956 35.6565 127.287 38.906 128.834C42.1556 130.381 45.739 131.095 49.3333 130.912C47.3333 117.912 42.3533 105.578 27.9533 101.625" fill="#94B3E2"/>
<path d="M25.8867 95.25C26.0221 95.5705 26.127 95.9031 26.2 96.2433C26.3733 96.91 26.6467 97.8167 27.0133 98.9567C27.9806 101.915 29.2029 104.783 30.6667 107.53C32.1416 110.275 33.8548 112.885 35.7867 115.33C36.5333 116.263 37.12 117.01 37.5933 117.51C37.8347 117.762 38.0575 118.032 38.26 118.317C37.9852 118.103 37.7308 117.864 37.5 117.603C37.0267 117.123 36.3733 116.403 35.6067 115.483C31.5808 110.657 28.5799 105.061 26.7867 99.0367C26.4467 97.89 26.2067 96.9433 26.0733 96.29C25.9866 95.9482 25.9242 95.6006 25.8867 95.25Z" fill="#0057FF"/>
<path d="M50.4533 234.316C48.6441 235.772 47.2253 237.654 46.3247 239.795C45.4241 241.935 45.0699 244.265 45.294 246.576C45.5182 248.888 46.3137 251.107 47.6088 253.034C48.904 254.961 50.6581 256.536 52.7133 257.616C55.88 249.743 57.16 241.243 50.4533 234.316Z" fill="#94B3E2"/>
<path d="M51.4134 230.105C51.4667 230.105 51.1934 231.045 50.8667 232.545C50.0036 236.472 49.8343 240.52 50.3667 244.505C50.5667 246.032 50.7667 246.972 50.7067 246.985C50.6111 246.772 50.5418 246.549 50.5 246.319C50.3867 245.899 50.2534 245.285 50.12 244.525C49.452 240.516 49.6245 236.411 50.6267 232.472C50.82 231.719 51.0067 231.139 51.1534 230.712C51.2165 230.501 51.3037 230.297 51.4134 230.105Z" fill="#0057FF"/>
<path d="M174.173 65.7437C176.251 66.7783 178.554 67.28 180.874 67.2036C183.194 67.1272 185.458 66.4752 187.464 65.3063C189.469 64.1373 191.152 62.488 192.362 60.5069C193.572 58.5258 194.27 56.275 194.393 53.957C185.913 54.3637 177.66 56.757 174.173 65.7437Z" fill="#94B3E2"/>
<path d="M169.94 66.6633C169.94 66.61 170.887 66.4766 172.387 66.1433C176.314 65.2852 180.061 63.7488 183.46 61.6033C184.793 60.7766 185.533 60.21 185.567 60.27C185.426 60.4466 185.259 60.6016 185.073 60.73C184.74 61.01 184.233 61.3966 183.593 61.8233C180.235 64.1098 176.436 65.6697 172.44 66.4033C171.673 66.5433 171.053 66.6233 170.62 66.6633C170.394 66.6938 170.166 66.6938 169.94 66.6633Z" fill="#0057FF"/>
<path d="M156.893 64.5378C159.886 63.8954 162.672 62.5189 165.001 60.532C167.33 58.5452 169.128 56.0104 170.233 53.1559C171.339 50.3015 171.717 47.2169 171.334 44.1798C170.952 41.1427 169.819 38.2486 168.04 35.7578C159.64 43.1511 153.093 52.4245 156.893 64.5378Z" fill="#68A4FF"/>
<path d="M153.26 68.9255C153.425 68.6862 153.613 68.463 153.82 68.2589C154.2 67.8389 154.74 67.2122 155.38 66.4255C158.742 62.3187 161.345 57.6457 163.067 52.6255C163.4 51.6655 163.647 50.8789 163.807 50.3322C163.873 50.0432 163.97 49.7618 164.093 49.4922C164.073 49.7884 164.019 50.0813 163.933 50.3655C163.82 50.9255 163.6 51.6989 163.267 52.6989C161.668 57.8053 159.038 62.5294 155.54 66.5789C154.873 67.3522 154.3 67.9589 153.887 68.3522C153.698 68.5645 153.488 68.7567 153.26 68.9255Z" fill="#0057FF"/>
<path d="M211.58 292.91C212.212 294.156 213.144 295.225 214.291 296.021C215.439 296.817 216.766 297.316 218.154 297.473C219.542 297.63 220.947 297.439 222.243 296.918C223.54 296.398 224.686 295.563 225.58 294.49C221.34 291.637 216.487 289.823 211.58 292.91Z" fill="#68A4FF"/>
<path d="M209.22 291.816C210.78 292.508 212.383 293.095 214.02 293.576C215.685 293.944 217.374 294.198 219.073 294.336C218.577 294.446 218.066 294.477 217.56 294.43C215.106 294.346 212.699 293.73 210.507 292.623C210.04 292.42 209.606 292.148 209.22 291.816Z" fill="#0057FF"/>
<path d="M273.38 53.5509C274.24 54.6532 275.361 55.5241 276.642 56.0851C277.923 56.6461 279.323 56.8796 280.717 56.7646C282.11 56.6495 283.453 56.1894 284.624 55.4259C285.796 54.6624 286.759 53.6194 287.427 52.3909C282.713 50.3909 277.607 49.5709 273.38 53.5509Z" fill="#94B3E2"/>
<path d="M270.853 52.9375C274.166 53.8045 277.618 53.9972 281.007 53.5042C280.539 53.7014 280.045 53.8294 279.54 53.8842C277.115 54.2792 274.633 54.1404 272.267 53.4775C271.771 53.3699 271.294 53.1879 270.853 52.9375Z" fill="#94B3E2"/>
<path d="M433.54 74.0583C435.776 74.6737 438.131 74.7238 440.391 74.2041C442.652 73.6845 444.748 72.6113 446.491 71.081C448.234 69.5508 449.569 67.6114 450.377 65.4373C451.185 63.2631 451.441 60.9222 451.12 58.625C442.88 60.625 435.24 64.5783 433.54 74.0583Z" fill="#94B3E2"/>
<path d="M429.553 75.7386C429.553 75.6853 430.44 75.372 431.853 74.7586C435.544 73.1657 438.928 70.9413 441.853 68.1853C442.98 67.1253 443.62 66.4186 443.667 66.4586C443.558 66.6554 443.423 66.837 443.267 66.9986C442.993 67.3386 442.6 67.8053 442.027 68.332C439.166 71.2172 435.735 73.4741 431.953 74.9586C431.233 75.2386 430.62 75.4453 430.22 75.5586C430.006 75.6463 429.782 75.7068 429.553 75.7386Z" fill="#0057FF"/>
<path d="M449.333 277.252C453.267 276.341 456.913 274.467 459.943 271.798C462.972 269.13 465.292 265.75 466.692 261.963C468.092 258.175 468.529 254.1 467.964 250.102C467.398 246.104 465.849 242.309 463.453 239.059C452.5 248.985 444.06 261.332 449.333 277.252Z" fill="#94B3E2"/>
<path d="M444.607 283.117C444.833 282.797 445.083 282.494 445.353 282.21C445.853 281.65 446.553 280.817 447.387 279.77C448.22 278.724 449.18 277.437 450.173 275.97C451.167 274.504 452.173 272.83 453.153 271.03C454.133 269.23 454.933 267.457 455.62 265.817C456.307 264.177 456.847 262.677 457.253 261.397C457.66 260.117 457.967 259.077 458.16 258.35C458.243 257.968 458.359 257.593 458.507 257.23C458.464 257.62 458.392 258.005 458.293 258.384C458.14 259.124 457.867 260.177 457.487 261.47C457.107 262.764 456.58 264.284 455.92 265.944C455.26 267.604 454.427 269.377 453.46 271.197C452.537 272.898 451.529 274.551 450.44 276.15C449.42 277.617 448.44 278.89 447.58 279.924C446.72 280.957 445.98 281.77 445.453 282.304C445.193 282.597 444.91 282.869 444.607 283.117Z" fill="#0057FF"/>
<path d="M358.813 193.202C354.607 169.702 334.427 149.202 310.633 147.242C297.667 146.189 284.633 150.276 271.72 148.716C260.776 147.349 250.705 142.04 243.393 133.782C232.727 121.649 229.12 104.389 217.827 92.8423C202.267 76.9156 175.113 76.669 156.18 88.3823C137.247 100.096 125.8 121.236 120.56 142.869L120.353 149.449C119.213 171.889 125.12 198.002 138.14 218.002C151.333 238.269 160.007 246.669 184.047 261.209C204.46 273.582 244.433 279.022 268.3 279.596C292.167 280.169 316.68 273.062 334.633 257.316C352.587 241.569 363.027 216.702 358.813 193.202Z" fill="#68A4FF"/>
<g opacity="0.8">
<path opacity="0.8" d="M358.813 193.202C354.607 169.702 334.427 149.202 310.633 147.242C297.667 146.189 284.633 150.276 271.72 148.716C260.776 147.349 250.705 142.04 243.393 133.782C232.727 121.649 229.12 104.389 217.827 92.8423C202.267 76.9156 175.113 76.669 156.18 88.3823C137.247 100.096 125.8 121.236 120.56 142.869L120.353 149.449C119.213 171.889 125.12 198.002 138.14 218.002C151.333 238.269 160.007 246.669 184.047 261.209C204.46 273.582 244.433 279.022 268.3 279.596C292.167 280.169 316.68 273.062 334.633 257.316C352.587 241.569 363.027 216.702 358.813 193.202Z" fill="#94B3E2"/>
</g>
<path d="M382.21 277.107C383.122 270.822 378.767 264.987 372.481 264.074C366.196 263.162 360.361 267.518 359.448 273.803C358.536 280.088 362.891 285.923 369.177 286.836C375.462 287.748 381.297 283.393 382.21 277.107Z" fill="#68A4FF"/>
<path opacity="0.8" d="M382.21 277.107C383.122 270.822 378.767 264.987 372.481 264.074C366.196 263.162 360.361 267.518 359.448 273.803C358.536 280.088 362.891 285.923 369.177 286.836C375.462 287.748 381.297 283.393 382.21 277.107Z" fill="#94B3E2"/>
<path d="M290.107 186.966C290.325 209.926 285.32 227.481 275.093 239.632C264.867 251.784 250.867 257.939 233.093 258.099C215.227 258.272 201.024 252.388 190.487 240.446C179.949 228.504 174.567 211.055 174.34 188.099L173.953 147.726C173.731 124.855 178.736 107.299 188.967 95.0591C199.198 82.8191 213.244 76.6236 231.107 76.4724C248.884 76.2991 263.047 82.2258 273.593 94.2524C284.14 106.279 289.52 123.726 289.733 146.592L290.107 186.966ZM260.22 142.352C260.073 127.895 257.556 117.219 252.667 110.326C247.778 103.432 240.667 100.028 231.333 100.112C222.031 100.201 215.011 103.741 210.273 110.732C205.536 117.724 203.222 128.446 203.333 142.899L203.8 191.959C203.938 206.492 206.487 217.228 211.447 224.166C216.407 231.104 223.533 234.528 232.827 234.439C242.12 234.35 249.118 230.81 253.82 223.819C258.522 216.828 260.804 206.026 260.667 191.412L260.22 142.352Z" fill="#0057FF"/>
<g opacity="0.4">
<path opacity="0.4" d="M290.107 186.966C290.325 209.926 285.32 227.481 275.093 239.632C264.867 251.784 250.867 257.939 233.093 258.099C215.227 258.272 201.024 252.388 190.487 240.446C179.949 228.504 174.567 211.055 174.34 188.099L173.953 147.726C173.731 124.855 178.736 107.299 188.967 95.0591C199.198 82.8191 213.244 76.6236 231.107 76.4724C248.884 76.2991 263.047 82.2258 273.593 94.2524C284.14 106.279 289.52 123.726 289.733 146.592L290.107 186.966ZM260.22 142.352C260.073 127.895 257.556 117.219 252.667 110.326C247.778 103.432 240.667 100.028 231.333 100.112C222.031 100.201 215.011 103.741 210.273 110.732C205.536 117.724 203.222 128.446 203.333 142.899L203.8 191.959C203.938 206.492 206.487 217.228 211.447 224.166C216.407 231.104 223.533 234.528 232.827 234.439C242.12 234.35 249.118 230.81 253.82 223.819C258.522 216.828 260.804 206.026 260.667 191.412L260.22 142.352Z" fill="black"/>
</g>
<path d="M307.08 186.808C307.302 209.764 302.298 227.32 292.067 239.475C281.836 251.631 267.836 257.786 250.067 257.942C232.2 258.115 217.998 252.229 207.46 240.282C196.922 228.335 191.547 210.882 191.333 187.922L190.947 147.548C190.725 124.677 195.729 107.122 205.96 94.8818C216.191 82.6418 230.238 76.444 248.1 76.2885C265.878 76.124 280.04 82.0507 290.587 94.0685C301.133 106.086 306.493 123.542 306.667 146.435L307.08 186.808ZM277.193 142.195C277.051 127.742 274.522 117.075 269.607 110.195C264.691 103.315 257.58 99.9107 248.273 99.9818C238.971 100.075 231.951 103.615 227.213 110.602C222.476 117.588 220.173 128.313 220.307 142.775L220.78 191.828C220.922 206.366 223.471 217.104 228.427 224.042C233.382 230.98 240.509 234.404 249.807 234.315C259.1 234.222 266.098 230.682 270.8 223.695C275.502 216.708 277.782 205.904 277.64 191.282L277.193 142.195Z" fill="#0057FF"/>
<path d="M191.033 149.946C191.067 150.032 187.127 151.599 182.233 153.439C177.34 155.279 173.333 156.666 173.333 156.606C173.333 156.546 177.24 154.952 182.133 153.112C187.027 151.272 191 149.852 191.033 149.946Z" fill="#0057FF"/>
<path d="M192 165.899C192.033 165.986 188.093 167.552 183.193 169.392C178.293 171.232 174.307 172.646 174.273 172.559C174.24 172.472 178.18 170.906 183.073 169.066C187.967 167.226 192 165.806 192 165.899Z" fill="#0057FF"/>
<path d="M192.993 181.852C193.027 181.939 189.087 183.505 184.187 185.345C179.287 187.185 175.333 188.599 175.267 188.512C175.2 188.425 179.173 186.859 184.067 185.019C188.96 183.179 192.96 181.759 192.993 181.852Z" fill="#0057FF"/>
<path d="M194 197.805C194.033 197.892 190.093 199.458 185.193 201.298C180.293 203.138 176.3 204.552 176.267 204.465C176.233 204.378 180.18 202.812 185.073 200.972C189.967 199.132 193.94 197.712 194 197.805Z" fill="#0057FF"/>
<path d="M194.953 213.762C194.761 213.885 194.555 213.986 194.34 214.062C193.94 214.235 193.353 214.475 192.633 214.762C191.18 215.342 189.173 216.095 186.947 216.955C184.72 217.815 182.693 218.528 181.22 219.048C180.487 219.308 179.887 219.515 179.473 219.648C179.261 219.738 179.036 219.796 178.807 219.822C178.998 219.696 179.204 219.596 179.42 219.522C179.82 219.348 180.4 219.108 181.127 218.855C182.573 218.275 184.587 217.522 186.813 216.662C189.04 215.802 191.067 215.082 192.54 214.568C193.273 214.308 193.873 214.102 194.287 213.968C194.497 213.866 194.722 213.796 194.953 213.762V213.762Z" fill="#0057FF"/>
<path d="M199.507 228.352C198.864 228.698 198.195 228.994 197.507 229.238C196.24 229.745 194.487 230.425 192.547 231.158C190.607 231.892 188.833 232.532 187.553 232.978C186.87 233.256 186.165 233.479 185.447 233.645C186.089 233.297 186.758 233 187.447 232.758C188.707 232.245 190.46 231.565 192.407 230.838C194.353 230.112 196.113 229.465 197.4 229.018C198.082 228.737 198.787 228.514 199.507 228.352V228.352Z" fill="#0057FF"/>
<path d="M209.26 241.738C208.686 242.057 208.086 242.327 207.467 242.545C206.34 242.998 204.8 243.605 203.053 244.258C201.307 244.912 199.72 245.478 198.6 245.872C197.991 246.118 197.362 246.312 196.72 246.452C197.292 246.129 197.892 245.859 198.513 245.645C199.633 245.192 201.18 244.585 202.927 243.932C204.673 243.278 206.26 242.712 207.38 242.312C207.988 242.065 208.618 241.873 209.26 241.738V241.738Z" fill="#0057FF"/>
<path d="M225.467 250.52C224.892 250.835 224.292 251.102 223.673 251.32C222.547 251.78 221.007 252.386 219.26 253.033C217.513 253.68 215.927 254.253 214.807 254.653C214.198 254.9 213.569 255.091 212.927 255.226C213.501 254.907 214.1 254.637 214.72 254.42C215.847 253.966 217.387 253.36 219.133 252.706C220.88 252.053 222.467 251.486 223.587 251.093C224.194 250.842 224.823 250.65 225.467 250.52V250.52Z" fill="#0057FF"/>
<path d="M274.347 216.475C274.387 216.562 269.327 218.922 263.047 221.748C256.767 224.575 251.64 226.788 251.6 226.702C251.56 226.615 256.62 224.255 262.933 221.428C269.247 218.602 274.307 216.388 274.347 216.475Z" fill="#0057FF"/>
<path d="M277.667 202.804C277.707 202.89 273.527 204.85 268.333 207.184C263.14 209.517 258.9 211.344 258.86 211.257C258.82 211.17 262.993 209.204 268.193 206.87C273.393 204.537 277.627 202.717 277.667 202.804Z" fill="#0057FF"/>
<path d="M279.193 187.455C279.233 187.541 275.053 189.501 269.86 191.835C264.667 194.168 260.427 195.995 260.387 195.908C260.347 195.821 264.52 193.855 269.72 191.521C274.92 189.188 279.153 187.335 279.193 187.455Z" fill="#0057FF"/>
<path d="M280.72 172.093C280.76 172.18 276.587 174.147 271.387 176.48C266.187 178.813 261.953 180.633 261.913 180.547C261.873 180.46 266.053 178.5 271.247 176.167C276.44 173.833 280.667 172 280.72 172.093Z" fill="#0057FF"/>
<path d="M282.253 156.74C282.287 156.827 278.113 158.794 272.92 161.127C267.727 163.46 263.487 165.28 263.447 165.194C263.407 165.107 267.587 163.147 272.78 160.807C277.973 158.467 282.213 156.667 282.253 156.74Z" fill="#0057FF"/>
<path d="M279.193 143.065C279.233 143.152 275.053 145.119 269.86 147.452C264.667 149.785 260.427 151.605 260.387 151.519C260.347 151.432 264.52 149.465 269.72 147.132C274.92 144.799 279.153 142.979 279.193 143.065Z" fill="#0057FF"/>
<path d="M279.193 128.347C279.233 128.433 275.053 130.4 269.86 132.733C264.667 135.067 260.427 136.887 260.387 136.8C260.347 136.713 264.52 134.747 269.72 132.413C274.92 130.08 279.153 128.26 279.193 128.347Z" fill="#0057FF"/>
<path d="M277.667 114.483C277.707 114.57 273.527 116.53 268.333 118.863C263.14 121.197 258.9 123.023 258.86 122.937C258.82 122.85 262.993 120.883 268.193 118.55C273.393 116.217 277.627 114.397 277.667 114.483Z" fill="#0057FF"/>
<path d="M264.5 104.824C262.669 105.838 260.784 106.751 258.853 107.558C256.968 108.468 255.034 109.273 253.06 109.971C254.888 108.952 256.773 108.039 258.707 107.238C260.592 106.327 262.526 105.522 264.5 104.824V104.824Z" fill="#0057FF"/>
<path d="M257.46 98.9102C255.628 99.9188 253.743 100.829 251.813 101.637C249.928 102.547 247.994 103.353 246.02 104.05C247.851 103.041 249.736 102.133 251.667 101.33C253.552 100.418 255.486 99.6098 257.46 98.9102Z" fill="#0057FF"/>
<path d="M191.787 130.605C191.82 130.692 187.88 132.259 182.987 134.099C178.093 135.939 174.093 137.359 174.06 137.265C174.027 137.172 177.967 135.612 182.867 133.772C187.767 131.932 191.753 130.519 191.787 130.605Z" fill="#0057FF"/>
<path d="M196.667 110.711C196.707 110.798 192.427 112.484 187.127 114.484C181.827 116.484 177.487 118.018 177.453 117.931C177.42 117.844 181.693 116.151 187 114.158C192.307 112.164 196.667 110.618 196.667 110.711Z" fill="#0057FF"/>
<path d="M209.513 91.0184C209.547 91.1117 204.127 93.2251 197.407 95.7517C190.687 98.2784 185.213 100.252 185.18 100.165C185.147 100.078 190.567 97.9517 197.287 95.425C204.007 92.8984 209.48 90.9317 209.513 91.0184Z" fill="#0057FF"/>
<path d="M304.207 216.667L303.927 216.573L303.127 216.26C302.773 216.133 302.313 216.033 301.793 215.887C301.171 215.765 300.54 215.687 299.907 215.653C297.06 215.473 292.793 216.507 288.667 219.6C286.433 221.292 284.431 223.272 282.713 225.487C280.8 227.827 278.927 230.473 276.8 233.14C274.636 236 272.046 238.512 269.12 240.587C265.917 242.747 262.297 244.214 258.493 244.893C254.689 245.578 250.784 245.449 247.033 244.513C243.572 243.605 240.209 242.357 236.993 240.787C233.893 239.353 230.993 237.893 228.233 236.687C225.667 235.553 223.002 234.654 220.273 234C218.023 233.468 215.719 233.204 213.407 233.213C211.662 233.227 209.926 233.462 208.24 233.913C207.18 234.224 206.149 234.628 205.16 235.12L204.4 235.52C204.316 235.572 204.227 235.614 204.133 235.647L204.38 235.493L205.127 235.06C206.107 234.536 207.137 234.11 208.2 233.787C209.893 233.309 211.641 233.051 213.4 233.02C215.73 232.99 218.056 233.238 220.327 233.76C223.068 234.406 225.746 235.298 228.327 236.427C231.113 237.627 234.013 239.093 237.107 240.507C240.31 242.061 243.66 243.294 247.107 244.187C250.815 245.113 254.679 245.24 258.44 244.56C262.197 243.888 265.772 242.442 268.94 240.313C271.844 238.262 274.416 235.778 276.567 232.947C278.693 230.28 280.567 227.653 282.507 225.307C284.239 223.085 286.257 221.102 288.507 219.407C292.693 216.313 297.02 215.3 299.9 215.527C300.541 215.569 301.178 215.655 301.807 215.787C302.34 215.953 302.8 216.06 303.14 216.2L303.933 216.547L304.207 216.667Z" fill="#94B3E2"/>
<path d="M308.413 172.2C308.413 172.233 307.94 172.293 307.113 172.567C305.964 172.987 304.88 173.568 303.893 174.293C302.627 175.18 301.227 176.42 299.62 177.7C297.847 179.083 295.926 180.266 293.893 181.227C290.204 182.995 286.205 184.028 282.12 184.267C281.34 184.333 280.627 184.313 280.007 184.327C279.387 184.34 278.853 184.287 278.42 184.253L277.413 184.153C277.298 184.151 277.183 184.131 277.073 184.093C277.188 184.077 277.305 184.077 277.42 184.093L278.427 184.127H280.007C280.627 184.093 281.34 184.127 282.1 184.02C286.141 183.708 290.089 182.653 293.747 180.907C295.756 179.952 297.659 178.79 299.427 177.44C301.047 176.187 302.453 174.953 303.76 174.107C304.778 173.385 305.903 172.828 307.093 172.453C307.417 172.361 307.747 172.29 308.08 172.24C308.188 172.209 308.301 172.196 308.413 172.2V172.2Z" fill="#94B3E2"/>
<path d="M221.333 187.644C221.212 187.638 221.091 187.62 220.973 187.59C220.733 187.537 220.38 187.484 219.933 187.357C218.681 186.987 217.481 186.46 216.36 185.79C214.716 184.781 213.156 183.642 211.693 182.384C210.02 180.997 208.233 179.417 206.187 178.004C204.276 176.653 202.13 175.67 199.86 175.104C196.74 174.336 193.48 174.35 190.367 175.144C189.48 175.37 189 175.544 188.993 175.51C189.096 175.443 189.209 175.391 189.327 175.357C189.553 175.27 189.887 175.137 190.333 175.01C191.582 174.645 192.868 174.421 194.167 174.344C196.102 174.201 198.047 174.36 199.933 174.817C202.247 175.378 204.434 176.371 206.38 177.744C208.453 179.177 210.24 180.77 211.9 182.164C213.34 183.426 214.874 184.578 216.487 185.61C217.584 186.287 218.754 186.84 219.973 187.257C220.433 187.362 220.887 187.491 221.333 187.644V187.644Z" fill="#94B3E2"/>
<path d="M221.447 124.628C221.088 124.795 220.715 124.931 220.333 125.035C219.896 125.189 219.451 125.32 219 125.428C218.473 125.561 217.88 125.741 217.207 125.861C216.533 125.981 215.807 126.148 215.007 126.248C214.207 126.348 213.36 126.441 212.46 126.521C210.505 126.645 208.544 126.621 206.593 126.448C204.644 126.253 202.712 125.912 200.813 125.428C199.947 125.181 199.113 124.955 198.36 124.681C197.607 124.408 196.9 124.155 196.273 123.895C195.647 123.635 195.087 123.361 194.593 123.135C194.1 122.908 193.693 122.688 193.36 122.501C193.007 122.325 192.668 122.122 192.347 121.895C192.716 122.031 193.074 122.193 193.42 122.381C193.76 122.548 194.18 122.755 194.673 122.961C195.167 123.168 195.727 123.435 196.367 123.661C197.007 123.888 197.7 124.175 198.453 124.408C199.207 124.641 200.027 124.881 200.893 125.115C204.664 126.065 208.558 126.432 212.44 126.201C213.333 126.128 214.18 126.081 214.973 125.961C215.767 125.841 216.493 125.741 217.16 125.621C217.827 125.501 218.42 125.355 218.947 125.241C219.473 125.128 219.927 125.008 220.28 124.908C220.662 124.787 221.052 124.693 221.447 124.628V124.628Z" fill="#94B3E2"/>
<path d="M304.627 124.458C304.528 124.422 304.435 124.375 304.347 124.318L303.573 123.872C303.172 123.627 302.758 123.405 302.333 123.205C301.785 122.911 301.222 122.646 300.647 122.412L299.647 121.992C299.293 121.852 298.92 121.745 298.533 121.612C297.773 121.332 296.927 121.138 296.04 120.905C292.164 120.023 288.144 119.989 284.253 120.805C283.407 120.984 282.57 121.207 281.747 121.472C281.36 121.598 280.98 121.698 280.627 121.832L279.62 122.232C279.041 122.458 278.473 122.714 277.92 122.998C277.491 123.194 277.074 123.416 276.673 123.665L275.887 124.098C275.707 124.192 275.607 124.238 275.6 124.225C275.676 124.152 275.761 124.089 275.853 124.038L276.6 123.545C276.995 123.282 277.407 123.046 277.833 122.838C278.381 122.531 278.946 122.257 279.527 122.018L280.533 121.592C280.887 121.452 281.273 121.345 281.66 121.212C282.489 120.932 283.332 120.698 284.187 120.512C288.12 119.649 292.197 119.685 296.113 120.618C297.007 120.858 297.86 121.065 298.627 121.358C299.013 121.498 299.393 121.612 299.74 121.765L300.747 122.205C301.321 122.459 301.881 122.741 302.427 123.052C302.847 123.269 303.252 123.514 303.64 123.785L304.387 124.292C304.553 124.378 304.667 124.445 304.627 124.458Z" fill="#94B3E2"/>
<path d="M263.867 79.1719C263.717 79.2852 263.556 79.3834 263.387 79.4652L262 80.2319C260.767 80.8985 258.98 81.8252 256.74 82.9452C252.273 85.1519 246 88.1719 238.573 90.0519C235.082 90.9295 231.505 91.4258 227.907 91.5319C224.97 91.6177 222.033 91.3649 219.153 90.7785C217.213 90.3889 215.315 89.8106 213.487 89.0519C212.82 88.7985 212.36 88.5319 212.027 88.3852C211.854 88.3109 211.687 88.224 211.527 88.1252C211.709 88.1725 211.886 88.2395 212.053 88.3252C212.4 88.4519 212.88 88.6985 213.54 88.9319C215.374 89.6384 217.269 90.1784 219.2 90.5452C222.066 91.0927 224.984 91.3163 227.9 91.2119C231.47 91.0879 235.016 90.5851 238.48 89.7119C245.86 87.8452 252.14 84.8785 256.627 82.7252L261.96 80.1052L263.333 79.3985C263.506 79.3115 263.684 79.2357 263.867 79.1719Z" fill="#94B3E2"/>
<path d="M130.04 195.333L152.327 196.307L151.293 219.927L129.007 218.953L127.293 258.2L97.96 256.92L99.6733 217.673L24 214.367L24.06 196.367L104.727 80.5L135.007 81.8333L130.04 195.333ZM53.3733 192L100.707 194.067L103.827 122.48L103.113 122.207L100.447 127.307L53.3733 192Z" fill="#0057FF"/>
<g opacity="0.4">
<path opacity="0.4" d="M130.04 195.333L152.327 196.307L151.293 219.927L129.007 218.953L127.293 258.2L97.96 256.92L99.6733 217.673L24 214.367L24.06 196.367L104.727 80.5L135.007 81.8333L130.04 195.333ZM53.3733 192L100.707 194.067L103.827 122.48L103.113 122.207L100.447 127.307L53.3733 192Z" fill="black"/>
</g>
<path d="M148.667 196.145L170.953 197.119L169.92 220.739L147.633 219.765L145.92 259.012L116.587 257.732L118.3 218.485L42.5934 215.152L42.6534 197.152L123.333 81.332L153.62 82.6654L148.667 196.145ZM72.0001 192.812L119.367 194.879L122.487 123.292L121.773 123.019L119.107 128.119L72.0001 192.812Z" fill="#0057FF"/>
<path d="M43.06 200.613C42.8361 200.776 42.5946 200.912 42.34 201.02C41.8667 201.26 41.1734 201.593 40.34 201.993C38.6267 202.8 36.2334 203.873 33.56 205.007C30.8867 206.14 28.4534 207.1 26.68 207.773C25.7934 208.107 25.0667 208.367 24.5667 208.54C24.3108 208.646 24.0451 208.726 23.7734 208.78C24.0073 208.629 24.2578 208.506 24.52 208.413L26.5867 207.54L33.4 204.667L40.2134 201.753L42.2867 200.873C42.535 200.76 42.7941 200.673 43.06 200.613Z" fill="#0057FF"/>
<path d="M53.9134 180.668C53.5903 180.866 53.2539 181.042 52.9067 181.195C52.24 181.515 51.2934 181.968 50.1067 182.528C47.7267 183.608 44.4267 185.055 40.7734 186.608C37.12 188.161 33.74 189.488 31.3334 190.435C30.12 190.915 29.1334 191.288 28.44 191.535C28.0916 191.684 27.7301 191.8 27.36 191.881C27.693 191.7 28.0383 191.541 28.3934 191.408L31.24 190.208L40.6467 186.255L50.0334 182.255L52.88 181.048C53.2119 180.889 53.5578 180.762 53.9134 180.668V180.668Z" fill="#0057FF"/>
<path d="M67.16 162.848C66.8246 163.055 66.4722 163.233 66.1067 163.381C65.44 163.701 64.42 164.154 63.18 164.714C60.6934 165.801 57.2467 167.248 53.42 168.801C49.5934 170.354 46.0867 171.708 43.56 172.661C42.2934 173.134 41.26 173.508 40.5467 173.754C40.1825 173.904 39.8054 174.02 39.42 174.101C39.7694 173.92 40.1301 173.762 40.5 173.628L43.4734 172.428L53.2867 168.474L63.08 164.474L66.0534 163.268C66.4109 163.099 66.7809 162.959 67.16 162.848V162.848Z" fill="#0057FF"/>
<path d="M120.22 183.406C119.993 183.563 119.749 183.695 119.493 183.8C119.02 184.033 118.327 184.353 117.46 184.74C115.74 185.52 113.34 186.553 110.667 187.64C107.993 188.726 105.547 189.64 103.773 190.306C102.88 190.626 102.16 190.88 101.66 191.046C101.403 191.144 101.137 191.218 100.867 191.266C101.099 191.122 101.347 191.006 101.607 190.92L103.687 190.08L110.54 187.333L117.367 184.533L119.44 183.686C119.689 183.565 119.951 183.471 120.22 183.406V183.406Z" fill="#0057FF"/>
<path d="M118.06 220.035C117.842 220.192 117.607 220.324 117.36 220.429C116.9 220.655 116.227 220.982 115.393 221.368C113.727 222.148 111.393 223.182 108.813 224.262C106.233 225.342 103.847 226.262 102.147 226.929C101.28 227.249 100.58 227.502 100.093 227.662C99.8447 227.766 99.5853 227.842 99.32 227.888C99.546 227.744 99.7875 227.625 100.04 227.535L102.04 226.695L108.707 223.955L115.32 221.155L117.32 220.315C117.556 220.196 117.804 220.102 118.06 220.035Z" fill="#0057FF"/>
<path d="M117.753 232.871C117.546 233.025 117.323 233.154 117.087 233.258C116.627 233.491 115.953 233.811 115.087 234.204C113.42 234.978 111.087 236.011 108.5 237.098C105.913 238.184 103.54 239.098 101.833 239.764C100.973 240.084 100.273 240.338 99.78 240.504C99.5352 240.611 99.2774 240.685 99.0134 240.724C99.2415 240.586 99.4826 240.47 99.7334 240.378L101.733 239.538L108.4 236.798L115.02 233.998L117.02 233.158C117.252 233.032 117.498 232.936 117.753 232.871V232.871Z" fill="#0057FF"/>
<path d="M117.447 245.707C117.238 245.86 117.015 245.992 116.78 246.1C116.32 246.334 115.647 246.654 114.78 247.04C113.107 247.82 110.78 248.854 108.193 249.934C105.607 251.014 103.233 251.934 101.527 252.6C100.667 252.92 99.9601 253.174 99.4734 253.334C99.2265 253.436 98.9695 253.512 98.7067 253.56C98.9325 253.415 99.174 253.297 99.4267 253.207L101.427 252.374L108.093 249.627L114.713 246.827L116.713 245.987C116.947 245.867 117.193 245.773 117.447 245.707V245.707Z" fill="#0057FF"/>
<path d="M120.567 169.848C120.338 170.002 120.094 170.133 119.84 170.241C119.367 170.474 118.673 170.794 117.84 171.181C116.12 171.961 113.72 172.994 111.047 174.081C108.373 175.168 105.927 176.081 104.153 176.748C103.26 177.068 102.54 177.321 102.04 177.481C101.784 177.583 101.518 177.659 101.247 177.708C101.477 177.559 101.726 177.44 101.987 177.354L104.067 176.514L110.92 173.774L117.747 170.974L119.82 170.134C120.058 170.013 120.308 169.916 120.567 169.848V169.848Z" fill="#0057FF"/>
<path d="M120.913 156.285C120.684 156.439 120.441 156.571 120.187 156.678C119.713 156.905 119.02 157.232 118.153 157.618C116.433 158.398 114.033 159.432 111.36 160.512C108.687 161.592 106.247 162.512 104.467 163.178C103.573 163.498 102.853 163.745 102.353 163.912C102.097 164.014 101.831 164.09 101.56 164.138C101.793 163.989 102.044 163.871 102.307 163.785L104.38 162.945L111.233 160.205L118.06 157.405L120.133 156.565C120.382 156.443 120.644 156.35 120.913 156.285Z" fill="#0057FF"/>
<path d="M121.26 142.727C121.051 142.873 120.828 142.998 120.593 143.1C120.147 143.32 119.487 143.627 118.667 144C117.02 144.747 114.74 145.74 112.193 146.767C109.647 147.793 107.313 148.68 105.62 149.287C104.773 149.587 104.087 149.827 103.62 149.953C103.375 150.052 103.121 150.124 102.86 150.167C103.084 150.026 103.323 149.912 103.573 149.827L105.573 149.027L112.1 146.42L118.607 143.753L120.607 142.953C120.815 142.853 121.034 142.777 121.26 142.727V142.727Z" fill="#0057FF"/>
<path d="M122.793 130.051C121.729 130.627 120.613 131.102 119.46 131.471C118.344 131.946 117.185 132.314 116 132.571C117.064 131.993 118.18 131.515 119.333 131.144C120.449 130.669 121.607 130.303 122.793 130.051V130.051Z" fill="#0057FF"/>
<path d="M80.3801 144.395C80.0439 144.596 79.6942 144.774 79.3334 144.928C78.6667 145.248 77.6467 145.695 76.4001 146.261C73.9201 147.348 70.4734 148.795 66.6401 150.348C62.8067 151.901 59.3067 153.261 56.7867 154.208C55.5201 154.681 54.4867 155.055 53.7734 155.301C53.4063 155.444 53.0298 155.562 52.6467 155.655C52.9923 155.464 53.3536 155.303 53.7267 155.175L56.7001 153.981L66.5134 150.001L76.3067 146.001L79.2734 144.795C79.633 144.637 80.0027 144.503 80.3801 144.395V144.395Z" fill="#0057FF"/>
<path d="M93.6068 125.934C93.2713 126.141 92.9189 126.319 92.5534 126.467C91.8868 126.787 90.8668 127.24 89.6268 127.8C87.1468 128.88 83.6934 130.334 79.8668 131.88C76.0401 133.427 72.5334 134.794 70.0134 135.74C68.7401 136.22 67.7134 136.594 66.9934 136.84C66.6308 136.988 66.2561 137.104 65.8734 137.187C66.2191 137.003 66.5779 136.845 66.9467 136.714L69.9201 135.514L79.7334 131.56L89.5334 127.56L92.5001 126.347C92.8583 126.182 93.2282 126.044 93.6068 125.934V125.934Z" fill="#0057FF"/>
<path d="M105.827 107.48C105.489 107.683 105.137 107.861 104.773 108.014C104.107 108.334 103.087 108.78 101.847 109.347C99.3667 110.434 95.9134 111.88 92.0867 113.434C88.2601 114.987 84.7534 116.347 82.2334 117.294C80.9667 117.767 79.9334 118.14 79.2201 118.387C78.8529 118.53 78.4765 118.648 78.0934 118.74C78.439 118.55 78.8003 118.389 79.1734 118.26L82.1467 117.067L91.9601 113.114L101.753 109.114L104.72 107.907C105.076 107.733 105.446 107.59 105.827 107.48V107.48Z" fill="#0057FF"/>
<path d="M118.547 89.7305C118.208 89.931 117.856 90.1092 117.493 90.2638C116.827 90.5838 115.807 91.0305 114.567 91.5971C112.08 92.6838 108.633 94.1305 104.807 95.6838C100.98 97.2371 97.4734 98.5971 94.9468 99.5438C93.6801 100.017 92.6534 100.39 91.9334 100.637C91.5671 100.783 91.1905 100.901 90.8068 100.99C91.1532 100.802 91.5144 100.641 91.8868 100.51L94.8601 99.3171L104.667 95.3305L114.46 91.3305L117.433 90.1238C117.794 89.9654 118.166 89.834 118.547 89.7305V89.7305Z" fill="#0057FF"/>
<path d="M152.293 116.847C152.182 117.008 152.052 117.156 151.907 117.287C151.53 117.701 151.127 118.091 150.7 118.454C149.145 119.811 147.4 120.934 145.52 121.787C142.716 123.047 139.687 123.727 136.613 123.787C134.797 123.821 132.984 123.617 131.22 123.18C129.337 122.698 127.511 122.016 125.773 121.147C122.187 119.4 119 117.34 115.887 115.907C113.158 114.569 110.188 113.794 107.153 113.627C105.109 113.522 103.069 113.904 101.2 114.74C100.696 114.976 100.213 115.253 99.7533 115.567C99.5966 115.683 99.4317 115.788 99.26 115.88C99.4022 115.748 99.5537 115.625 99.7133 115.514C100.161 115.174 100.639 114.875 101.14 114.62C103.01 113.727 105.069 113.302 107.14 113.38C110.217 113.526 113.233 114.3 116 115.654C119.147 117.087 122.347 119.14 125.9 120.874C127.621 121.726 129.426 122.396 131.287 122.874C133.02 123.306 134.801 123.512 136.587 123.487C141.705 123.417 146.645 121.598 150.587 118.334C151.153 117.88 151.553 117.48 151.833 117.22C151.977 117.084 152.13 116.959 152.293 116.847Z" fill="#94B3E2"/>
<path d="M143.013 83.8867C142.745 84.0733 142.461 84.2383 142.167 84.3801C141.613 84.6801 140.787 85.0467 139.747 85.5134C138.528 86.0261 137.281 86.4712 136.013 86.8467C132.907 87.7741 129.694 88.2984 126.453 88.4067C125.12 88.4553 123.784 88.4286 122.453 88.3267C121.327 88.2401 120.453 88.1334 119.787 88.0201C119.462 87.9836 119.14 87.9189 118.827 87.8267C119.154 87.8153 119.483 87.8354 119.807 87.8867C120.427 87.9601 121.333 88.0267 122.473 88.08C123.613 88.1334 124.933 88.1467 126.413 88.08C128.016 88.0006 129.614 87.8359 131.2 87.5867C132.773 87.3165 134.33 86.9649 135.867 86.5334C137.287 86.1201 138.533 85.6934 139.593 85.28C140.653 84.8667 141.473 84.5134 142.047 84.2534C142.356 84.1007 142.68 83.9779 143.013 83.8867V83.8867Z" fill="#94B3E2"/>
<path d="M95.6801 157.925C95.4603 157.722 95.2595 157.499 95.0801 157.259L93.5067 155.379C91.7507 153.335 89.8858 151.388 87.9201 149.545C86.8528 148.533 85.6793 147.639 84.4201 146.879C83.39 146.262 82.2629 145.825 81.0867 145.585C79.9954 145.39 78.8781 145.39 77.7867 145.585C77.7867 145.585 77.8601 145.545 78.0067 145.499C78.2237 145.427 78.4469 145.376 78.6734 145.345C79.4921 145.208 80.328 145.208 81.1467 145.345C82.3615 145.557 83.5288 145.983 84.5934 146.605C85.8876 147.368 87.089 148.279 88.1734 149.319C90.1533 151.166 92.0022 153.148 93.7067 155.252C94.3734 156.059 94.8667 156.732 95.2001 157.199C95.3855 157.423 95.5464 157.667 95.6801 157.925V157.925Z" fill="#94B3E2"/>
<path d="M148.86 178.065C148.86 178.065 148.773 178.145 148.6 178.265C148.427 178.385 148.167 178.578 147.807 178.778C146.806 179.365 145.755 179.863 144.667 180.265C141.061 181.626 137.144 181.939 133.369 181.166C129.593 180.393 126.114 178.567 123.333 175.898C122.49 175.107 121.723 174.238 121.04 173.305C120.793 172.978 120.633 172.705 120.513 172.525C120.393 172.345 120.34 172.245 120.353 172.238C120.635 172.553 120.9 172.882 121.147 173.225C121.867 174.114 122.654 174.948 123.5 175.718C126.283 178.29 129.716 180.052 133.428 180.812C137.141 181.572 140.99 181.302 144.56 180.032C145.641 179.657 146.691 179.198 147.7 178.658C148.076 178.44 148.463 178.241 148.86 178.065Z" fill="#94B3E2"/>
<path d="M168.28 220.28C168.28 220.28 168.213 220.18 168.093 219.967C167.973 219.753 167.787 219.447 167.56 219.047C166.891 217.861 166.129 216.731 165.28 215.667L164.373 214.6L163.887 214.02L163.32 213.467L162.12 212.28L160.72 211.12C158.484 209.343 156.017 207.879 153.387 206.767C150.211 205.424 146.829 204.637 143.387 204.44C139.425 204.227 135.463 204.864 131.767 206.307C127.867 207.84 124.1 210.153 120.113 212.393C118.094 213.56 116.003 214.598 113.853 215.5C111.625 216.438 109.275 217.055 106.873 217.333C104.47 217.575 102.043 217.429 99.6867 216.9C97.4054 216.398 95.1857 215.649 93.0667 214.667C89.0973 212.746 85.3202 210.451 81.7867 207.813C78.3667 205.38 75.12 203.027 71.9133 201.147C68.9652 199.341 65.7693 197.976 62.4267 197.093C59.6569 196.411 56.7888 196.222 53.9533 196.533C51.8126 196.756 49.7288 197.358 47.8 198.313C46.5934 198.931 45.4728 199.705 44.4667 200.613L43.6933 201.333C43.5267 201.5 43.4333 201.58 43.4333 201.58C43.4333 201.58 43.5067 201.487 43.6734 201.307L44.4 200.527C45.3999 199.592 46.5211 198.796 47.7333 198.16C49.6715 197.174 51.7719 196.546 53.9333 196.307C56.7924 195.971 59.6883 196.145 62.4867 196.82C65.856 197.698 69.0805 199.058 72.06 200.86C75.3067 202.74 78.5467 205.087 81.9733 207.527C85.4937 210.144 89.2551 212.421 93.2067 214.327C95.3006 215.309 97.4959 216.057 99.7533 216.56C102.078 217.08 104.47 217.224 106.84 216.987C109.204 216.713 111.518 216.107 113.713 215.187C115.85 214.288 117.929 213.259 119.94 212.107C123.94 209.873 127.7 207.553 131.633 206.013C132.604 205.632 133.597 205.312 134.607 205.053C135.107 204.927 135.6 204.773 136.093 204.673L137.587 204.427C139.506 204.141 141.449 204.051 143.387 204.16C146.87 204.368 150.291 205.175 153.5 206.547C156.132 207.686 158.599 209.175 160.833 210.973C161.313 211.38 161.78 211.78 162.233 212.153L163.427 213.36L163.987 213.92C164.153 214.12 164.32 214.313 164.473 214.507C164.793 214.887 165.093 215.247 165.373 215.593C166.215 216.669 166.963 217.815 167.607 219.02C167.824 219.429 167.991 219.742 168.107 219.96C168.233 220.167 168.28 220.28 168.28 220.28Z" fill="#94B3E2"/>
<path d="M148.133 248.126C148.024 248.17 147.91 248.199 147.793 248.212L146.807 248.399C146.289 248.504 145.766 248.582 145.24 248.632C144.627 248.692 143.907 248.792 143.147 248.812L141.92 248.866C141.5 248.866 141.053 248.866 140.587 248.866C139.673 248.866 138.693 248.779 137.667 248.699C135.442 248.456 133.241 248.028 131.087 247.419C128.943 246.774 126.856 245.953 124.847 244.966C123.94 244.479 123.067 244.032 122.293 243.532C121.907 243.292 121.52 243.072 121.167 242.866L120.167 242.166C119.5 241.732 118.987 241.272 118.5 240.886C118.079 240.563 117.677 240.218 117.293 239.852C117.007 239.572 116.76 239.346 116.567 239.186C116.476 239.109 116.396 239.022 116.327 238.926C116.43 238.983 116.526 239.053 116.613 239.132L117.387 239.799C117.713 240.079 118.12 240.419 118.62 240.779C119.12 241.139 119.653 241.592 120.307 242.012L121.313 242.679C121.667 242.912 122.053 243.126 122.44 243.346C123.213 243.832 124.087 244.266 124.993 244.739C128.981 246.705 133.281 247.957 137.7 248.439C138.72 248.526 139.7 248.632 140.6 248.639C141.053 248.639 141.493 248.679 141.933 248.639H143.147C143.92 248.639 144.62 248.552 145.233 248.512C145.847 248.472 146.373 248.406 146.8 248.339L147.793 248.219C147.901 248.171 148.016 248.14 148.133 248.126Z" fill="#94B3E2"/>
<path d="M419.547 195.606L441.747 193.439L444.047 216.966L421.847 219.139L425.667 258.232L396.467 261.092L392.667 221.999L317.227 229.372L314.753 211.552L378.32 85.4924L408.487 82.5391L419.547 195.606ZM343.16 203.079L390.34 198.466L383.367 127.132L382.62 126.966L380.713 132.392L343.16 203.079Z" fill="#0057FF"/>
<g opacity="0.4">
<path opacity="0.4" d="M419.547 195.606L441.747 193.439L444.047 216.966L421.847 219.139L425.667 258.232L396.467 261.092L392.667 221.999L317.227 229.372L314.753 211.552L378.32 85.4924L408.487 82.5391L419.547 195.606ZM343.16 203.079L390.34 198.466L383.367 127.132L382.62 126.966L380.713 132.392L343.16 203.079Z" fill="black"/>
</g>
<path d="M438.113 193.793L460.313 191.62L462.62 215.153L440.413 217.333L444.24 256.433L415.033 259.287L411.213 220.193L335.793 227.553L333.333 209.74L396.9 83.6799L427.067 80.7266L438.113 193.793ZM361.733 201.26L408.913 196.667L401.94 125.333L401.187 125.16L399.287 130.587L361.733 201.26Z" fill="#0057FF"/>
<path d="M334.173 213.074C333.969 213.264 333.746 213.431 333.507 213.574C333.073 213.881 332.433 214.308 331.64 214.828C330.047 215.868 327.833 217.268 325.347 218.761C322.86 220.254 320.587 221.554 318.92 222.468C318.093 222.921 317.413 223.288 316.92 223.528C316.681 223.669 316.429 223.785 316.167 223.874C316.369 223.692 316.593 223.536 316.833 223.408L318.76 222.254L325.133 218.461L331.467 214.621L333.393 213.461C333.637 213.302 333.899 213.172 334.173 213.074V213.074Z" fill="#0057FF"/>
<path d="M342.107 191.777C341.818 192.023 341.51 192.246 341.187 192.444C340.587 192.851 339.7 193.431 338.6 194.137C336.4 195.544 333.333 197.471 329.933 199.471C326.533 201.471 323.4 203.344 321.127 204.624C319.993 205.291 319.067 205.777 318.42 206.117C318.092 206.308 317.752 206.475 317.4 206.617C317.701 206.385 318.019 206.178 318.353 205.997L321.02 204.411L329.773 199.177L338.5 193.904L341.167 192.311C341.466 192.109 341.78 191.931 342.107 191.777V191.777Z" fill="#0057FF"/>
<path d="M352.72 172.293C352.415 172.54 352.092 172.763 351.753 172.96C351.087 173.373 350.193 173.96 349.04 174.673C346.733 176.093 343.52 178.006 339.947 180.086C336.373 182.166 333.113 184 330.733 185.333C329.547 186 328.58 186.5 327.907 186.846C327.564 187.04 327.208 187.207 326.84 187.346C327.157 187.115 327.492 186.908 327.84 186.726L330.613 185.12L339.773 179.826L348.913 174.493L351.68 172.88C352.011 172.658 352.359 172.462 352.72 172.293V172.293Z" fill="#0057FF"/>
<path d="M408.147 185.184C407.943 185.37 407.719 185.533 407.48 185.67C407.047 185.97 406.4 186.384 405.607 186.89C404.007 187.904 401.78 189.264 399.287 190.717C396.793 192.17 394.5 193.424 392.827 194.304C391.993 194.75 391.313 195.097 390.827 195.33C390.588 195.468 390.336 195.58 390.073 195.664C390.279 195.489 390.502 195.337 390.74 195.21L392.68 194.09L399.073 190.41L405.44 186.684L407.38 185.557C407.621 185.404 407.878 185.278 408.147 185.184Z" fill="#0057FF"/>
<path d="M411.16 221.746C410.958 221.935 410.734 222.098 410.493 222.233C410.073 222.526 409.453 222.939 408.68 223.446C407.14 224.446 404.987 225.799 402.573 227.239C400.16 228.679 397.94 229.906 396.32 230.799C395.513 231.239 394.853 231.586 394.393 231.819C394.163 231.957 393.917 232.067 393.66 232.146C393.866 231.974 394.089 231.824 394.327 231.699L396.2 230.586L402.393 226.939L408.553 223.233L410.427 222.119C410.655 221.966 410.901 221.841 411.16 221.746V221.746Z" fill="#0057FF"/>
<path d="M412.667 234.5C412.465 234.689 412.241 234.852 412 234.987C411.58 235.28 410.96 235.693 410.187 236.2C408.647 237.2 406.493 238.553 404.08 239.987C401.667 241.42 399.447 242.653 397.827 243.553C397.02 243.993 396.36 244.34 395.9 244.573C395.67 244.711 395.423 244.821 395.167 244.9C395.373 244.728 395.596 244.578 395.833 244.453L397.707 243.34L403.9 239.693L410.06 235.987L411.933 234.873C412.162 234.72 412.408 234.594 412.667 234.5V234.5Z" fill="#0057FF"/>
<path d="M414.16 247.254C413.958 247.442 413.734 247.606 413.493 247.741C413.073 248.034 412.453 248.447 411.68 248.947C410.14 249.954 407.987 251.307 405.573 252.741C403.16 254.174 400.94 255.407 399.32 256.307C398.513 256.747 397.853 257.094 397.393 257.327C397.161 257.461 396.915 257.571 396.66 257.654C396.866 257.482 397.089 257.332 397.327 257.207L399.2 256.094L405.393 252.447L411.553 248.741L413.427 247.627C413.655 247.474 413.901 247.348 414.16 247.254V247.254Z" fill="#0057FF"/>
<path d="M406.58 171.707C406.375 171.894 406.152 172.059 405.913 172.2C405.473 172.494 404.833 172.914 404.033 173.42C402.433 174.427 400.207 175.794 397.713 177.24C395.22 178.687 392.927 179.947 391.26 180.834C390.42 181.274 389.74 181.627 389.26 181.86C389.022 181.998 388.769 182.11 388.507 182.194C388.713 182.021 388.937 181.869 389.173 181.74L391.107 180.62L397.507 176.94L403.873 173.207L405.807 172.087C406.05 171.933 406.31 171.806 406.58 171.707V171.707Z" fill="#0057FF"/>
<path d="M405.013 158.23C404.81 158.419 404.587 158.585 404.347 158.724C403.907 159.017 403.267 159.43 402.467 159.937C400.873 160.95 398.647 162.317 396.147 163.764C393.647 165.21 391.367 166.47 389.693 167.357C388.86 167.797 388.18 168.15 387.693 168.384C387.457 168.524 387.204 168.634 386.94 168.71C387.145 168.537 387.369 168.388 387.607 168.264L389.54 167.137L395.94 163.464L402.307 159.73L404.24 158.604C404.484 158.453 404.744 158.328 405.013 158.23V158.23Z" fill="#0057FF"/>
<path d="M403.453 144.762C403.263 144.941 403.053 145.097 402.827 145.228C402.407 145.515 401.793 145.895 401.033 146.395C399.52 147.362 397.4 148.662 395.033 150.042C392.667 151.422 390.473 152.622 388.88 153.462L386.98 154.435C386.752 154.566 386.511 154.671 386.26 154.748C386.467 154.582 386.691 154.437 386.927 154.315L388.767 153.242L394.867 149.742L400.927 146.182L402.773 145.115C402.986 144.972 403.214 144.854 403.453 144.762V144.762Z" fill="#0057FF"/>
<path d="M403.187 132C402.214 132.725 401.174 133.355 400.08 133.88C399.039 134.505 397.944 135.034 396.807 135.46C397.779 134.735 398.82 134.105 399.913 133.58C400.954 132.954 402.049 132.425 403.187 132V132Z" fill="#0057FF"/>
<path d="M363.213 152.16C362.912 152.408 362.591 152.631 362.253 152.827C361.587 153.24 360.687 153.827 359.533 154.54C357.233 155.96 354.02 157.873 350.447 159.953C346.873 162.033 343.613 163.867 341.233 165.16C340.047 165.827 339.073 166.327 338.4 166.673C338.059 166.864 337.704 167.031 337.34 167.173C337.656 166.94 337.99 166.733 338.34 166.553L341.113 164.947L350.273 159.653L359.407 154.32L362.18 152.707C362.511 152.5 362.856 152.317 363.213 152.16V152.16Z" fill="#0057FF"/>
<path d="M373.713 132C373.409 132.247 373.086 132.47 372.747 132.667C372.08 133.08 371.187 133.667 370.033 134.38C367.727 135.8 364.513 137.713 360.947 139.793C357.38 141.873 354.107 143.707 351.727 145C350.54 145.667 349.573 146.167 348.9 146.513C348.558 146.707 348.201 146.874 347.833 147.013C348.151 146.782 348.485 146.575 348.833 146.393L351.607 144.787L360.767 139.493L369.907 134.16L372.68 132.547C373.01 132.338 373.355 132.155 373.713 132Z" fill="#0057FF"/>
<path d="M383.22 112.035C382.915 112.282 382.592 112.505 382.253 112.702C381.587 113.115 380.693 113.702 379.54 114.415C377.233 115.835 374.02 117.748 370.447 119.828C366.873 121.908 363.613 123.742 361.233 125.035C360.047 125.702 359.08 126.202 358.407 126.548C358.063 126.74 357.707 126.907 357.34 127.048C357.657 126.817 357.992 126.61 358.34 126.428L361.113 124.822L370.273 119.528L379.413 114.195L382.18 112.582C382.512 112.372 382.859 112.189 383.22 112.035V112.035Z" fill="#0057FF"/>
<path d="M393.333 92.668C393.029 92.9148 392.706 93.1377 392.367 93.3346C391.733 93.748 390.807 94.3346 389.653 95.048C387.347 96.468 384.133 98.3813 380.56 100.468C376.987 102.555 373.727 104.375 371.347 105.675C370.16 106.341 369.193 106.835 368.52 107.181C368.178 107.377 367.821 107.546 367.453 107.688C367.767 107.45 368.102 107.24 368.453 107.061L371.227 105.461L380.387 100.128L389.527 94.7946L392.293 93.1813C392.627 92.9848 392.975 92.8132 393.333 92.668V92.668Z" fill="#0057FF"/>
<path d="M430.54 114.773C430.448 114.945 430.341 115.108 430.22 115.26C429.905 115.727 429.56 116.172 429.187 116.593C427.838 118.162 426.266 119.523 424.52 120.633C421.926 122.289 419.023 123.4 415.987 123.9C414.194 124.187 412.372 124.238 410.567 124.053C408.635 123.841 406.731 123.423 404.887 122.807C401.087 121.587 397.647 119.993 394.36 119.007C391.47 118.077 388.424 117.735 385.4 118C383.361 118.186 381.394 118.851 379.66 119.94C379.191 120.246 378.745 120.587 378.327 120.96C378.193 121.101 378.045 121.228 377.887 121.34C378.005 121.187 378.137 121.044 378.28 120.913C378.675 120.513 379.106 120.15 379.567 119.827C381.299 118.678 383.285 117.968 385.353 117.76C388.419 117.438 391.518 117.747 394.46 118.667C397.793 119.647 401.233 121.227 404.993 122.447C406.817 123.052 408.698 123.467 410.607 123.687C412.383 123.868 414.176 123.821 415.94 123.547C418.938 123.07 421.81 121.998 424.387 120.393C426.116 119.308 427.686 117.989 429.053 116.473C429.434 116.066 429.792 115.639 430.127 115.193C430.254 115.044 430.393 114.903 430.54 114.773V114.773Z" fill="#94B3E2"/>
<path d="M416.713 83.4453C416.477 83.6704 416.22 83.8734 415.947 84.052C415.44 84.432 414.68 84.932 413.713 85.512C412.579 86.1915 411.409 86.8079 410.207 87.3586C408.731 88.0258 407.217 88.6068 405.673 89.0986C404.124 89.5753 402.548 89.9604 400.953 90.252C399.652 90.48 398.339 90.6403 397.02 90.732C395.893 90.8053 394.98 90.8186 394.353 90.7986C394.026 90.8125 393.697 90.7924 393.373 90.7386C393.695 90.6838 394.021 90.6592 394.347 90.6653C394.973 90.6653 395.88 90.5853 397.013 90.4853C398.147 90.3853 399.453 90.2053 400.907 89.9386C402.481 89.6291 404.039 89.2397 405.573 88.772C407.105 88.2839 408.609 87.7142 410.08 87.0653C411.413 86.4587 412.62 85.8586 413.593 85.2986C414.567 84.7386 415.347 84.2786 415.873 83.9653C416.138 83.7679 416.419 83.5939 416.713 83.4453V83.4453Z" fill="#94B3E2"/>
<path d="M380.267 163.405C380.028 163.23 379.804 163.034 379.6 162.819L377.773 161.185C375.749 159.408 373.631 157.741 371.427 156.192C370.227 155.33 368.937 154.601 367.58 154.019C366.474 153.554 365.297 153.282 364.1 153.212C362.992 153.166 361.884 153.315 360.827 153.652C360.827 153.652 360.893 153.599 361.033 153.532C361.236 153.436 361.445 153.356 361.66 153.292C362.454 153.047 363.283 152.937 364.113 152.965C365.345 153.004 366.559 153.261 367.7 153.725C369.087 154.298 370.402 155.03 371.62 155.905C373.842 157.457 375.954 159.161 377.94 161.005C378.7 161.712 379.273 162.339 379.693 162.725C379.91 162.93 380.102 163.158 380.267 163.405V163.405Z" fill="#94B3E2"/>
<path d="M435.747 175.874C435.747 175.874 435.68 175.961 435.52 176.108C435.36 176.254 435.133 176.474 434.807 176.721C433.906 177.446 432.939 178.087 431.92 178.634C428.543 180.48 424.713 181.333 420.871 181.098C417.03 180.862 413.333 179.546 410.207 177.301C409.264 176.635 408.384 175.883 407.58 175.054C407.287 174.768 407.087 174.521 406.913 174.388C406.834 174.309 406.767 174.219 406.713 174.121C406.713 174.121 407.047 174.428 407.64 174.988C408.472 175.769 409.364 176.484 410.307 177.128C413.42 179.287 417.066 180.553 420.847 180.788C424.629 181.023 428.403 180.218 431.76 178.461C432.778 177.937 433.755 177.335 434.68 176.661C435.021 176.379 435.377 176.116 435.747 175.874V175.874Z" fill="#94B3E2"/>
<path d="M460.92 214.925C460.83 214.843 460.746 214.757 460.667 214.665C460.507 214.472 460.293 214.192 460 213.832C459.169 212.753 458.255 211.741 457.267 210.805L456.213 209.872L455.653 209.372L454.987 208.898L453.653 207.898L452.1 206.945C449.643 205.501 447.001 204.397 444.247 203.665C440.909 202.774 437.443 202.463 434 202.745C430.048 203.094 426.216 204.283 422.76 206.232C419.113 208.298 415.713 211.118 412.093 213.898C410.257 215.333 408.333 216.654 406.333 217.852C404.255 219.094 402.01 220.034 399.667 220.645C397.319 221.218 394.896 221.413 392.487 221.225C390.154 221.033 387.849 220.585 385.613 219.892C381.414 218.554 377.353 216.814 373.487 214.698C369.753 212.765 366.227 210.898 362.773 209.492C359.586 208.124 356.218 207.226 352.773 206.825C349.934 206.549 347.068 206.775 344.307 207.492C342.219 208.012 340.241 208.902 338.467 210.118C337.355 210.903 336.347 211.826 335.467 212.865L334.833 213.718C334.687 213.912 334.607 214.005 334.607 214.005C334.607 214.005 334.667 213.898 334.8 213.698L335.413 212.825C336.272 211.756 337.272 210.81 338.387 210.012C340.163 208.758 342.153 207.841 344.26 207.305C347.043 206.568 349.934 206.331 352.8 206.605C356.26 207.003 359.644 207.901 362.847 209.272C366.327 210.672 369.867 212.538 373.6 214.458C377.452 216.556 381.495 218.284 385.673 219.618C387.887 220.292 390.167 220.723 392.473 220.905C394.847 221.093 397.235 220.899 399.547 220.332C401.85 219.727 404.056 218.8 406.1 217.578C408.089 216.391 410.002 215.079 411.827 213.652C415.453 210.885 418.873 208.058 422.553 205.978C423.462 205.465 424.402 205.009 425.367 204.612C425.84 204.412 426.3 204.198 426.78 204.025L428.22 203.572C430.081 203.018 431.993 202.654 433.927 202.485C437.404 202.205 440.904 202.525 444.273 203.432C447.044 204.177 449.7 205.299 452.167 206.765L453.72 207.732L455.053 208.758L455.72 209.232L456.28 209.745L457.327 210.692C458.298 211.644 459.189 212.674 459.993 213.772C460.26 214.145 460.473 214.438 460.62 214.632L460.92 214.925Z" fill="#94B3E2"/>
<path d="M444.88 245.333C444.778 245.388 444.671 245.432 444.56 245.466L443.613 245.793C443.115 245.967 442.607 246.116 442.093 246.239C441.487 246.386 440.813 246.586 440.04 246.713L438.84 246.939C438.42 247.013 437.98 247.053 437.507 247.113C436.6 247.246 435.62 247.293 434.587 247.359C432.359 247.427 430.129 247.313 427.92 247.019C425.707 246.684 423.526 246.162 421.4 245.459C420.427 245.113 419.5 244.793 418.667 244.406C418.247 244.219 417.833 244.059 417.453 243.873L416.367 243.319C415.66 242.979 415.067 242.599 414.533 242.286C414.074 242.026 413.629 241.741 413.2 241.433L412.38 240.853C412.28 240.791 412.188 240.717 412.107 240.633C412.218 240.671 412.324 240.725 412.42 240.793L413.273 241.319C413.633 241.553 414.087 241.833 414.607 242.119C415.127 242.406 415.74 242.786 416.447 243.099L417.54 243.626C417.92 243.813 418.333 243.966 418.753 244.146C419.587 244.513 420.507 244.813 421.473 245.159C423.605 245.837 425.787 246.341 428 246.666C430.198 246.963 432.416 247.086 434.633 247.033C435.653 246.973 436.633 246.946 437.527 246.819C437.973 246.766 438.413 246.733 438.86 246.666L440.06 246.466C440.827 246.359 441.5 246.173 442.107 246.046C442.713 245.919 443.22 245.779 443.633 245.653L444.6 245.393C444.691 245.363 444.785 245.343 444.88 245.333Z" fill="#94B3E2"/>
<path d="M306.053 147.694L301.387 146.961L272.473 137.627L255.567 132.741C253.192 131.884 250.664 131.53 248.145 131.703C245.626 131.875 243.17 132.569 240.933 133.741C232.933 137.807 210.893 158.327 210.893 158.327L226.767 174.694L219.293 207.814C227.66 231.601 244.04 234.327 244.04 234.327C252.046 234.669 260.037 233.348 267.507 230.447C282.713 224.667 294.5 201.001 294.5 201.001C295.5 199.001 299.5 192.001 303.647 186.007L327.727 176.194L334.253 142.861L306.053 147.694Z" fill="#455A64"/>
<path d="M261.733 139.004C261.76 139.054 261.778 139.108 261.787 139.164C261.82 139.291 261.86 139.444 261.907 139.637C262.007 140.051 262.147 140.671 262.313 141.464C262.807 143.709 263.126 145.989 263.267 148.284C263.352 149.876 263.26 151.472 262.993 153.044C262.671 154.857 262.027 156.597 261.093 158.184C260.011 159.899 258.679 161.443 257.14 162.764C255.573 164.164 253.84 165.431 252.073 166.804C248.313 169.624 244.66 172.177 241.407 174.497C238.153 176.817 235.253 178.891 232.947 180.637L232.873 180.697L232.8 180.637C231.173 179.346 229.627 177.954 228.173 176.471C227.78 176.071 227.417 175.643 227.087 175.191C226.973 175.037 226.907 174.911 226.853 174.831C226.826 174.788 226.802 174.743 226.78 174.697C226.78 174.697 226.907 174.857 227.14 175.151C227.491 175.582 227.865 175.993 228.26 176.384C229.743 177.823 231.301 179.182 232.927 180.457H232.78C235.073 178.684 237.94 176.571 241.207 174.244C244.473 171.917 248.113 169.351 251.873 166.531C253.633 165.197 255.367 163.897 256.92 162.531C258.438 161.235 259.754 159.72 260.827 158.037C261.751 156.49 262.39 154.79 262.713 153.017C262.99 151.465 263.095 149.886 263.027 148.311C262.908 146.027 262.627 143.755 262.187 141.511C262.04 140.731 261.927 140.117 261.84 139.671C261.804 139.479 261.778 139.319 261.76 139.191C261.74 139.131 261.731 139.067 261.733 139.004V139.004Z" fill="#263238"/>
<path d="M282.193 86.16C280.945 86.129 279.731 86.5672 278.791 87.388C277.85 88.2088 277.251 89.3526 277.113 90.5933L271.72 140.9C270.787 148.793 281.113 165.72 289.573 166.653C298.113 167.593 298.953 163.453 300.06 155.987C301.913 143.493 302.533 138.787 302.527 138.86C302.52 138.933 313.527 138.493 317.607 124.74C319.607 117.9 320.793 112.233 321.44 102.793C322.02 94.2933 317.8 83.22 309.28 83L282.193 86.16Z" fill="#FFBE9D"/>
<path d="M302.527 138.845C295.896 138.072 289.611 135.471 284.373 131.332C284.373 131.332 287.847 141.612 302.08 142.152L302.527 138.845Z" fill="#DB9977"/>
<path d="M293 75.2173C302 74.2173 316 76.7173 317 81.7173C320 84.7172 323.594 92.5027 321.407 93.7827C319.22 95.0627 311.207 90.7173 305.5 90.7173C303.02 91.2573 284.407 98.5654 278.907 97L276 95.7827V87.7173C278.5 81.6519 277.18 83.6773 278.907 81.7173C281.907 79.2173 288.5 77.2173 293 75.2173Z" fill="#263238"/>
<path d="M304.747 123.552C304.607 123.606 304.347 123.179 303.88 122.599C303.3 121.837 302.572 121.201 301.741 120.726C300.909 120.252 299.991 119.95 299.04 119.839C298.3 119.732 297.807 119.726 297.773 119.579C297.74 119.432 298.207 119.186 299.053 119.099C300.17 119.012 301.288 119.263 302.26 119.819C303.235 120.37 304.019 121.204 304.507 122.212C304.867 122.979 304.873 123.512 304.747 123.552Z" fill="#263238"/>
<path d="M377.467 135.953L355.62 100.833L349.58 88.4729C349.58 88.4729 347.653 85.9195 345.653 83.7395C342.373 80.1595 339.127 82.9395 339.127 82.9395C338.945 82.5169 338.636 82.1614 338.243 81.9224C337.85 81.6835 337.392 81.5729 336.933 81.6062C336.344 81.6058 335.763 81.7452 335.238 82.0129C334.713 82.2806 334.259 82.669 333.913 83.1462C333.913 83.1462 333.02 82.1529 330.54 81.9995C329.977 81.9928 329.426 82.1707 328.973 82.5062C328.16 81.7929 326.667 80.7662 325.233 81.2862C324.113 81.6929 317.32 86.8595 315.647 89.4595C314.82 90.7462 316.353 92.4128 318.42 91.6328C319.27 91.3581 320.099 91.0217 320.9 90.6262C321.527 90.2737 322.094 89.8236 322.58 89.2929C322.58 89.2929 320.5 92.0013 322.58 92.8195C323.141 92.932 323.72 92.9205 324.276 92.7858C324.833 92.651 325.353 92.3963 325.8 92.0395C326.467 91.4928 327.2 90.7795 327.913 90.0795L327.833 90.1995C326.887 91.5995 329.353 93.6729 330.547 92.8329C331.102 92.4415 331.634 92.0185 332.14 91.5662C334.913 93.5662 331.067 96.1595 329.44 96.0262C326.937 95.8364 324.423 95.8364 321.92 96.0262C320.507 96.1395 319.253 96.4795 318.48 97.2595C317.56 98.2062 318.527 100.193 319.813 100.393C322.207 100.766 325.26 101.293 328.433 102.113C332.167 103.073 341.947 106.253 341.947 106.253L342.9 107.026L356.187 139.433L333.44 144.253L328.36 173.08L369.427 161.933C378.667 157.066 383.073 144.753 377.467 135.953Z" fill="#FFBE9D"/>
<path d="M341.953 106.193C341.776 106.167 341.602 106.125 341.433 106.066L339.96 105.646L334.553 104.04L330.827 102.913C329.493 102.5 328.06 102.073 326.54 101.686C324.957 101.259 323.35 100.927 321.727 100.693C320.836 100.677 319.953 100.518 319.113 100.22C318.89 100.118 318.69 99.9704 318.527 99.7862C318.438 99.6799 318.37 99.5578 318.327 99.4263L318.28 99.0729C318.209 98.6009 318.239 98.1194 318.367 97.6596C318.53 97.1871 318.869 96.7956 319.313 96.5663C319.718 96.3564 320.142 96.1867 320.58 96.0596C321.446 95.8115 322.346 95.7012 323.247 95.7329C324.98 95.7329 326.613 95.9996 328.173 95.9329C328.931 95.9151 329.686 95.8416 330.433 95.7129C331.16 95.5796 331.853 95.3929 332.533 95.2196C333.79 94.8266 335.105 94.6574 336.42 94.7196C337.5 94.823 338.556 95.0928 339.553 95.5196C340.304 95.8321 341.034 96.1906 341.74 96.5929C342.32 96.9196 342.76 97.1929 343.073 97.3729C343.227 97.4617 343.374 97.562 343.513 97.6729C343.346 97.6089 343.185 97.5285 343.033 97.4329L341.7 96.7129C340.989 96.3343 340.256 95.996 339.507 95.6996C338.524 95.2993 337.485 95.052 336.427 94.9663C335.141 94.9196 333.858 95.0979 332.633 95.4929C331.967 95.6729 331.26 95.8729 330.52 96.0129C329.756 96.1516 328.983 96.2319 328.207 96.2529C326.62 96.3263 324.967 96.0929 323.273 96.0729C322.418 96.0471 321.563 96.1527 320.74 96.3863C319.927 96.6529 319 96.9396 318.74 97.7662C318.632 98.1794 318.607 98.61 318.667 99.0329L318.713 99.3396C318.737 99.422 318.781 99.4975 318.84 99.5596C318.974 99.7062 319.135 99.8261 319.313 99.9129C320.119 100.187 320.962 100.335 321.813 100.353C323.451 100.596 325.071 100.939 326.667 101.38C328.193 101.773 329.62 102.213 330.953 102.64L334.673 103.806L340.047 105.52L341.5 106C341.657 106.05 341.808 106.115 341.953 106.193Z" fill="#DB9977"/>
<path d="M325.107 81.332C325.147 81.3854 324.08 81.9987 322.507 83.192C321.589 83.8918 320.716 84.6489 319.893 85.4587C318.96 86.3654 317.98 87.4587 316.82 88.4254C316.239 88.8224 315.808 89.4019 315.593 90.072C315.511 90.3673 315.549 90.683 315.699 90.9504C315.849 91.2177 316.099 91.4148 316.393 91.4987C316.968 91.6593 317.573 91.6707 318.153 91.532C318.677 91.4347 319.191 91.2874 319.687 91.092C320.661 90.6783 321.57 90.1259 322.387 89.452C322.223 89.693 322.02 89.9048 321.787 90.0787C321.184 90.5887 320.51 91.0086 319.787 91.3254C319.282 91.5401 318.757 91.7053 318.22 91.8187C317.59 91.9819 316.93 91.9819 316.3 91.8187C315.925 91.7142 315.606 91.4659 315.412 91.1277C315.219 90.7894 315.166 90.3886 315.267 90.012C315.494 89.2675 315.963 88.62 316.6 88.172C317.74 87.1987 318.72 86.172 319.68 85.2387C320.513 84.4319 321.404 83.6877 322.347 83.012C323.16 82.432 323.847 82.0187 324.347 81.7387C324.586 81.5792 324.841 81.443 325.107 81.332V81.332Z" fill="#DB9977"/>
<path d="M333.447 84.0796C333.209 84.4006 332.951 84.7057 332.673 84.9929L330.48 87.4063L327.193 90.9596C326.537 91.6802 325.755 92.2764 324.887 92.7196C324.41 92.9593 323.886 93.0891 323.353 93.0996C323.07 93.1044 322.788 93.0526 322.525 92.9473C322.262 92.842 322.022 92.6853 321.82 92.4863C321.613 92.2551 321.486 91.9625 321.46 91.6529C321.437 91.3656 321.467 91.0765 321.547 90.7996C321.699 90.2768 321.938 89.7832 322.253 89.3396V89.3396C323.433 88.0929 324.527 86.9196 325.507 85.8396C326.487 84.7596 327.467 83.9129 328.253 83.1729C328.591 82.8194 328.975 82.5123 329.393 82.2596C329.732 82.1098 330.097 82.0282 330.467 82.0196C331.06 81.9796 331.407 82.0196 331.373 82.0996C331.075 82.0638 330.774 82.0773 330.48 82.1396C330.132 82.1695 329.791 82.2598 329.473 82.4063C329.081 82.6725 328.721 82.9835 328.4 83.3329C327.64 84.0929 326.7 84.9729 325.733 86.0396C324.767 87.1063 323.68 88.3196 322.507 89.5796C322.214 89.9854 321.989 90.4356 321.84 90.9129C321.771 91.1509 321.744 91.399 321.76 91.6463C321.787 91.8808 321.885 92.1017 322.04 92.2796C322.384 92.6084 322.844 92.788 323.32 92.7796C323.8 92.7705 324.271 92.6543 324.7 92.4396C325.533 92.0178 326.285 91.4512 326.92 90.7663L330.253 87.2663L332.527 84.9329L333.16 84.3063C333.338 84.1463 333.433 84.0707 333.447 84.0796Z" fill="#DB9977"/>
<path d="M343.66 87.2925C343.66 87.2925 343.66 87.4991 343.393 87.6858C343.238 87.8068 343.06 87.8941 342.869 87.942C342.678 87.99 342.479 87.9976 342.285 87.9643C342.091 87.931 341.907 87.8577 341.743 87.7489C341.579 87.6401 341.439 87.4982 341.333 87.3325C341.18 87.0791 341.18 86.8858 341.22 86.8791C341.26 86.8725 341.353 87.0058 341.527 87.1791C341.747 87.4046 342.031 87.558 342.34 87.6191C342.654 87.6655 342.974 87.6167 343.26 87.4791C343.487 87.3725 343.62 87.2591 343.66 87.2925Z" fill="#DB9977"/>
<path d="M344.46 90.3539C344.387 90.4139 343.887 89.9139 343.447 89.1605C343.126 88.7369 342.934 88.2302 342.893 87.7005C342.98 87.6672 343.313 88.2672 343.747 88.9872C344.051 89.4048 344.291 89.8654 344.46 90.3539V90.3539Z" fill="#DB9977"/>
<path d="M345.933 102.272C345.641 101.851 345.427 101.381 345.3 100.885C344.92 99.7074 344.735 98.4755 344.753 97.2383C344.778 96.0013 345.003 94.7765 345.42 93.6116C345.558 93.1175 345.784 92.6523 346.087 92.2383C345.525 93.8519 345.199 95.5382 345.12 97.2449C345.145 98.9511 345.419 100.644 345.933 102.272V102.272Z" fill="#DB9977"/>
<path d="M363.88 148.468C363.813 148.468 363.747 147.762 363.4 146.675C363.193 146.042 362.93 145.428 362.613 144.842C361.827 143.41 360.734 142.17 359.413 141.208C358.875 140.816 358.301 140.475 357.7 140.188C356.673 139.702 355.973 139.522 355.987 139.482C356.156 139.475 356.325 139.497 356.487 139.548C356.943 139.646 357.389 139.784 357.82 139.962C358.453 140.227 359.056 140.558 359.62 140.948C361.009 141.908 362.14 143.194 362.913 144.695C363.228 145.304 363.476 145.946 363.653 146.608C363.776 147.044 363.858 147.491 363.9 147.942C363.922 148.117 363.915 148.295 363.88 148.468Z" fill="#DB9977"/>
<path d="M287.627 212.666C285.747 212.337 283.811 212.584 282.073 213.372C279.107 212.039 275.447 214.326 275.447 214.326C274.373 213.812 267.907 218.039 267.907 218.039L259.853 221.839L216.833 189.872L229.027 177.206L211.94 159.426L191.94 180.026C189.49 182.677 188.071 186.118 187.94 189.726C187.748 193.566 188.682 197.379 190.628 200.695C192.574 204.012 195.447 206.687 198.893 208.392L249.56 234.392C253.452 234.176 257.313 233.575 261.087 232.599C265.46 231.459 272.933 228.139 272.933 228.139C272.933 228.139 272.933 228.366 274.267 230.959C276.673 235.626 280.2 230.586 280.2 230.586C280.551 231.405 281.013 232.173 281.573 232.866C284.62 235.819 286.733 231.852 286.733 231.852C286.733 231.852 287.647 233.446 290.367 232.259C293.087 231.072 289.973 222.886 289.973 222.886C289.973 222.886 290.887 224.666 292.64 222.412C294.393 220.159 290.54 213.279 287.627 212.666Z" fill="#FFBE9D"/>
<path d="M281.54 213.793C281.707 213.676 281.899 213.601 282.1 213.573C282.641 213.455 283.202 213.473 283.733 213.626C284.516 213.849 285.248 214.222 285.887 214.726C286.271 215.012 286.631 215.331 286.96 215.68C287.292 216.089 287.574 216.537 287.8 217.013C288.59 218.603 289.248 220.255 289.767 221.953C289.967 222.62 290.1 223.133 290.187 223.506C290.249 223.695 290.278 223.894 290.273 224.093C290.227 224.093 289.987 223.3 289.533 222.026C288.946 220.368 288.262 218.745 287.487 217.166C287.277 216.724 287.012 216.31 286.7 215.933C286.389 215.598 286.053 215.288 285.693 215.006C285.097 214.519 284.42 214.14 283.693 213.886C282.994 213.679 282.255 213.647 281.54 213.793V213.793Z" fill="#DB9977"/>
<path d="M286.72 231.872C286.566 231.64 286.439 231.392 286.34 231.132L285.4 229.092C284.607 227.366 283.447 225.006 282.34 222.319C281.895 221.041 281.306 219.818 280.587 218.672C279.965 217.773 279.11 217.061 278.113 216.612C277.451 216.292 276.713 216.16 275.98 216.232C275.46 216.299 275.193 216.439 275.18 216.406C275.167 216.372 275.24 216.359 275.367 216.292C275.552 216.2 275.749 216.134 275.953 216.099C276.718 215.968 277.505 216.068 278.213 216.386C279.271 216.827 280.184 217.557 280.847 218.492C281.596 219.647 282.204 220.887 282.66 222.186C283.76 224.852 284.887 227.239 285.627 228.992C285.993 229.866 286.293 230.586 286.467 231.079C286.58 231.333 286.665 231.599 286.72 231.872V231.872Z" fill="#DB9977"/>
<path d="M266.973 221.585C267.182 221.436 267.405 221.309 267.64 221.205L269.56 220.278C269.973 220.085 270.407 219.872 270.893 219.658C271.441 219.44 272.033 219.353 272.62 219.405C273.274 219.458 273.901 219.688 274.433 220.072C274.97 220.511 275.422 221.044 275.767 221.645C276.133 222.245 276.433 222.865 276.7 223.438C276.967 224.012 277.28 224.565 277.573 225.085C278.153 226.118 278.7 227.045 279.1 227.858C279.429 228.494 279.714 229.151 279.953 229.825C280.06 230.065 280.132 230.318 280.167 230.578C280.113 230.578 279.753 229.545 278.887 227.972C278.453 227.185 277.893 226.278 277.293 225.245C276.993 224.725 276.693 224.172 276.4 223.592C276.107 223.012 275.827 222.405 275.473 221.825C275.15 221.263 274.733 220.76 274.24 220.338C273.764 219.975 273.201 219.745 272.607 219.672C272.067 219.614 271.522 219.682 271.013 219.872C270.533 220.065 270.073 220.278 269.68 220.445L267.713 221.332C267.478 221.446 267.229 221.531 266.973 221.585Z" fill="#DB9977"/>
<path d="M267.907 218.047C267.729 218.195 267.531 218.318 267.32 218.414C266.933 218.634 266.367 218.94 265.66 219.314C264.253 220.06 262.293 221.074 260.12 222.167C257.947 223.26 255.973 224.234 254.533 224.927L252.827 225.727C252.616 225.838 252.392 225.921 252.16 225.974C252.342 225.826 252.541 225.7 252.753 225.6C253.14 225.387 253.707 225.08 254.413 224.707C255.82 223.96 257.78 222.954 259.953 221.854C262.127 220.754 264.1 219.787 265.533 219.1C266.253 218.754 266.867 218.48 267.247 218.294C267.454 218.18 267.676 218.097 267.907 218.047V218.047Z" fill="#DB9977"/>
<path d="M217.407 189.955C215.726 189.701 214.021 189.645 212.327 189.788C210.645 190.042 208.999 190.489 207.42 191.122C207.821 190.802 208.271 190.55 208.753 190.375C209.879 189.891 211.07 189.573 212.287 189.428C213.507 189.285 214.742 189.316 215.953 189.522C216.458 189.587 216.949 189.733 217.407 189.955Z" fill="#DB9977"/>
<path d="M337.907 85.2305C337.814 85.416 337.698 85.5886 337.56 85.7438C337.32 86.0638 336.967 86.5171 336.507 87.0771C335.6 88.1705 334.293 89.6371 332.76 91.1771C332 91.9238 331.287 92.7638 330.307 93.0705C329.851 93.2274 329.356 93.2274 328.9 93.0705C328.509 92.9079 328.188 92.6129 327.993 92.2371C327.731 91.7141 327.644 91.1201 327.747 90.5438C327.758 90.3357 327.81 90.1318 327.9 89.9438C327.922 90.1477 327.922 90.3533 327.9 90.5571C327.852 91.098 327.965 91.6411 328.227 92.1171C328.406 92.4243 328.687 92.6599 329.02 92.7838C329.411 92.92 329.836 92.92 330.227 92.7838C331.08 92.5105 331.767 91.7105 332.533 90.9505C334.06 89.4238 335.387 87.9838 336.347 86.9505C336.828 86.3428 337.349 85.7682 337.907 85.2305V85.2305Z" fill="#DB9977"/>
<path d="M343 85.2305C342.891 85.4227 342.754 85.5979 342.593 85.7505C342.32 86.0705 341.927 86.5238 341.407 87.0838L339.613 89.0238L338.547 90.1571C338.178 90.5835 337.772 90.9762 337.333 91.3305C336.866 91.703 336.301 91.9343 335.707 91.9971C335.418 92.0273 335.127 91.9817 334.862 91.8647C334.596 91.7478 334.366 91.5637 334.193 91.3305C334.033 91.1046 333.947 90.8343 333.947 90.5571C333.962 90.3042 334.04 90.0591 334.173 89.8438C334.42 89.4438 334.673 89.1371 334.893 88.8305C335.333 88.2238 335.7 87.7371 335.96 87.4038C336.08 87.2195 336.226 87.0533 336.393 86.9105C336.31 87.1137 336.203 87.3062 336.073 87.4838C335.847 87.8371 335.513 88.3438 335.093 88.9705C334.887 89.2838 334.633 89.6371 334.427 89.9838C334.305 90.1528 334.24 90.3557 334.24 90.5638C334.24 90.7719 334.305 90.9748 334.427 91.1438C334.57 91.3291 334.759 91.4734 334.975 91.5624C335.192 91.6513 335.428 91.6817 335.66 91.6505C336.186 91.5941 336.685 91.3908 337.1 91.0638C337.536 90.7338 337.94 90.3633 338.307 89.9571L339.393 88.8371L341.24 86.9438C341.767 86.4105 342.2 85.9838 342.507 85.6905C342.649 85.515 342.815 85.3602 343 85.2305V85.2305Z" fill="#DB9977"/>
<path d="M412.607 289.331C413.179 288.085 414.046 286.997 415.133 286.16C416.219 285.324 417.493 284.765 418.844 284.531C420.195 284.296 421.583 284.394 422.888 284.816C424.192 285.237 425.375 285.97 426.333 286.951C424.928 289.218 422.746 290.896 420.193 291.671C418.845 292.146 417.38 292.175 416.014 291.753C414.648 291.332 413.453 290.483 412.607 289.331Z" fill="#578FFC"/>
<path d="M407.873 290.426C408.485 290.151 409.128 289.95 409.787 289.826C410.993 289.532 412.673 289.206 414.533 288.899C416.393 288.592 418.087 288.359 419.32 288.232C419.981 288.122 420.65 288.071 421.32 288.079C420.679 288.267 420.023 288.401 419.36 288.479L414.593 289.259C412.74 289.566 411.06 289.859 409.847 290.086C409.196 290.236 408.537 290.35 407.873 290.426Z" fill="#263238"/>
<path d="M174.32 247.125C175.742 248.296 176.85 249.802 177.545 251.507C178.24 253.212 178.5 255.064 178.301 256.895C178.103 258.726 177.452 260.478 176.408 261.995C175.364 263.512 173.959 264.746 172.32 265.585C169.873 259.312 168.933 252.558 174.32 247.125Z" fill="#578FFC"/>
<path d="M183.593 251.938C183.725 254.316 184.445 256.624 185.689 258.655C186.934 260.685 188.664 262.374 190.723 263.57C192.783 264.766 195.107 265.431 197.488 265.506C199.868 265.581 202.23 265.063 204.36 263.998C199.693 256.665 193.38 250.485 183.593 251.925" fill="#578FFC"/>
<path d="M162.347 228.75C162.464 228.848 162.57 228.96 162.66 229.083L163.493 230.077C164.2 230.95 165.233 232.21 166.54 233.737C169.14 236.803 172.813 240.977 177.14 245.33C179.307 247.503 181.433 249.51 183.407 251.283C185.38 253.057 187.247 254.57 188.847 255.783C190.104 256.747 191.415 257.637 192.773 258.45C193.74 259.023 194.313 259.263 194.3 259.297C194.151 259.263 194.008 259.209 193.873 259.137C193.473 258.973 193.083 258.783 192.707 258.57C191.317 257.796 189.98 256.93 188.707 255.977C187.08 254.777 185.213 253.263 183.207 251.517C181.2 249.77 179.073 247.743 176.9 245.57C172.567 241.21 168.9 237.003 166.36 233.89C165.073 232.337 164.073 231.05 163.393 230.157L162.607 229.117C162.509 229.003 162.422 228.88 162.347 228.75Z" fill="#263238"/>
<path d="M173.807 256.602C173.747 256.602 173.967 255.669 174.16 254.155C174.655 250.198 174.235 246.179 172.933 242.409C172.433 240.969 172.027 240.109 172.08 240.082C172.219 240.257 172.333 240.45 172.42 240.655C172.698 241.197 172.947 241.754 173.167 242.322C173.885 244.204 174.356 246.172 174.567 248.175C174.774 250.174 174.718 252.191 174.4 254.175C174.301 254.789 174.168 255.397 174 255.995C173.959 256.204 173.894 256.408 173.807 256.602Z" fill="#263238"/>
<path d="M468 121.691C467.174 120.597 466.627 119.318 466.406 117.965C466.185 116.613 466.297 115.226 466.731 113.926C467.166 112.626 467.91 111.452 468.9 110.503C469.89 109.555 471.096 108.862 472.413 108.484C473.744 110.792 474.187 113.506 473.66 116.118C473.439 117.531 472.77 118.836 471.751 119.839C470.731 120.843 469.416 121.492 468 121.691Z" fill="#578FFC"/>
<path d="M466.733 126.378C466.78 125.709 466.908 125.049 467.113 124.411C467.427 123.211 467.933 121.578 468.547 119.791C469.16 118.005 469.76 116.405 470.213 115.251C470.427 114.616 470.699 114.002 471.027 113.418C470.887 114.073 470.693 114.715 470.447 115.338C470.007 116.611 469.467 118.171 468.873 119.905C468.28 121.638 467.72 123.305 467.347 124.478C467.175 125.121 466.97 125.756 466.733 126.378Z" fill="#263238"/>
<path d="M438.667 171.289C437.977 168.729 437.921 166.04 438.503 163.453C439.085 160.867 440.289 158.461 442.009 156.443C443.729 154.426 445.915 152.857 448.377 151.873C450.839 150.889 453.503 150.52 456.14 150.796C457.067 155.836 455.473 161.009 452.84 165.389C449.7 170.556 443.46 172.723 438.667 171.289Z" fill="#578FFC"/>
<path d="M418.94 191.022C419.023 190.893 419.119 190.772 419.227 190.662L420.087 189.682C420.853 188.842 421.973 187.642 423.367 186.175C426.167 183.242 430.073 179.235 434.42 174.842C438.767 170.449 442.72 166.482 445.6 163.635L449.027 160.269L449.973 159.369C450.187 159.169 450.307 159.062 450.32 159.075C450.231 159.2 450.131 159.316 450.02 159.422L449.12 160.369L445.787 163.802L434.667 175.082L423.547 186.349L420.213 189.775L419.307 190.709C419.197 190.827 419.074 190.932 418.94 191.022Z" fill="#263238"/>
<g opacity="0.3">
<path opacity="0.3" d="M438.667 171.289C437.977 168.729 437.921 166.04 438.503 163.453C439.085 160.867 440.289 158.461 442.009 156.443C443.729 154.426 445.915 152.857 448.377 151.873C450.839 150.889 453.503 150.52 456.14 150.796C457.067 155.836 455.473 161.009 452.84 165.389C449.7 170.556 443.46 172.723 438.667 171.289Z" fill="black"/>
</g>
<path d="M429.527 173.271C428.074 172.531 426.825 171.448 425.887 170.115C424.949 168.782 424.352 167.24 424.146 165.623C423.94 164.006 424.133 162.364 424.707 160.838C425.281 159.313 426.219 157.951 427.44 156.871C430.107 158.538 431.813 161.384 432.7 164.398C433.753 167.958 432.167 171.731 429.527 173.271Z" fill="#578FFC"/>
<g opacity="0.3">
<path opacity="0.3" d="M429.527 173.271C428.074 172.531 426.825 171.448 425.887 170.115C424.949 168.782 424.352 167.24 424.146 165.623C423.94 164.006 424.133 162.364 424.707 160.838C425.281 159.313 426.219 157.951 427.44 156.871C430.107 158.538 431.813 161.384 432.7 164.398C433.753 167.958 432.167 171.731 429.527 173.271Z" fill="black"/>
</g>
<path d="M430.567 178.952C430.475 178.757 430.408 178.551 430.367 178.339C430.253 177.946 430.127 177.366 429.987 176.639C429.707 175.199 429.413 173.186 429.147 170.966C428.88 168.746 428.693 166.719 428.58 165.252C428.484 164.465 428.453 163.671 428.487 162.879C428.653 163.655 428.767 164.441 428.827 165.232C429.007 166.779 429.24 168.746 429.493 170.926C429.747 173.106 430.013 175.152 430.227 176.599C430.44 178.046 430.62 178.939 430.567 178.952Z" fill="#263238"/>
<path d="M304.667 250.538C305.686 248.12 307.291 245.995 309.338 244.354C311.385 242.714 313.808 241.609 316.389 241.14C318.97 240.672 321.627 240.854 324.12 241.671C326.613 242.488 328.863 243.913 330.667 245.818C323.107 251.678 314.287 255.678 304.72 250.538" fill="#578FFC"/>
<g opacity="0.3">
<path opacity="0.3" d="M304.667 250.538C305.686 248.12 307.291 245.995 309.338 244.354C311.385 242.714 313.808 241.609 316.389 241.14C318.97 240.672 321.627 240.854 324.12 241.671C326.613 242.488 328.863 243.913 330.667 245.818C323.107 251.678 314.287 255.678 304.72 250.538" fill="black"/>
</g>
<path d="M300.42 252.885C300.6 252.705 300.801 252.548 301.02 252.418C301.42 252.132 302.013 251.752 302.773 251.312C306.735 249.021 311.126 247.571 315.673 247.052C316.54 246.958 317.247 246.912 317.733 246.905C317.985 246.87 318.241 246.87 318.493 246.905C318.493 246.958 317.42 247.025 315.7 247.278C313.462 247.606 311.257 248.123 309.107 248.825C306.963 249.534 304.884 250.426 302.893 251.492C301.333 252.345 300.453 252.932 300.42 252.885Z" fill="#263238"/>
<path d="M128.953 163.67C130.784 162.816 132.798 162.43 134.815 162.548C136.832 162.666 138.787 163.283 140.506 164.344C142.225 165.405 143.653 166.877 144.662 168.627C145.671 170.377 146.23 172.35 146.287 174.37C138.92 173.823 131.793 171.563 128.953 163.67Z" fill="#578FFC"/>
<g opacity="0.3">
<path opacity="0.3" d="M128.953 163.67C130.784 162.816 132.798 162.43 134.815 162.548C136.832 162.666 138.787 163.283 140.506 164.344C142.225 165.405 143.653 166.877 144.662 168.627C145.671 170.377 146.23 172.35 146.287 174.37C138.92 173.823 131.793 171.563 128.953 163.67Z" fill="black"/>
</g>
<path d="M125.293 162.809C125.488 162.777 125.686 162.777 125.88 162.809C126.411 162.866 126.938 162.951 127.46 163.062C129.187 163.423 130.871 163.961 132.487 164.669C134.101 165.384 135.638 166.262 137.073 167.289C137.62 167.689 138.047 168.029 138.327 168.282C138.484 168.401 138.625 168.54 138.747 168.696C138.707 168.742 138.08 168.229 136.933 167.496C134.019 165.573 130.797 164.164 127.407 163.329C126.107 163.002 125.287 162.862 125.293 162.809Z" fill="#263238"/>
<path d="M367.84 242.37C367.623 240.576 367.855 238.756 368.516 237.074C369.177 235.391 370.246 233.9 371.627 232.734C373.007 231.567 374.656 230.763 376.425 230.392C378.194 230.021 380.027 230.096 381.76 230.61C379.247 236.723 375.34 242.157 367.84 242.37Z" fill="#578FFC"/>
<path d="M366.087 245.243C366.29 244.619 366.57 244.024 366.92 243.469C368.493 240.719 370.631 238.333 373.193 236.469C373.707 236.062 374.269 235.719 374.867 235.449C374.378 235.881 373.866 236.286 373.333 236.663C370.886 238.604 368.785 240.946 367.12 243.589C366.807 244.16 366.462 244.712 366.087 245.243Z" fill="#263238"/>
<path d="M420.3 207.74C419.75 206.018 419.636 204.187 419.969 202.411C420.302 200.635 421.071 198.969 422.208 197.564C423.344 196.159 424.812 195.059 426.48 194.362C428.147 193.665 429.962 193.394 431.76 193.573C430.427 200.053 427.627 206.12 420.3 207.74Z" fill="#578FFC"/>
<g opacity="0.3">
<path opacity="0.3" d="M420.3 207.74C419.75 206.018 419.636 204.187 419.969 202.411C420.302 200.635 421.071 198.969 422.208 197.564C423.344 196.159 424.812 195.059 426.48 194.362C428.147 193.665 429.962 193.394 431.76 193.573C430.427 200.053 427.627 206.12 420.3 207.74Z" fill="black"/>
</g>
<path d="M419.12 210.893C419.201 210.244 419.364 209.608 419.607 209C420.117 207.503 420.787 206.066 421.607 204.713C422.418 203.358 423.375 202.095 424.46 200.947C424.885 200.444 425.371 199.997 425.907 199.613C425.511 200.129 425.088 200.623 424.64 201.093C423.627 202.28 422.71 203.546 421.9 204.88C421.104 206.219 420.416 207.619 419.84 209.067C419.635 209.689 419.395 210.299 419.12 210.893Z" fill="#263238"/>
<path d="M24.8533 160.064C25.2453 158.299 26.0698 156.66 27.2528 155.293C28.4358 153.927 29.94 152.876 31.63 152.235C33.3201 151.594 35.143 151.384 36.9345 151.623C38.7261 151.862 40.4302 152.542 41.8933 153.604C37.4933 158.53 32 162.357 24.8533 160.064Z" fill="#578FFC"/>
<path d="M22.2466 162.189C22.6477 161.672 23.1087 161.204 23.62 160.796C24.8154 159.772 26.116 158.878 27.5 158.129C28.8852 157.366 30.3493 156.755 31.8666 156.309C32.4842 156.091 33.1273 155.955 33.78 155.902C33.1792 156.158 32.5649 156.38 31.94 156.569C28.9857 157.583 26.2261 159.093 23.78 161.036C23.292 161.45 22.78 161.835 22.2466 162.189Z" fill="#263238"/>
<path d="M329.58 73.0687L334.913 63.4087C331.49 57.9705 330.225 51.4486 331.367 45.125C332.508 38.8014 335.973 33.1333 341.082 29.235C346.19 25.3366 352.571 23.4899 358.972 24.0578C365.373 24.6257 371.33 27.5671 375.672 32.3039C380.014 37.0407 382.427 43.2304 382.437 49.6562C382.447 56.082 380.054 62.2792 375.727 67.0298C371.4 71.7804 365.452 74.7408 359.054 75.329C352.655 75.9172 346.267 74.0908 341.147 70.2087L329.58 73.0687Z" fill="#68A4FF"/>
<path d="M329.58 73.0674L341.16 70.1341L341.113 70.2741L340.707 69.7608L341.24 70.1541C342.879 71.3825 344.655 72.4161 346.533 73.2341C348.769 74.196 351.131 74.8357 353.547 75.1341C354.884 75.3011 356.234 75.3502 357.58 75.2808C358.247 75.2341 358.98 75.2074 359.693 75.1408L361.833 74.7874C368.217 73.4577 373.855 69.7461 377.6 64.4074C379.68 61.4555 381.107 58.0942 381.787 54.5474C382.469 50.7933 382.315 46.9348 381.333 43.2474C380.335 39.3976 378.436 35.8399 375.793 32.8674L374.747 31.7408C374.4 31.3608 373.993 31.0741 373.62 30.7008C373.252 30.3482 372.865 30.0166 372.46 29.7074L371.233 28.8074C370.842 28.5101 370.429 28.2406 370 28.0008L368.667 27.2141L367.333 26.5474C366.902 26.3222 366.456 26.1241 366 25.9541C362.374 24.5557 358.48 23.9929 354.607 24.3074C350.942 24.5854 347.384 25.669 344.187 27.4808C338.437 30.746 334.157 36.0901 332.227 42.4141C331.463 45.1103 331.107 47.9059 331.173 50.7074C331.327 55.1961 332.661 59.5649 335.04 63.3741V63.4141V63.4608L329.607 73.0741L334.893 63.3741V63.4608C332.471 59.648 331.102 55.2613 330.927 50.7474C330.846 47.9202 331.195 45.097 331.96 42.3741C333.89 35.972 338.198 30.552 344 27.2274C347.239 25.3911 350.842 24.2895 354.553 24.0008C358.478 23.681 362.424 24.2483 366.1 25.6608C366.572 25.8317 367.033 26.0321 367.48 26.2608L368.853 26.9274L370.187 27.7074C370.634 27.9562 371.064 28.2346 371.473 28.5408L372.667 29.4341C373.093 29.7274 373.447 30.1008 373.847 30.4408C374.247 30.7808 374.633 31.1075 374.987 31.4941L376.073 32.6674C378.757 35.6762 380.681 39.2833 381.687 43.1874C382.663 46.9241 382.804 50.83 382.1 54.6274C381.415 58.2269 379.964 61.6372 377.847 64.6274C374.054 70.0251 368.342 73.7694 361.88 75.0941L359.707 75.4474C358.993 75.5141 358.28 75.5341 357.58 75.5808C356.22 75.6472 354.857 75.5914 353.507 75.4141C351.068 75.1077 348.686 74.4521 346.433 73.4674C344.537 72.6369 342.746 71.5827 341.1 70.3274L341.22 70.2074L341.307 70.3141H341.173L329.58 73.0674Z" fill="#263238"/>
<path d="M349.573 45.3339L352.907 45.3006C352.9 44.92 352.971 44.5421 353.114 44.1894C353.257 43.8367 353.469 43.5164 353.738 43.2476C354.008 42.9788 354.329 42.767 354.682 42.6249C355.035 42.4829 355.413 42.4133 355.793 42.4206C356.356 42.3896 356.913 42.5374 357.386 42.8428C357.859 43.1482 358.223 43.5955 358.427 44.1206C358.608 44.5561 358.684 45.0283 358.648 45.4987C358.612 45.969 358.465 46.4243 358.22 46.8272C357.66 47.7672 356.427 48.6272 354.167 48.2539L354.24 55.7939H357.573L357.513 51.3339C358.867 50.9216 360.047 50.077 360.875 48.9295C361.702 47.7819 362.13 46.3947 362.093 44.9806C362.047 40.0939 357.653 38.9806 355.773 39.0206C354.34 39.0539 349.453 39.4472 349.573 45.3339Z" fill="white"/>
<path d="M357.614 57.3194L354.261 57.3516L354.291 60.4847L357.644 60.4526L357.614 57.3194Z" fill="white"/>
</svg>
