<svg width="24" height="24" viewBox="0 0 24 24" fill="none" xmlns="http://www.w3.org/2000/svg">
<path d="M21.6123 6.17116C21.611 6.17116 21.6097 6.17116 21.6085 6.17116H20.2942V5.73009C20.3013 5.55551 20.1862 5.39861 20.0151 5.34985C19.1027 5.11534 18.1632 4.99775 17.22 5.00003C15.6693 5.00003 13.5565 5.34225 11.9942 6.90121C10.4435 5.32704 8.31518 5.00003 6.76837 5.00003C5.82516 4.99775 4.88564 5.11534 3.97325 5.34985C3.80219 5.39861 3.68705 5.55551 3.69413 5.73009V6.16736H2.38767C2.17358 6.16736 2 6.33761 2 6.54759V18.6923C2 18.9023 2.17358 19.0726 2.38767 19.0726C2.45425 19.0724 2.51967 19.0554 2.57763 19.0231C2.6164 19.0041 6.49312 16.9242 11.905 18.2627H11.9632H11.9981C12.029 18.2663 12.0602 18.2663 12.0911 18.2627C17.5185 16.9128 21.3952 18.9889 21.4185 19.0231C21.5384 19.0911 21.6862 19.0911 21.8062 19.0231C21.9254 18.9556 21.9992 18.8312 22 18.6961V6.5514C22 6.34141 21.8265 6.17116 21.6123 6.17116ZM2.77534 18.0878V6.93163H3.70188V16.4679C3.69946 16.6779 3.87105 16.8501 4.08514 16.8525C4.10608 16.8527 4.12701 16.8513 4.1477 16.8482C4.9497 16.7281 5.7594 16.6645 6.57065 16.6581C7.69442 16.639 8.81348 16.8047 9.88137 17.1486C7.46981 16.8625 5.0237 17.1858 2.77534 18.0878ZM6.57065 15.9014C5.86553 15.903 5.16122 15.9474 4.46172 16.0345V6.03047C5.21651 5.86554 5.9873 5.78137 6.76061 5.77952C8.21051 5.77952 10.2109 6.10652 11.5988 7.64267L11.6104 17.1143C10.804 16.5972 9.23008 15.9014 6.57065 15.9014ZM12.3857 7.64267C13.7736 6.12173 15.774 5.77952 17.2239 5.77952C17.9971 5.78175 18.7679 5.86588 19.5228 6.03047V16.0345C18.8272 15.9466 18.1268 15.9009 17.4255 15.8976C14.7815 15.8976 13.2037 16.5934 12.3857 17.1105V7.64267ZM21.2208 18.0878C18.9676 17.1834 16.5159 16.86 14.0992 17.1486C15.1722 16.8035 16.2966 16.6377 17.4255 16.6581C18.2418 16.6625 19.0567 16.7248 19.8639 16.8444C20.0756 16.8759 20.2733 16.7331 20.3054 16.5255C20.3085 16.5052 20.31 16.4847 20.3097 16.4641V6.93163H21.2363L21.2208 18.0878Z" fill="white" stroke="white" stroke-width="0.6"/>
</svg>
