<svg width="50" height="50" viewBox="0 0 50 50" fill="none" xmlns="http://www.w3.org/2000/svg">
<g id="Folder">
<path id="Vector" d="M45.0626 13.8047H4.93738C2.20848 13.8209 0.00407453 16.0362 0.0013786 18.7652C-0.000459533 18.7929 -0.000459533 18.8208 0.0013786 18.8485L2.86886 40.2444C2.90367 42.9599 5.11359 45.1436 7.82937 45.1461H42.1902C44.9058 45.1436 47.1159 42.9599 47.1507 40.2444L49.9986 18.8485C50.0004 18.8208 50.0004 18.7929 49.9986 18.7652C49.996 16.0362 47.7916 13.8209 45.0626 13.8047Z" fill="url(#paint0_linear_483_25882)"/>
<path id="Vector_2" d="M41.4012 8.86388H25.2844L22.0984 5.07488C21.9776 4.92979 21.7968 4.84842 21.6082 4.8543H8.59911C6.56994 4.857 4.92555 6.50139 4.92285 8.53057V12.0647H6.14827H45.0431C44.8046 10.2349 43.2464 8.8656 41.4012 8.86388Z" fill="#0057FF"/>
</g>
<defs>
<linearGradient id="paint0_linear_483_25882" x1="25" y1="13.8047" x2="25" y2="45.1461" gradientUnits="userSpaceOnUse">
<stop stop-color="#0057FF" stop-opacity="0.8"/>
<stop offset="1" stop-color="#0057FF" stop-opacity="0.5"/>
</linearGradient>
</defs>
</svg>
