<svg width="24" height="24" viewBox="0 0 24 24" fill="none" xmlns="http://www.w3.org/2000/svg">
<path d="M12 2C6.477 2 2 6.477 2 12C2 17.523 6.477 22 12 22C17.523 22 22 17.523 22 12C22 6.477 17.523 2 12 2ZM18.918 8H15.703C15.5534 6.87482 15.365 5.75515 15.138 4.643C16.7259 5.32693 18.0513 6.50403 18.918 8ZM13.014 4.072C13.082 4.424 13.401 6.11 13.659 8H10.339C10.599 6.11 10.917 4.424 10.985 4.072C11.32 4.03 11.656 4 12 4C12.344 4 12.68 4.03 13.014 4.072ZM14 12C14 12.598 13.957 13.286 13.89 14H10.11C10.043 13.286 10 12.598 10 12C10 11.402 10.043 10.714 10.11 10H13.89C13.957 10.714 14 11.402 14 12ZM8.862 4.643C8.635 5.75515 8.44655 6.87482 8.297 8H5.082C5.94871 6.50403 7.27413 5.32693 8.862 4.643ZM4.262 10H8.084C8.034 10.668 8 11.344 8 12C8 12.656 8.033 13.332 8.085 14H4.263C4.097 13.36 4 12.692 4 12C4 11.308 4.098 10.64 4.263 10H4.262ZM5.082 16H8.297C8.485 17.424 8.717 18.65 8.862 19.357C7.27413 18.6731 5.94871 17.496 5.082 16ZM10.986 19.928C10.7373 18.6244 10.5222 17.3147 10.341 16H13.661C13.4781 17.3145 13.2627 18.6242 13.015 19.928C12.682 19.971 12.345 20 12.001 20C11.657 20 11.321 19.97 10.987 19.928H10.986ZM15.138 19.358C15.3649 18.2455 15.5533 17.1255 15.703 16H18.918C18.0513 17.496 16.7259 18.6731 15.138 19.357V19.358ZM19.738 14H15.916C15.966 13.332 16 12.656 16 12C16 11.344 15.967 10.668 15.915 10H19.735C19.902 10.64 20 11.308 20 12C20 12.692 19.903 13.36 19.737 14H19.738Z" fill="white"/>
</svg>
