<svg width="21" height="20" viewBox="0 0 21 20" fill="none" xmlns="http://www.w3.org/2000/svg">
<path d="M20.3632 7.28132L14.8946 2.59388C14.7794 2.49471 14.6169 2.47219 14.4772 2.5355C14.3388 2.59922 14.2499 2.73769 14.2499 2.89028V5.62998C9.88516 5.75131 7.77948 7.91189 6.77853 9.73263C5.90802 11.3153 5.71272 12.8824 5.66885 13.5255C5.66046 13.624 5.65625 13.7243 5.65625 13.8265V13.8277C5.65625 13.8277 5.65625 13.828 5.65625 13.8284V13.8288C5.65625 13.8292 5.65625 13.8292 5.65625 13.8292V13.8303V13.8307C5.65625 13.8307 5.65625 13.831 5.65625 13.8314V13.8318C5.65625 13.8322 5.65625 13.8326 5.65625 13.8326C5.65625 13.8329 5.65625 13.8329 5.65625 13.8329V13.8341C5.65625 13.8344 5.65625 13.8348 5.65625 13.8352C5.65625 13.8352 5.65625 13.8356 5.65625 13.8363V13.8367V13.8375V13.8378C5.65625 13.8382 5.65625 13.8386 5.65625 13.839L5.65662 13.8401C5.65662 13.8401 5.65662 13.8401 5.65662 13.8405C5.65662 13.8412 5.65662 13.8416 5.65662 13.8416C5.65662 13.842 5.65662 13.8424 5.65662 13.8427V13.8439V13.845V13.8454V13.8465C5.65662 13.8469 5.65662 13.8473 5.65662 13.8476C5.65662 13.8476 5.65662 13.8484 5.65698 13.8488C5.65698 13.8488 5.65698 13.8492 5.65698 13.8499V13.8503C5.65698 13.8507 5.65698 13.8511 5.65698 13.8514V13.8526C5.65698 13.8529 5.65698 13.8533 5.65698 13.8537C5.65662 13.8548 5.65775 13.8552 5.65735 13.8552V13.8564C5.65735 13.8567 5.65735 13.8571 5.65735 13.8575V13.8586C5.65735 13.8594 5.65771 13.8602 5.65771 13.8602V13.8613C5.65771 13.8617 5.65771 13.8621 5.65771 13.8624V13.8628V13.8636V13.8639L5.65808 13.8647V13.8651C5.65808 13.8654 5.65808 13.8658 5.65808 13.8658C5.65808 13.8662 5.65808 13.8662 5.65808 13.8662V13.8673V13.8677C5.65845 13.8681 5.65845 13.8681 5.65845 13.8685C5.65845 13.8685 5.65845 13.8689 5.65845 13.8693V13.8696C5.65845 13.87 5.65845 13.87 5.65845 13.87V13.8708C5.65881 13.8719 5.65881 13.8719 5.65881 13.8719C5.65881 13.8723 5.65881 13.8727 5.65881 13.873V13.8734V13.8742V13.8745C5.65918 13.8749 5.65918 13.8753 5.65918 13.8753C5.65918 13.8761 5.65918 13.8764 5.65918 13.8764C5.68361 14.0691 5.848 14.2178 6.04674 14.2178C6.26225 14.2178 6.43696 14.0435 6.43737 13.828V13.8276C6.43737 13.8078 6.43773 13.7593 6.44118 13.6853C6.61168 10.4372 12.6125 9.70018 14.2498 9.55941V12.2648C14.2498 12.4174 14.3386 12.5558 14.4771 12.6195C14.6163 12.6829 14.7784 12.6607 14.8944 12.5612L20.3631 7.87373C20.4497 7.79972 20.4996 7.69139 20.4996 7.57732C20.4998 7.46365 20.4498 7.35533 20.3632 7.28132ZM15.0311 11.416V9.14018C15.0311 9.03336 14.9876 8.93151 14.9102 8.85791C14.8377 8.78811 14.7408 8.74958 14.6405 8.74958C14.6348 8.74958 14.6287 8.74958 14.6226 8.74995C14.3475 8.76255 9.41594 9.01658 6.98638 11.1055C7.79013 8.98571 9.76842 6.40586 14.6386 6.40586H14.6405C14.7442 6.40586 14.8434 6.36466 14.9167 6.29142C14.9899 6.21818 15.0311 6.11901 15.0311 6.01523V3.73941L19.5091 7.57769L15.0311 11.416Z" fill="#68A4FF" stroke="#68A4FF" stroke-width="0.416667"/>
<path d="M17.7654 11.2541C17.5495 11.2541 17.3748 11.4288 17.3748 11.6447V14.9997C17.3748 15.4304 17.0242 15.781 16.5935 15.781H3.31249C2.88183 15.781 2.53126 15.4304 2.53126 14.9997V7.18731C2.53126 6.75665 2.88183 6.40608 3.31249 6.40608H8.72242C8.93833 6.40608 9.11305 6.23136 9.11305 6.01545C9.11305 5.79953 8.93833 5.62482 8.72242 5.62482H3.31249C2.45074 5.62485 1.75 6.32559 1.75 7.18731V14.9997C1.75 15.8614 2.45074 16.5622 3.31249 16.5622H16.5936C17.4553 16.5622 18.1561 15.8614 18.1561 14.9997V11.6447C18.156 11.4288 17.9813 11.2541 17.7654 11.2541Z" fill="#68A4FF" stroke="#68A4FF" stroke-width="0.416667"/>
</svg>
