<svg width="24" height="24" viewBox="0 0 24 24" fill="none" xmlns="http://www.w3.org/2000/svg">
<path d="M18.8791 9.6026C18.8765 9.56673 18.8697 9.5321 18.8581 9.49747C18.853 9.48357 18.8492 9.46959 18.8428 9.45523C18.8223 9.41089 18.7962 9.36865 18.7599 9.33277C18.7599 9.33238 18.7595 9.33192 18.7595 9.33192L11.4685 2.12377C11.4318 2.08743 11.3882 2.06165 11.3429 2.041C11.3305 2.03549 11.3182 2.03215 11.3053 2.02788C11.269 2.01522 11.2318 2.00761 11.1934 2.00551C11.1845 2.00466 11.1759 2 11.1669 2H6.34888C4.77773 2 3.5 3.26367 3.5 4.81705V19.1834C3.5 20.7368 4.77812 22 6.3488 22H16.0358C17.6065 22 18.8846 20.7368 18.8846 19.1834V9.63087C18.8846 9.62116 18.8795 9.61231 18.8791 9.6026ZM11.5932 3.44188L17.4262 9.20853H13.5877C12.4877 9.20853 11.5932 8.32418 11.5932 7.23662V3.44188ZM16.0358 21.1549H6.34888C5.24888 21.1549 4.35441 20.27 4.35441 19.1829V4.81705C4.35441 3.72949 5.24935 2.84475 6.34888 2.84475H10.7389V7.2367C10.7389 8.79008 12.017 10.0533 13.5877 10.0533H18.0303V19.183C18.0303 20.2705 17.1358 21.1549 16.0358 21.1549Z" fill="white" stroke="white"/>
</svg>
