<svg width="24" height="24" viewBox="0 0 24 24" fill="none" xmlns="http://www.w3.org/2000/svg">
<mask id="path-1-outside-1_483_25541" maskUnits="userSpaceOnUse" x="1.71289" y="3.4126" width="6" height="9" fill="black">
<rect fill="white" x="1.71289" y="3.4126" width="6" height="9"/>
<path d="M6.32792 11.6813C6.7101 11.6813 7.02028 11.3695 7.02028 10.9852C7.02028 10.6009 6.7101 10.289 6.32792 10.289C5.09829 10.289 4.09761 9.2838 4.09761 8.04743C4.09761 6.81107 5.09829 5.8049 6.32792 5.8049C6.7101 5.8049 7.02028 5.49302 7.02028 5.10875C7.02028 4.72447 6.7101 4.4126 6.32792 4.4126C4.33485 4.4126 2.71289 6.04345 2.71289 8.04743C2.71289 10.0514 4.33485 11.6813 6.32792 11.6813Z"/>
</mask>
<path d="M6.32792 11.6813C6.7101 11.6813 7.02028 11.3695 7.02028 10.9852C7.02028 10.6009 6.7101 10.289 6.32792 10.289C5.09829 10.289 4.09761 9.2838 4.09761 8.04743C4.09761 6.81107 5.09829 5.8049 6.32792 5.8049C6.7101 5.8049 7.02028 5.49302 7.02028 5.10875C7.02028 4.72447 6.7101 4.4126 6.32792 4.4126C4.33485 4.4126 2.71289 6.04345 2.71289 8.04743C2.71289 10.0514 4.33485 11.6813 6.32792 11.6813Z" fill="white"/>
<path d="M6.32792 11.8813C6.82159 11.8813 7.22028 11.4789 7.22028 10.9852H6.82028C6.82028 11.26 6.59862 11.4813 6.32792 11.4813V11.8813ZM7.22028 10.9852C7.22028 10.4915 6.82159 10.089 6.32792 10.089V10.489C6.59862 10.489 6.82028 10.7103 6.82028 10.9852H7.22028ZM6.32792 10.089C5.20967 10.089 4.29761 9.17426 4.29761 8.04743H3.89761C3.89761 9.39333 4.98692 10.489 6.32792 10.489V10.089ZM4.29761 8.04743C4.29761 6.92049 5.20978 6.0049 6.32792 6.0049V5.6049C4.98681 5.6049 3.89761 6.70164 3.89761 8.04743H4.29761ZM6.32792 6.0049C6.82159 6.0049 7.22028 5.60245 7.22028 5.10875H6.82028C6.82028 5.3836 6.59862 5.6049 6.32792 5.6049V6.0049ZM7.22028 5.10875C7.22028 4.61505 6.82159 4.2126 6.32792 4.2126V4.6126C6.59862 4.6126 6.82028 4.8339 6.82028 5.10875H7.22028ZM6.32792 4.2126C4.22337 4.2126 2.51289 5.93402 2.51289 8.04743H2.91289C2.91289 6.15287 4.44634 4.6126 6.32792 4.6126V4.2126ZM2.51289 8.04743C2.51289 10.1609 4.22344 11.8813 6.32792 11.8813V11.4813C4.44627 11.4813 2.91289 9.94193 2.91289 8.04743H2.51289Z" fill="white" mask="url(#path-1-outside-1_483_25541)"/>
<mask id="path-3-outside-2_483_25541" maskUnits="userSpaceOnUse" x="0" y="12.4814" width="6" height="6" fill="black">
<rect fill="white" y="12.4814" width="6" height="6"/>
<path d="M3.70273 15.066C4.13938 14.9676 4.58618 14.9017 5.03114 14.872C5.41332 14.8469 5.70134 14.5146 5.67549 14.1304C5.64965 13.747 5.30716 13.4546 4.9379 13.4834C4.42371 13.5177 3.90583 13.5929 3.41748 13.7025C2.27278 13.9289 1.52781 14.3921 1.20286 15.078C0.93238 15.6489 0.93238 16.3033 1.20286 16.8741C1.52412 17.5536 2.26725 18.0177 3.41287 18.2534C3.45995 18.2627 3.50611 18.2673 3.55226 18.2673C3.87444 18.2673 4.16338 18.0409 4.22985 17.7114C4.30647 17.3345 4.06553 16.9669 3.69073 16.8899C2.74267 16.694 2.51003 16.3961 2.4528 16.2764C2.36325 16.0861 2.36325 15.8661 2.4528 15.6758C2.57188 15.4252 3.03253 15.1987 3.70273 15.066Z"/>
</mask>
<path d="M3.70273 15.066C4.13938 14.9676 4.58618 14.9017 5.03114 14.872C5.41332 14.8469 5.70134 14.5146 5.67549 14.1304C5.64965 13.747 5.30716 13.4546 4.9379 13.4834C4.42371 13.5177 3.90583 13.5929 3.41748 13.7025C2.27278 13.9289 1.52781 14.3921 1.20286 15.078C0.93238 15.6489 0.93238 16.3033 1.20286 16.8741C1.52412 17.5536 2.26725 18.0177 3.41287 18.2534C3.45995 18.2627 3.50611 18.2673 3.55226 18.2673C3.87444 18.2673 4.16338 18.0409 4.22985 17.7114C4.30647 17.3345 4.06553 16.9669 3.69073 16.8899C2.74267 16.694 2.51003 16.3961 2.4528 16.2764C2.36325 16.0861 2.36325 15.8661 2.4528 15.6758C2.57188 15.4252 3.03253 15.1987 3.70273 15.066Z" fill="white"/>
<path d="M5.03114 14.872L5.01805 14.6724L5.01782 14.6724L5.03114 14.872ZM5.67549 14.1304L5.87504 14.1169L5.87504 14.1169L5.67549 14.1304ZM4.9379 13.4834L4.95123 13.683L4.95344 13.6828L4.9379 13.4834ZM3.41748 13.7025L3.45631 13.8987L3.46125 13.8976L3.41748 13.7025ZM1.20286 15.078L1.3836 15.1637L1.38361 15.1637L1.20286 15.078ZM1.20286 16.8741L1.38367 16.7886L1.3836 16.7885L1.20286 16.8741ZM3.41287 18.2534L3.37255 18.4493L3.37418 18.4496L3.41287 18.2534ZM4.22985 17.7114L4.03386 17.6715L4.0338 17.6718L4.22985 17.7114ZM3.69073 16.8899L3.65027 17.0858L3.65047 17.0858L3.69073 16.8899ZM2.4528 16.2764L2.27183 16.3615L2.27235 16.3626L2.4528 16.2764ZM2.4528 15.6758L2.27215 15.59L2.27183 15.5907L2.4528 15.6758ZM3.7467 15.2611C4.17359 15.1649 4.61014 15.1005 5.04446 15.0715L5.01782 14.6724C4.56222 14.7028 4.10518 14.7703 3.65877 14.8709L3.7467 15.2611ZM5.04423 15.0716C5.53831 15.0392 5.90821 14.61 5.87504 14.1169L5.47594 14.1438C5.49448 14.4193 5.28834 14.6547 5.01805 14.6724L5.04423 15.0716ZM5.87504 14.1169C5.84178 13.6237 5.40368 13.2465 4.92236 13.284L4.95344 13.6828C5.21064 13.6628 5.45751 13.8704 5.47595 14.1438L5.87504 14.1169ZM4.92457 13.2838C4.40022 13.3189 3.87215 13.3955 3.37371 13.5073L3.46125 13.8976C3.9395 13.7903 4.4472 13.7166 4.95123 13.683L4.92457 13.2838ZM3.37867 13.5063C2.20604 13.7383 1.38628 14.2237 1.02212 14.9924L1.38361 15.1637C1.66934 14.5605 2.33953 14.1196 3.4563 13.8987L3.37867 13.5063ZM1.02212 14.9924C0.725959 15.6175 0.725959 16.3347 1.02212 16.9598L1.3836 16.7885C1.1388 16.2718 1.1388 15.6803 1.3836 15.1637L1.02212 14.9924ZM1.02205 16.9596C1.38243 17.7218 2.20023 18.2081 3.37255 18.4493L3.45318 18.0575C2.33426 17.8273 1.6658 17.3853 1.38367 16.7886L1.02205 16.9596ZM3.37418 18.4496C3.43337 18.4613 3.49249 18.4673 3.55226 18.4673V18.0673C3.51973 18.0673 3.48653 18.0641 3.45155 18.0572L3.37418 18.4496ZM3.55226 18.4673C3.96781 18.4673 4.34025 18.1755 4.4259 17.7509L4.0338 17.6718C3.98652 17.9062 3.78107 18.0673 3.55226 18.0673V18.4673ZM4.42584 17.7512C4.5242 17.2674 4.21498 16.7935 3.731 16.694L3.65047 17.0858C3.91608 17.1404 4.08874 17.4016 4.03386 17.6715L4.42584 17.7512ZM3.7312 16.694C2.809 16.5035 2.65104 16.2273 2.63324 16.1901L2.27235 16.3626C2.36903 16.5649 2.67633 16.8846 3.65027 17.0858L3.7312 16.694ZM2.63376 16.1912C2.5696 16.0549 2.5696 15.8973 2.63376 15.761L2.27183 15.5907C2.15691 15.8349 2.15691 16.1173 2.27183 16.3615L2.63376 16.1912ZM2.63344 15.7616C2.66343 15.6985 2.75771 15.6048 2.95894 15.5064C3.15268 15.4116 3.41767 15.3263 3.74159 15.2622L3.66388 14.8698C3.3176 14.9384 3.01716 15.0327 2.78325 15.147C2.55684 15.2577 2.36125 15.4025 2.27215 15.59L2.63344 15.7616Z" fill="white" mask="url(#path-3-outside-2_483_25541)"/>
<mask id="path-5-outside-3_483_25541" maskUnits="userSpaceOnUse" x="15.9902" y="3.45093" width="6" height="9" fill="black">
<rect fill="white" x="15.9902" y="3.45093" width="6" height="9"/>
<path d="M17.6826 10.3116C17.3004 10.3116 16.9902 10.6235 16.9902 11.0077C16.9902 11.392 17.3004 11.7039 17.6826 11.7039C19.671 11.7039 21.2893 10.0768 21.2893 8.07741C21.2893 6.07714 19.671 4.45093 17.6826 4.45093C17.3004 4.45093 16.9902 4.76188 16.9902 5.14708C16.9902 5.53135 17.3004 5.84323 17.6826 5.84323C18.9076 5.84323 19.9046 6.84569 19.9046 8.07741C19.9046 9.30913 18.9076 10.3116 17.6826 10.3116Z"/>
</mask>
<path d="M17.6826 10.3116C17.3004 10.3116 16.9902 10.6235 16.9902 11.0077C16.9902 11.392 17.3004 11.7039 17.6826 11.7039C19.671 11.7039 21.2893 10.0768 21.2893 8.07741C21.2893 6.07714 19.671 4.45093 17.6826 4.45093C17.3004 4.45093 16.9902 4.76188 16.9902 5.14708C16.9902 5.53135 17.3004 5.84323 17.6826 5.84323C18.9076 5.84323 19.9046 6.84569 19.9046 8.07741C19.9046 9.30913 18.9076 10.3116 17.6826 10.3116Z" fill="white"/>
<path d="M17.6826 10.1116C17.1889 10.1116 16.7902 10.514 16.7902 11.0077H17.1902C17.1902 10.7329 17.4119 10.5116 17.6826 10.5116V10.1116ZM16.7902 11.0077C16.7902 11.5014 17.1889 11.9039 17.6826 11.9039V11.5039C17.4119 11.5039 17.1902 11.2826 17.1902 11.0077H16.7902ZM17.6826 11.9039C19.7825 11.9039 21.4893 10.1862 21.4893 8.07741H21.0893C21.0893 9.96733 19.5596 11.5039 17.6826 11.5039V11.9039ZM21.4893 8.07741C21.4893 5.96768 19.7825 4.25093 17.6826 4.25093V4.65093C19.5596 4.65093 21.0893 6.18659 21.0893 8.07741H21.4893ZM17.6826 4.25093C17.1891 4.25093 16.7902 4.65228 16.7902 5.14708H17.1902C17.1902 4.87147 17.4117 4.65093 17.6826 4.65093V4.25093ZM16.7902 5.14708C16.7902 5.64078 17.1889 6.04323 17.6826 6.04323V5.64323C17.4119 5.64323 17.1902 5.42193 17.1902 5.14708H16.7902ZM17.6826 6.04323C18.7961 6.04323 19.7046 6.95511 19.7046 8.07741H20.1046C20.1046 6.73626 19.0191 5.64323 17.6826 5.64323V6.04323ZM19.7046 8.07741C19.7046 9.19971 18.7961 10.1116 17.6826 10.1116V10.5116C19.0191 10.5116 20.1046 9.41856 20.1046 8.07741H19.7046Z" fill="white" mask="url(#path-5-outside-3_483_25541)"/>
<mask id="path-7-outside-4_483_25541" maskUnits="userSpaceOnUse" x="17.3311" y="12.4968" width="6" height="6" fill="black">
<rect fill="white" x="17.3311" y="12.4968" width="6" height="6"/>
<path d="M22.797 15.0879C22.473 14.4056 21.7298 13.9443 20.6027 13.7197C20.0968 13.6074 19.5817 13.5322 19.0693 13.4979C18.6908 13.4774 18.3576 13.7615 18.3327 14.1448C18.3068 14.5282 18.5948 14.8614 18.977 14.8864C19.4183 14.9162 19.8651 14.9821 20.3183 15.0823C20.9701 15.2122 21.4289 15.4378 21.5471 15.6875C21.6366 15.8768 21.6366 16.095 21.5471 16.2843C21.4907 16.4031 21.2581 16.7002 20.3137 16.896C19.9389 16.973 19.698 17.3415 19.7746 17.7184C19.842 18.047 20.13 18.2744 20.4513 18.2744C20.4984 18.2744 20.5454 18.2697 20.5916 18.2595C21.7354 18.0228 22.4767 17.5597 22.797 16.883C23.0675 16.3122 23.0675 15.6587 22.797 15.0879Z"/>
</mask>
<path d="M22.797 15.0879C22.473 14.4056 21.7298 13.9443 20.6027 13.7197C20.0968 13.6074 19.5817 13.5322 19.0693 13.4979C18.6908 13.4774 18.3576 13.7615 18.3327 14.1448C18.3068 14.5282 18.5948 14.8614 18.977 14.8864C19.4183 14.9162 19.8651 14.9821 20.3183 15.0823C20.9701 15.2122 21.4289 15.4378 21.5471 15.6875C21.6366 15.8768 21.6366 16.095 21.5471 16.2843C21.4907 16.4031 21.2581 16.7002 20.3137 16.896C19.9389 16.973 19.698 17.3415 19.7746 17.7184C19.842 18.047 20.13 18.2744 20.4513 18.2744C20.4984 18.2744 20.5454 18.2697 20.5916 18.2595C21.7354 18.0228 22.4767 17.5597 22.797 16.883C23.0675 16.3122 23.0675 15.6587 22.797 15.0879Z" fill="white"/>
<path d="M20.6027 13.7197L20.5593 13.915L20.5636 13.9158L20.6027 13.7197ZM19.0693 13.4979L19.0827 13.2983L19.0801 13.2982L19.0693 13.4979ZM18.3327 14.1448L18.5322 14.1583L18.5322 14.1578L18.3327 14.1448ZM18.977 14.8864L18.9905 14.6869L18.9901 14.6869L18.977 14.8864ZM20.3183 15.0823L20.2752 15.2776L20.2792 15.2784L20.3183 15.0823ZM21.5471 15.6875L21.7279 15.602L21.7278 15.6019L21.5471 15.6875ZM21.5471 16.2843L21.7278 16.37L21.7279 16.3698L21.5471 16.2843ZM20.3137 16.896L20.354 17.0919L20.3543 17.0918L20.3137 16.896ZM19.7746 17.7184L19.5786 17.7582L19.5787 17.7586L19.7746 17.7184ZM20.5916 18.2595L20.5511 18.0637L20.5484 18.0643L20.5916 18.2595ZM22.797 16.883L22.6163 16.7974L22.6162 16.7974L22.797 16.883ZM22.9777 15.0021C22.6145 14.2375 21.797 13.7538 20.6418 13.5236L20.5636 13.9158C21.6627 14.1349 22.3314 14.5738 22.6163 15.1737L22.9777 15.0021ZM20.646 13.5245C20.1306 13.41 19.6055 13.3334 19.0827 13.2983L19.056 13.6974C19.5579 13.7311 20.063 13.8047 20.5593 13.9149L20.646 13.5245ZM19.0801 13.2982C18.5959 13.272 18.1654 13.6354 18.1331 14.1318L18.5322 14.1578C18.5498 13.8875 18.7858 13.6829 19.0586 13.6976L19.0801 13.2982ZM18.1331 14.1314C18.0999 14.6234 18.4697 15.0536 18.9639 15.086L18.9901 14.6869C18.72 14.6692 18.5137 14.433 18.5322 14.1583L18.1331 14.1314ZM18.9636 15.086C19.3941 15.115 19.8309 15.1793 20.2752 15.2776L20.3615 14.887C19.8993 14.7848 19.4425 14.7173 18.9905 14.6869L18.9636 15.086ZM20.2792 15.2784C20.5937 15.3411 20.8536 15.4254 21.0445 15.5194C21.243 15.6171 21.3366 15.7104 21.3663 15.773L21.7278 15.6019C21.6393 15.4149 21.4445 15.2705 21.2211 15.1606C20.9902 15.0469 20.6948 14.9534 20.3575 14.8862L20.2792 15.2784ZM21.3663 15.773C21.4302 15.9082 21.4302 16.0636 21.3663 16.1988L21.7279 16.3698C21.843 16.1263 21.843 15.8455 21.7279 15.602L21.3663 15.773ZM21.3663 16.1987C21.3495 16.2342 21.1922 16.5096 20.2731 16.7002L20.3543 17.0918C21.324 16.8907 21.632 16.572 21.7278 16.37L21.3663 16.1987ZM20.2735 16.7001C19.7892 16.7996 19.4803 17.2747 19.5786 17.7582L19.9706 17.6785C19.9157 17.4084 20.0887 17.1465 20.354 17.0919L20.2735 16.7001ZM19.5787 17.7586C19.6653 18.1809 20.0358 18.4744 20.4513 18.4744V18.0744C20.2242 18.0744 20.0187 17.913 19.9705 17.6782L19.5787 17.7586ZM20.4513 18.4744C20.5115 18.4744 20.5731 18.4685 20.6348 18.4548L20.5484 18.0643C20.5178 18.071 20.4853 18.0744 20.4513 18.0744V18.4744ZM20.6321 18.4554C21.8024 18.2132 22.6183 17.7279 22.9778 16.9686L22.6162 16.7974C22.335 17.3914 21.6683 17.8325 20.5511 18.0637L20.6321 18.4554ZM22.9777 16.9686C23.2739 16.3436 23.2739 15.6273 22.9777 15.0022L22.6163 15.1735C22.8611 15.6901 22.8611 16.2807 22.6163 16.7974L22.9777 16.9686Z" fill="white" mask="url(#path-7-outside-4_483_25541)"/>
<mask id="path-9-outside-5_483_25541" maskUnits="userSpaceOnUse" x="4.25977" y="13.126" width="15" height="8" fill="black">
<rect fill="white" x="4.25977" y="13.126" width="15" height="8"/>
<path d="M11.9996 14.126C10.3324 14.126 5.25977 14.126 5.25977 17.3218C5.25977 18.043 5.54225 19.0417 6.88819 19.7054C7.30176 19.9077 7.8021 20.073 8.3763 20.1964C8.74833 20.2799 9.11758 20.0368 9.19697 19.6608C9.27729 19.2849 9.03819 18.9146 8.66432 18.8347C8.2009 18.7354 7.80764 18.6073 7.49747 18.4542C6.74141 18.082 6.64448 17.6541 6.64448 17.3218C6.64448 15.8311 9.557 15.5183 11.9996 15.5183C15.5537 15.5183 17.3548 16.1188 17.3548 17.3051C17.3548 18.7948 14.4423 19.1076 11.9996 19.1076C11.6175 19.1076 11.3073 19.4195 11.3073 19.8038C11.3073 20.1881 11.6175 20.4999 11.9996 20.4999C13.6668 20.4999 18.7395 20.4999 18.7395 17.3051C18.7395 14.126 13.8432 14.126 11.9996 14.126Z"/>
</mask>
<path d="M11.9996 14.126C10.3324 14.126 5.25977 14.126 5.25977 17.3218C5.25977 18.043 5.54225 19.0417 6.88819 19.7054C7.30176 19.9077 7.8021 20.073 8.3763 20.1964C8.74833 20.2799 9.11758 20.0368 9.19697 19.6608C9.27729 19.2849 9.03819 18.9146 8.66432 18.8347C8.2009 18.7354 7.80764 18.6073 7.49747 18.4542C6.74141 18.082 6.64448 17.6541 6.64448 17.3218C6.64448 15.8311 9.557 15.5183 11.9996 15.5183C15.5537 15.5183 17.3548 16.1188 17.3548 17.3051C17.3548 18.7948 14.4423 19.1076 11.9996 19.1076C11.6175 19.1076 11.3073 19.4195 11.3073 19.8038C11.3073 20.1881 11.6175 20.4999 11.9996 20.4999C13.6668 20.4999 18.7395 20.4999 18.7395 17.3051C18.7395 14.126 13.8432 14.126 11.9996 14.126Z" fill="white"/>
<path d="M6.88819 19.7054L6.79974 19.8848L6.80029 19.885L6.88819 19.7054ZM8.3763 20.1964L8.42012 20.0013L8.41834 20.0009L8.3763 20.1964ZM9.19697 19.6608L9.00139 19.6191L9.00129 19.6195L9.19697 19.6608ZM8.66432 18.8347L8.62241 19.0303L8.62256 19.0303L8.66432 18.8347ZM7.49747 18.4542L7.58601 18.2748L7.5858 18.2747L7.49747 18.4542ZM11.9996 13.926C11.1689 13.926 9.45819 13.925 7.95227 14.3324C7.19897 14.5362 6.47922 14.8466 5.94496 15.3252C5.4042 15.8097 5.05977 16.4618 5.05977 17.3218H5.45977C5.45977 16.5838 5.74942 16.0375 6.21188 15.6232C6.68085 15.203 7.33347 14.9142 8.05673 14.7185C9.50395 14.327 11.1632 14.326 11.9996 14.326V13.926ZM5.05977 17.3218C5.05977 17.7082 5.13548 18.174 5.39512 18.6335C5.65566 19.0947 6.09436 19.537 6.79974 19.8848L6.97664 19.526C6.33608 19.2102 5.96056 18.8212 5.74338 18.4368C5.52529 18.0508 5.45977 17.6566 5.45977 17.3218H5.05977ZM6.80029 19.885C7.23177 20.0961 7.74826 20.266 8.33426 20.3919L8.41834 20.0009C7.85594 19.88 7.37175 19.7193 6.97609 19.5257L6.80029 19.885ZM8.33248 20.3916C8.81643 20.5002 9.29092 20.1839 9.39266 19.7022L9.00129 19.6195C8.94425 19.8896 8.68022 20.0597 8.42012 20.0013L8.33248 20.3916ZM9.39256 19.7026C9.49579 19.2195 9.18876 18.7422 8.70608 18.6391L8.62256 19.0303C8.88762 19.0869 9.05879 19.3504 9.00139 19.6191L9.39256 19.7026ZM8.70623 18.6392C8.25338 18.5421 7.877 18.4185 7.58601 18.2748L7.40892 18.6335C7.73829 18.7961 8.14843 18.9287 8.62241 19.0303L8.70623 18.6392ZM7.5858 18.2747C7.23167 18.1004 7.05207 17.9231 6.95829 17.769C6.86537 17.6164 6.84448 17.4668 6.84448 17.3218H6.44448C6.44448 17.509 6.47206 17.7396 6.61662 17.977C6.76032 18.213 7.00721 18.4357 7.40913 18.6336L7.5858 18.2747ZM6.84448 17.3218C6.84448 17.0257 6.98494 16.7806 7.25953 16.5697C7.53991 16.3544 7.95051 16.1841 8.45567 16.0548C9.46413 15.7966 10.7825 15.7183 11.9996 15.7183V15.3183C10.7741 15.3183 9.41493 15.3963 8.35648 15.6673C7.82817 15.8025 7.35798 15.9898 7.01593 16.2525C6.66809 16.5195 6.44448 16.8725 6.44448 17.3218H6.84448ZM11.9996 15.7183C13.7706 15.7183 15.0834 15.8685 15.9467 16.1566C16.8162 16.4466 17.1548 16.8455 17.1548 17.3051H17.5548C17.5548 16.5784 16.9928 16.0839 16.0733 15.7771C15.1476 15.4683 13.7828 15.3183 11.9996 15.3183V15.7183ZM17.1548 17.3051C17.1548 17.6009 17.0144 17.8458 16.7398 18.0565C16.4594 18.2717 16.0488 18.442 15.5436 18.5713C14.5352 18.8293 13.2167 18.9076 11.9996 18.9076V19.3076C13.2252 19.3076 14.5843 19.2296 15.6428 18.9588C16.1711 18.8236 16.6413 18.6364 16.9833 18.3739C17.3311 18.107 17.5548 17.7541 17.5548 17.3051H17.1548ZM11.9996 18.9076C11.506 18.9076 11.1073 19.3101 11.1073 19.8038H11.5073C11.5073 19.5289 11.7289 19.3076 11.9996 19.3076V18.9076ZM11.1073 19.8038C11.1073 20.2975 11.506 20.6999 11.9996 20.6999V20.2999C11.7289 20.2999 11.5073 20.0786 11.5073 19.8038H11.1073ZM11.9996 20.6999C12.8304 20.6999 14.5411 20.7009 16.047 20.2936C16.8003 20.0899 17.52 19.7796 18.0543 19.3011C18.5951 18.8167 18.9395 18.1648 18.9395 17.3051H18.5395C18.5395 18.0428 18.2499 18.5889 17.7874 19.0031C17.3185 19.4232 16.6658 19.7119 15.9426 19.9075C14.4953 20.2989 12.8361 20.2999 11.9996 20.2999V20.6999ZM18.9395 17.3051C18.9395 16.4514 18.6078 15.8027 18.0808 15.3197C17.5601 14.8426 16.8564 14.5334 16.1136 14.3304C14.6292 13.9249 12.9178 13.926 11.9996 13.926V14.326C12.925 14.326 14.5835 14.3271 16.0082 14.7163C16.7199 14.9107 17.3555 15.1976 17.8105 15.6146C18.2592 16.0258 18.5395 16.5692 18.5395 17.3051H18.9395Z" fill="white" mask="url(#path-9-outside-5_483_25541)"/>
<mask id="path-11-outside-6_483_25541" maskUnits="userSpaceOnUse" x="6.43164" y="2.5" width="11" height="11" fill="black">
<rect fill="white" x="6.43164" y="2.5" width="11" height="11"/>
<path d="M8.124 8.78889C8.50618 8.78889 8.81636 8.47701 8.81636 8.09274C8.81636 6.32823 10.2445 4.8923 12.0003 4.8923C13.7561 4.8923 15.1833 6.32823 15.1833 8.09274C15.1833 9.85725 13.7561 11.2932 12.0003 11.2932C11.2793 11.2932 10.6017 11.0611 10.0404 10.623C9.73858 10.3863 9.30193 10.4402 9.06837 10.7446C8.8339 11.0481 8.88836 11.4853 9.19023 11.7211C9.99706 12.3523 10.9691 12.6855 12.0003 12.6855C14.5186 12.6855 16.568 10.6258 16.568 8.09274C16.568 5.55968 14.5186 3.5 12.0003 3.5C9.48102 3.5 7.43164 5.55968 7.43164 8.09274C7.43164 8.47701 7.74182 8.78889 8.124 8.78889Z"/>
</mask>
<path d="M8.124 8.78889C8.50618 8.78889 8.81636 8.47701 8.81636 8.09274C8.81636 6.32823 10.2445 4.8923 12.0003 4.8923C13.7561 4.8923 15.1833 6.32823 15.1833 8.09274C15.1833 9.85725 13.7561 11.2932 12.0003 11.2932C11.2793 11.2932 10.6017 11.0611 10.0404 10.623C9.73858 10.3863 9.30193 10.4402 9.06837 10.7446C8.8339 11.0481 8.88836 11.4853 9.19023 11.7211C9.99706 12.3523 10.9691 12.6855 12.0003 12.6855C14.5186 12.6855 16.568 10.6258 16.568 8.09274C16.568 5.55968 14.5186 3.5 12.0003 3.5C9.48102 3.5 7.43164 5.55968 7.43164 8.09274C7.43164 8.47701 7.74182 8.78889 8.124 8.78889Z" fill="white"/>
<path d="M10.0404 10.623L9.91704 10.7804L9.91738 10.7807L10.0404 10.623ZM9.06837 10.7446L9.22665 10.8669L9.22706 10.8663L9.06837 10.7446ZM9.19023 11.7211L9.31346 11.5636L9.31334 11.5635L9.19023 11.7211ZM8.124 8.98889C8.61767 8.98889 9.01636 8.58644 9.01636 8.09274H8.61636C8.61636 8.36759 8.39469 8.58889 8.124 8.58889V8.98889ZM9.01636 8.09274C9.01636 6.43769 10.3559 5.0923 12.0003 5.0923V4.6923C10.133 4.6923 8.61636 6.21877 8.61636 8.09274H9.01636ZM12.0003 5.0923C13.6446 5.0923 14.9833 6.43762 14.9833 8.09274H15.3833C15.3833 6.21884 13.8676 4.6923 12.0003 4.6923V5.0923ZM14.9833 8.09274C14.9833 9.74786 13.6446 11.0932 12.0003 11.0932V11.4932C13.8676 11.4932 15.3833 9.96664 15.3833 8.09274H14.9833ZM12.0003 11.0932C11.3234 11.0932 10.6892 10.8757 10.1635 10.4654L9.91738 10.7807C10.5142 11.2465 11.2352 11.4932 12.0003 11.4932V11.0932ZM10.1639 10.4656C9.77496 10.1607 9.2114 10.2296 8.90969 10.6229L9.22706 10.8663C9.39246 10.6507 9.7022 10.6119 9.91704 10.7804L10.1639 10.4656ZM8.9101 10.6223C8.60856 11.0127 8.67826 11.575 9.06712 11.8787L9.31334 11.5635C9.09846 11.3956 9.05924 11.0836 9.22665 10.8669L8.9101 10.6223ZM9.067 11.8786C9.90932 12.5375 10.9249 12.8855 12.0003 12.8855V12.4855C11.0134 12.4855 10.0848 12.167 9.31346 11.5636L9.067 11.8786ZM12.0003 12.8855C14.6301 12.8855 16.768 10.7353 16.768 8.09274H16.368C16.368 10.5163 14.4072 12.4855 12.0003 12.4855V12.8855ZM16.768 8.09274C16.768 5.45023 14.6301 3.3 12.0003 3.3V3.7C14.4072 3.7 16.368 5.66913 16.368 8.09274H16.768ZM12.0003 3.3C9.36959 3.3 7.23164 5.4502 7.23164 8.09274H7.63164C7.63164 5.66916 9.59245 3.7 12.0003 3.7V3.3ZM7.23164 8.09274C7.23164 8.58644 7.63033 8.98889 8.124 8.98889V8.58889C7.8533 8.58889 7.63164 8.36759 7.63164 8.09274H7.23164Z" fill="white" mask="url(#path-11-outside-6_483_25541)"/>
</svg>
